<svg width="61" height="58" viewBox="0 0 61 58" fill="none" xmlns="http://www.w3.org/2000/svg">
<path d="M29.7126 1.14038H29.3854L29.2544 1.44029L6.26006 54.0997L1.1301 55.5331L0.764648 55.6352V56.0146V56.8027V57.3027H1.26465H15.2916H15.7916V56.8027V56.0146V55.611L15.3971 55.5259L9.05802 54.1572L15.6198 39.0203H38.756L45.0338 54.1916L40.3703 55.5341L40.0087 55.6383V56.0146V56.8027V57.3027H40.5087H59.5002H60.0002V56.8027V56.0146V55.6415L59.6425 55.5353L54.8264 54.1055L32.7743 1.44724L32.6458 1.14038H32.3131H29.7126ZM27.4931 11.5965L37.6359 36.3654H16.7624L27.4931 11.5965Z" stroke="black" stroke-opacity="0.2"/>
</svg>
