<svg width="1440" height="384" viewBox="0 0 1440 384" fill="none" xmlns="http://www.w3.org/2000/svg">
<path d="M127.142 334.884C128.644 364.91 143.656 379.922 172.181 379.922C192.448 379.922 207.461 374.668 218.72 363.408L214.216 358.154C208.962 363.408 200.705 365.66 188.695 365.66C174.433 365.66 169.178 360.406 169.178 345.393V112.695C169.178 48.8908 118.135 1.60059 34.0633 1.60059C-3.46865 1.60059 -35.7461 10.6083 -63.5197 27.873C-90.5427 45.1376 -104.054 66.9062 -104.054 93.1785C-104.054 117.199 -89.7921 129.96 -71.7768 129.96C-53.0108 129.96 -37.998 114.947 -37.998 96.181V34.6287C-15.4789 20.3666 8.54155 12.8602 33.3126 12.8602C89.6105 12.8602 124.89 51.1427 124.89 105.189V171.996C122.639 172.746 118.135 172.746 112.88 173.497C73.8471 179.502 42.3203 184.756 18.2999 190.011C-5.72057 195.265 -28.9904 202.021 -50.7589 210.278C-95.0465 227.543 -113.812 254.566 -113.812 296.601C-113.812 353.65 -80.0338 382.174 -11.7257 382.174C43.8215 382.174 89.6105 365.66 124.89 332.632L127.142 334.884ZM124.89 316.118C97.1169 346.144 52.0786 364.91 10.7935 364.91C-37.2474 364.91 -67.2729 338.637 -67.2729 288.344V279.337C-65.021 248.561 -47.7563 226.041 -16.9802 213.281C3.28709 204.273 50.5773 194.515 124.89 183.255V316.118Z" fill="black"/>
<path d="M1460.69 328.879C1468.95 370.914 1497.47 380.673 1544.76 380.673C1607.07 380.673 1648.35 370.914 1668.62 350.647L1661.11 343.141C1654.36 349.897 1646.85 352.899 1637.84 352.899C1628.08 352.899 1623.58 348.395 1623.58 339.388V119.451C1623.58 47.3893 1552.27 0.0991211 1419.41 0.0991211C1376.62 0.0991211 1339.84 5.35358 1303.81 18.1144C1267.78 30.1246 1245.26 57.1476 1245.26 93.9289C1245.26 138.217 1276.03 168.242 1323.32 168.242C1371.36 168.242 1400.64 136.715 1400.64 77.4149V16.6131C1406.64 13.6106 1411.9 12.1093 1417.15 12.1093C1444.93 12.1093 1458.44 37.631 1458.44 87.9238V167.491L1449.43 168.993C1303.06 199.769 1231.75 214.031 1231.75 293.599C1231.75 351.398 1267.03 383.675 1330.08 383.675C1375.87 383.675 1418.66 364.909 1458.44 326.627L1460.69 328.879ZM1458.44 307.11C1444.18 324.375 1430.67 333.383 1419.41 333.383C1400.64 333.383 1395.39 315.367 1395.39 280.087C1395.39 227.543 1399.89 202.021 1416.4 193.013C1430.67 184.756 1434.42 184.756 1458.44 179.502V307.11Z" fill="black"/>
</svg>
