<svg width="1685" height="1375" viewBox="0 0 1685 1375" fill="none" xmlns="http://www.w3.org/2000/svg">
<path d="M420.723 721.727L411.249 759.005L410.93 758.924L410.528 758.822L410.327 758.771L410.149 758.876L409.824 759.07L409.623 759.019L409.221 758.917L408.819 758.815L408.417 758.713L408.016 758.611L407.815 758.56L407.637 758.666L407.311 758.859L407.11 758.808L406.708 758.706L406.307 758.604L405.905 758.502L405.503 758.4L405.302 758.349L405.124 758.455L404.759 758.672C358.425 754.583 327.358 753.956 311.715 756.416L311.713 756.417C299.823 758.342 290.239 762.483 282.954 768.799C275.667 775.118 270.71 783.587 268.034 794.116C264.333 808.68 265.788 821.608 272.833 832.073C279.872 842.529 292.435 850.445 310.785 855.108C338.86 862.244 365.299 859.195 389.68 845.852L390.244 846.8C389.184 855.299 390.528 862.346 394.457 867.859C398.41 873.405 404.926 877.324 414.036 879.639C431.357 884.042 444.49 883.524 453.729 878.029L454.158 877.774L453.903 877.344L451.805 873.817L451.55 873.387L451.12 873.643C447.744 875.651 443.064 876.149 437.119 874.638C433.98 873.84 431.918 872.481 430.823 870.575C429.727 868.665 429.54 866.099 430.391 862.752L461.532 740.225C466.115 722.193 462.224 704.802 450.662 690.274C439.108 675.757 419.919 664.125 393.934 657.521C372.578 652.094 352.482 651.704 334.364 656.991C316.314 661.885 305.458 672.111 301.627 687.181C299.559 695.319 300.463 702.424 303.712 707.961C306.961 713.498 312.522 717.41 319.66 719.224C327.013 721.093 333.947 720.025 339.567 716.422C345.184 712.82 349.444 706.713 351.512 698.577L359.715 666.3C370.316 662.725 380.595 662.006 391.251 664.714C404.185 668.001 413.329 675.193 418.356 685.059C423.388 694.935 424.326 707.551 420.723 721.727ZM408.247 766.116L408.447 766.167L408.625 766.062L408.951 765.868L409.152 765.919L409.471 766L391.775 835.624C373.59 847.063 354.974 850.339 336.298 845.592C325.959 842.964 318.6 837.605 314.576 829.925C310.547 822.235 309.819 812.139 312.914 799.963C317.887 780.396 328.087 768.658 342.952 764.855C347.916 763.585 355.705 763.011 366.303 763.14C376.881 763.269 390.221 764.098 406.275 765.615L406.64 765.708L407.041 765.81L407.443 765.912L407.845 766.014L408.247 766.116Z" stroke="#A5A3A2"/>
<path d="M158.525 1039.13C134.392 1002.17 128.386 974.977 132.6 953.196C136.832 931.32 151.395 914.779 168.6 899.204C173.585 894.692 178.795 890.258 184.034 885.8C196.839 874.904 209.818 863.859 220.102 851.157C234.629 833.213 243.844 811.899 239.807 782.871L239.759 782.525L239.418 782.451L229.524 780.317L229.017 780.207L228.927 780.718C227.581 788.308 222.283 795.821 214.496 803.772C207.539 810.876 198.656 818.271 188.966 826.339C187.819 827.294 186.661 828.258 185.494 829.232C163.454 847.623 138.105 869.542 122.385 899.007L122.382 899.013C107.246 928.4 99.4282 961.775 115.537 1010.8L115.537 1010.8L115.54 1010.8C123.872 1034.78 137.546 1060.82 156.986 1088.64C190.848 1137.1 225.273 1167.16 260.32 1178.77C295.4 1190.39 331.014 1183.49 367.155 1158.24C400.674 1134.81 420.71 1105.91 426.623 1072.56C432.97 1038.9 424.092 1004.86 400.668 971.345C376.939 937.39 348.033 917.358 313.647 910.879C279.69 904.096 246.522 912.363 214.299 934.882C175.647 961.892 155.403 1002.47 159.594 1038.38L158.525 1039.13ZM353.214 1003.22C376.399 1036.39 388.507 1066.42 390.133 1091.41C391.758 1116.37 382.929 1136.3 364.201 1149.39C345.472 1162.48 323.612 1163.99 300.623 1153.96C277.61 1143.92 253.465 1122.3 230.28 1089.12C207.096 1055.95 195.02 1025.73 193.426 1000.56C191.833 975.416 200.697 955.302 219.423 942.215C238.153 929.126 259.828 927.58 282.707 937.685C305.611 947.802 329.724 969.602 353.214 1003.22Z" stroke="#A5A3A2"/>
<path d="M485.513 939.19L485.513 939.186C486.732 929.059 483.728 919.562 476.481 910.627C469.305 901.78 460.631 896.881 450.471 895.984C440.149 895.07 430.292 898.524 420.669 906.33C411.133 914.064 405.721 922.996 404.485 933.283C403.178 943.482 406.182 952.98 413.358 961.827C420.605 970.762 429.28 975.662 439.53 976.487C449.778 977.312 459.634 973.86 469.17 966.125C478.793 958.32 484.205 949.388 485.513 939.19ZM460.602 955.383C451.015 963.159 442.04 967.222 434.316 967.904C426.616 968.583 420.133 965.908 415.448 960.132C410.764 954.357 409.501 947.483 411.772 940.112C414.05 932.717 419.895 924.795 429.483 917.018C439.027 909.276 447.941 905.227 455.613 904.55C463.261 903.876 469.705 906.546 474.391 912.322C479.077 918.1 480.377 924.979 478.156 932.345C475.928 939.734 470.145 947.642 460.602 955.383Z" stroke="#A5A3A2"/>
<path d="M520.392 1224.78L520.019 1224.82L519.954 1225.19L519.398 1228.31L519.311 1228.8L519.803 1228.89L593.679 1242.05L594.172 1242.13L594.259 1241.64L594.814 1238.52L594.88 1238.16L594.544 1237.99L575.674 1228.62L611.46 1027.71L632.157 1026.66L632.554 1026.64L632.624 1026.25L633.123 1023.44L633.211 1022.95L632.719 1022.86L468.133 993.548L467.641 993.46L467.554 993.952L467.054 996.758L466.984 997.149L467.35 997.305L486.37 1005.42L439.468 1166.1C439.468 1166.1 439.468 1166.1 439.468 1166.1C436.229 1177.08 432.608 1185.71 429.038 1191.44C427.251 1194.31 425.492 1196.43 423.821 1197.76C422.149 1199.09 420.62 1199.59 419.257 1199.35C419.012 1199.31 418.686 1199.18 418.239 1198.98C418.036 1198.89 417.818 1198.79 417.578 1198.68L417.522 1198.65C417.368 1198.58 417.205 1198.5 417.035 1198.43L418.854 1188.21C419.982 1181.88 418.993 1176.42 416.245 1172.28C413.496 1168.14 409.024 1165.37 403.3 1164.35C397.735 1163.36 392.677 1164.35 388.726 1167.17C384.776 1170 381.988 1174.62 380.887 1180.8C379.416 1189.06 381.758 1195.74 386.354 1200.68C390.935 1205.6 397.725 1208.75 405.126 1210.07C415.108 1211.85 423.709 1209.12 430.962 1201.87C438.189 1194.66 444.061 1182.98 448.7 1166.89L495.345 1005.84L577.326 1020.44L541.336 1222.51L520.392 1224.78Z" stroke="#A5A3A2"/>
<path d="M618.546 1043.58L618.596 1043.97L618.984 1044.01L632.619 1045.61L645.723 1147.18L632.961 1152.41L632.606 1152.55L632.655 1152.94L632.888 1154.75L632.952 1155.24L633.448 1155.18L700.917 1146.47C714.112 1144.77 724.72 1140.51 731.742 1134.33C738.779 1128.13 742.199 1120 740.993 1110.65C739.995 1102.91 735.964 1096.74 729.586 1092.49C723.8 1088.64 716.098 1086.38 706.997 1085.96C713.898 1083.38 719.383 1079.57 723.073 1074.82C727.226 1069.47 729.084 1062.94 728.147 1055.68C727.015 1046.91 722.225 1040.3 714.847 1036.27C707.485 1032.25 697.575 1030.81 686.184 1032.28L618.715 1040.98L618.219 1041.05L618.283 1041.54L618.546 1043.58ZM686.428 1091.26C694.49 1090.22 701.264 1091.62 706.283 1095.32C711.299 1099.02 714.635 1105.06 715.717 1113.45C716.799 1121.84 715.106 1128.53 711.193 1133.38C707.277 1138.23 701.08 1141.3 693.019 1142.34L670.421 1145.26L663.831 1094.18L686.428 1091.26ZM657.025 1041.42L679.622 1038.51C685.959 1037.69 691.35 1039.14 695.404 1042.66C699.466 1046.19 702.246 1051.86 703.244 1059.58C704.241 1067.31 702.989 1073.5 699.956 1077.94C696.929 1082.38 692.082 1085.15 685.745 1085.97L663.148 1088.88L657.025 1041.42Z" stroke="#A5A3A2"/>
<path d="M636.049 800.656L636.049 800.657L629.238 823.566C629.237 823.568 629.237 823.57 629.236 823.572C625.657 834.68 618.925 843.394 609.604 849.053C600.389 854.648 588.61 857.277 574.784 856.245L582.169 764.736L609.404 758.469L609.761 758.387L609.791 758.022L610.153 753.538L610.193 753.039L609.694 752.999L509.248 744.893L508.75 744.853L508.71 745.352L508.348 749.836L508.319 750.201L508.658 750.339L534.536 760.892L518.601 958.363L491.365 964.63L491.008 964.712L490.979 965.077L490.617 969.561L490.577 970.06L491.075 970.1L590.176 978.097L590.674 978.137L590.715 977.639L591.076 973.154L591.105 972.795L590.774 972.654L566.233 962.213L574.125 864.418L596.496 866.223C611.911 867.467 622.302 871.23 629.45 878.244C636.602 885.263 640.585 895.613 643.008 910.212C643.008 910.214 643.009 910.216 643.009 910.217L647.078 938.068L647.079 938.076L647.081 938.084C650.037 954.568 653.38 966.57 659.58 974.729C665.814 982.932 674.881 987.189 689.096 988.336C706.659 989.753 720.625 986.348 729.97 978.399L730.377 978.052L730.005 977.669L726.671 974.241L726.397 973.96L726.059 974.158C721.375 976.904 716.85 978.289 712.502 977.938C709.781 977.718 707.548 976.91 705.647 975.423C703.739 973.93 702.132 971.727 700.711 968.666C697.86 962.525 695.817 953.063 693.538 939.332C693.538 939.33 693.537 939.328 693.537 939.326L690.039 915.583L690.039 915.579C687.195 897.443 680.851 884.496 669.011 875.606C657.193 866.734 639.973 861.958 615.504 859.984L609.682 859.514C624.492 853.665 634.747 842.037 640.057 824.663C640.057 824.663 640.057 824.662 640.057 824.662L647.355 801.333L647.355 801.332C650.698 790.577 654.704 782.629 659.288 777.495C663.859 772.376 668.985 770.07 674.627 770.525C676.247 770.656 677.81 771.167 678.971 772.004L677.437 791.012C676.83 798.531 678.945 805.042 683.122 809.827C687.299 814.611 693.505 817.634 701.016 818.24C708.296 818.828 714.563 817.041 719.181 812.951C723.798 808.863 726.707 802.529 727.384 794.14C728.318 782.562 724.564 773.755 717.645 767.622C710.745 761.505 700.746 758.09 689.246 757.162C676.133 756.104 665.145 759.203 656.269 766.489C647.405 773.765 640.696 785.177 636.049 800.656Z" stroke="#A5A3A2"/>
<path d="M217.905 754.528L218.044 754.496L218.145 754.396C219.678 752.876 221.231 750.94 222.735 748.335C228.267 738.753 229.461 728.796 226.1 718.82C222.744 708.859 215.748 700.717 205.228 694.644C193.411 687.821 181.263 685.992 169.225 689.218C157.174 692.447 147.549 700.528 140.178 713.295C133.271 725.257 131.074 737.467 134.042 748.673C137.011 759.88 145.126 770.006 158.693 777.839C171.952 785.494 185.249 787.56 198.554 783.994L199.017 783.87L198.913 783.403L198.26 780.458L198.146 779.948L197.642 780.084C187.905 782.693 178.325 781.386 168.966 775.982C158.791 770.108 152.998 762.476 151.347 753.523C149.714 744.666 152.118 734.423 158.522 723.179L214.092 755.263L214.262 755.361L214.454 755.317L217.905 754.528ZM203.98 698.287C209.828 701.664 212.814 707.11 212.79 714.45C212.766 721.734 209.773 730.885 203.605 741.666L160.439 719.888C167.371 708.759 175.151 701.603 182.714 698.093C190.37 694.541 197.803 694.721 203.98 698.287ZM185.641 661.232C182.075 667.409 183.989 674.549 190.165 678.115C196.342 681.681 203.482 679.768 207.048 673.592C210.519 667.58 208.705 660.277 202.524 656.709C196.343 653.14 189.112 655.221 185.641 661.232ZM221.587 681.986C218.019 688.167 220.099 695.398 226.111 698.869C232.279 702.43 239.583 700.623 243.154 694.438C246.63 688.417 244.642 681.026 238.47 677.462C232.454 673.989 225.061 675.97 221.587 681.986Z" stroke="#A5A3A2"/>
<path d="M807.42 1189.42L807.212 1189.71L807.409 1190L809.094 1192.49L809.374 1192.9L809.788 1192.62L826.767 1181.15L827.181 1180.87L826.901 1180.45L783.936 1116.9L783.656 1116.49L783.242 1116.77L781.84 1117.71L781.517 1117.93L781.65 1118.3L785.499 1128.86L716.499 1175.51L707.508 1168.39L707.221 1168.16L706.918 1168.37L705.36 1169.42L704.946 1169.7L705.226 1170.11L731.973 1209.68L732.254 1210.09L732.668 1209.81L734.225 1208.76L734.561 1208.53L734.408 1208.16L728.043 1192.51L797.543 1145.53L817.706 1175.35L807.42 1189.42Z" stroke="#A5A3A2"/>
<path d="M628.543 695.437L628.35 695.898L628.811 696.092L700.044 726.045L700.505 726.238L700.699 725.777L702.079 722.495L702.215 722.17L701.956 721.932L687.44 708.618L689.729 703.174L819.019 618.766L819.278 619.401L807.757 644.065L807.753 644.074L807.749 644.083L766.614 741.91L746.945 740.85L746.594 740.831L746.457 741.155L745.077 744.438L744.883 744.899L745.344 745.093L816.578 775.046L817.038 775.239L817.232 774.779L818.613 771.496L818.754 771.158L818.476 770.921L801.681 756.64L862.407 612.222L884.361 614.233L884.726 614.267L884.868 613.929L886.248 610.647L886.442 610.186L885.981 609.992L814.748 580.039L814.287 579.845L814.093 580.306L812.713 583.589L812.576 583.913L812.835 584.151L827.352 597.466L825.063 602.909L695.773 687.318L695.513 686.682L707.034 662.018L707.038 662.009L707.042 662L748.177 564.174L767.846 565.234L768.198 565.252L768.334 564.928L769.714 561.645L769.908 561.184L769.447 560.991L698.214 531.038L697.753 530.844L697.559 531.305L696.179 534.588L696.037 534.925L696.316 535.162L713.11 549.444L652.384 693.862L630.43 691.85L630.066 691.817L629.924 692.154L628.543 695.437Z" stroke="#A5A3A2"/>
<path d="M1385.6 586.874L1385.3 587.277L1385.71 587.573L1428.33 618.767L1428.74 619.062L1429.03 618.658L1430.47 616.694L1430.68 616.41L1430.48 616.119L1423 605.059L1425.29 601.931L1524.4 566.35L1524.43 566.556L1512.91 581.078L1512.9 581.086L1512.9 581.094L1470.12 639.544L1457.32 635.757L1456.98 635.657L1456.77 635.941L1455.33 637.905L1455.04 638.309L1455.44 638.604L1498.07 669.798L1498.47 670.093L1498.77 669.69L1500.2 667.725L1500.42 667.43L1500.2 667.135L1491.37 655.073L1554.47 568.84L1568.64 573.616L1568.99 573.733L1569.2 573.437L1570.64 571.473L1570.94 571.07L1570.53 570.774L1527.91 539.58L1527.5 539.285L1527.21 539.689L1525.77 541.653L1525.56 541.937L1525.76 542.228L1533.24 553.288L1530.95 556.416L1431.85 591.997L1431.81 591.791L1443.34 577.269L1443.34 577.261L1443.35 577.253L1486.12 518.803L1498.93 522.59L1499.26 522.69L1499.47 522.406L1500.91 520.442L1501.2 520.038L1500.8 519.743L1458.17 488.549L1457.77 488.254L1457.48 488.657L1456.04 490.622L1455.82 490.917L1456.04 491.212L1464.88 503.274L1401.77 589.507L1387.6 584.731L1387.25 584.614L1387.04 584.91L1385.6 586.874ZM1546.57 509.519L1538.14 521.039C1528.93 518.845 1520.25 512.493 1515.38 504.379L1523.8 492.876C1526.8 489.401 1527.57 485.729 1526.87 482.396C1526.16 479.078 1524 476.15 1521.23 474.104C1518.46 472.059 1515.04 470.862 1511.77 471.06C1508.48 471.258 1505.37 472.865 1503.27 476.359C1498.7 482.846 1500.01 491.196 1504.11 498.983C1508.22 506.789 1515.2 514.178 1522.25 518.885C1530.36 524.815 1538.84 528.592 1547.89 530.351C1557.19 532.265 1564.07 530.175 1568.38 524.274C1570.54 521.332 1571.43 517.98 1570.98 514.769C1570.53 511.556 1568.73 508.527 1565.59 506.226C1562.35 503.856 1558.82 502.986 1555.47 503.574C1552.12 504.16 1549.01 506.192 1546.57 509.519Z" stroke="#A5A3A2"/>
<path d="M868.124 993.2L868.473 993.089V992.723V991.022V990.522H867.973H842.287H841.962L841.83 990.819L812.859 1056.13L784.056 990.82L783.925 990.522H783.599H757.572H757.072V991.022V992.723V993.089L757.421 993.2L767.26 996.315L763.554 1071.11L753.679 1074.24L753.33 1074.35V1074.72V1076.08V1076.58H753.83H777.305H777.805V1076.08V1074.72V1074.35L777.456 1074.24L767.618 1071.12L771.062 1005.36L802.875 1076.28L803.008 1076.58H803.332H808.265H808.591L808.722 1076.28L839.852 1005.74L843.129 1070.78L833.29 1073.9L832.941 1074.01V1074.38V1076.08V1076.58H833.441H871.546H872.046V1076.08V1074.38V1074.01L871.697 1073.9L861.822 1070.77L858.284 996.316L868.124 993.2Z" stroke="#A5A3A2"/>
<path d="M1129.06 841.013L1128.7 841.362L1129.05 841.72L1192.68 907.164L1193.02 907.523L1193.38 907.174L1196.41 904.229L1196.66 903.985L1196.52 903.666L1187.1 882.633L1252.24 819.302L1323.13 892.209L1257.99 955.54L1237.23 945.534L1236.91 945.382L1236.66 945.626L1233.63 948.572L1233.27 948.92L1233.62 949.279L1297.25 1014.72L1297.6 1015.08L1297.96 1014.73L1300.99 1011.79L1301.25 1011.53L1301.09 1011.2L1289.33 987.756L1422.73 858.063L1445.83 870.472L1446.16 870.645L1446.42 870.39L1449.45 867.444L1449.81 867.096L1449.46 866.737L1385.83 801.293L1385.48 800.935L1385.12 801.283L1382.09 804.229L1381.84 804.473L1381.99 804.792L1391.4 825.825L1330.2 885.326L1259.32 812.419L1320.52 752.917L1341.28 762.923L1341.59 763.075L1341.84 762.832L1344.87 759.886L1345.23 759.537L1344.88 759.179L1281.25 693.735L1280.91 693.376L1280.55 693.725L1277.52 696.671L1277.26 696.926L1277.42 697.253L1289.17 720.702L1155.78 850.394L1132.67 837.986L1132.35 837.812L1132.09 838.068L1129.06 841.013Z" stroke="#A5A3A2"/>
<path d="M1304.74 252.178L1304.35 251.875L1304.04 252.273L1302.5 254.297L1302.26 254.62L1302.52 254.927L1317.55 272.349L1288.53 310.443C1284.55 301.925 1278.1 294.279 1269.2 287.499C1253.62 275.634 1237.44 271.116 1221.85 273.914C1206.26 276.71 1191.35 286.799 1178.27 303.977C1166.81 319.014 1160.77 334.005 1160.91 347.78C1161.06 361.577 1167.4 374.083 1180.57 384.113C1193.7 394.113 1208.35 398.001 1224.3 395.61L1224.34 395.955L1215.4 406.459L1215.26 406.621L1215.28 406.832L1215.75 411.672L1215.78 411.921L1215.99 412.051L1249.04 432.101L1249.42 432.334L1249.69 431.976L1251.39 429.749L1251.63 429.428L1251.37 429.121L1241.49 417.541L1339.43 288.964L1354.16 294.247L1354.51 294.371L1354.73 294.08L1356.27 292.055L1356.57 291.657L1356.18 291.354L1304.74 252.178ZM1227.83 390.136C1216.05 392.758 1205.64 390.75 1196.7 383.943C1188.15 377.432 1184.56 368.118 1185.8 356.105C1187.05 344.065 1192.7 331.211 1202.99 317.692C1214.45 302.647 1226.28 292.994 1237.7 289.001C1249.1 285.019 1260.14 286.652 1270.13 294.263C1276.26 298.936 1281.47 305.685 1285.53 314.384L1227.83 390.136Z" stroke="#A5A3A2"/>
<path d="M480.616 694.99L480.487 695.473L480.97 695.602L517.545 705.402L518.028 705.532L518.158 705.049L518.611 703.356L518.702 703.018L518.416 702.817L510.759 697.441L531.002 621.893L571.184 632.66L550.941 708.208L541.621 709.035L541.273 709.066L541.183 709.404L540.729 711.097L540.6 711.58L541.082 711.709L577.658 721.51L578.141 721.639L578.271 721.156L578.724 719.463L578.819 719.109L578.511 718.912L569.521 713.169L589.607 638.209L600.057 638.384L600.447 638.391L600.548 638.014L600.957 636.49L601.086 636.007L600.603 635.878L503.915 609.97L503.432 609.841L503.302 610.323L502.894 611.847L502.793 612.225L503.134 612.414L512.272 617.487L492.186 692.448L481.53 692.926L481.164 692.943L481.07 693.296L480.616 694.99Z" stroke="#A5A3A2"/>
<path d="M907.312 842.534L923.829 857.626L838.884 920.31L848.497 814.914L864.799 818.446L865.158 818.524L865.34 818.204L866.67 815.855L866.916 815.42L866.481 815.174L812.933 784.847L812.498 784.601L812.251 785.036L810.921 787.384L810.742 787.701L810.989 787.969L822.168 800.117L809.562 941.403C797.01 950.775 787.041 957.647 779.166 961.591C771.22 965.571 765.583 966.478 761.597 964.221C761.032 963.901 760.357 963.288 759.757 962.46L764.922 953.34C767.173 949.366 767.74 945.271 766.751 941.603C765.761 937.935 763.227 934.745 759.366 932.559C755.63 930.443 751.829 929.885 748.342 930.954C744.86 932.022 741.765 934.69 739.392 938.881C735.918 945.015 736.072 950.934 738.432 956.059C740.783 961.162 745.307 965.45 750.538 968.413C758.213 972.759 766.952 972.945 776.594 968.673C786.409 964.561 800.173 956.178 817.639 943.418L817.64 943.418L929.893 861.132L947.228 865.131L947.592 865.215L947.776 864.89L949.106 862.542L949.352 862.107L948.917 861.86L909.226 839.381L908.791 839.135L908.544 839.57L907.214 841.919L907.018 842.265L907.312 842.534Z" stroke="#A5A3A2"/>
<path d="M1347.91 145.972L1348.23 145.82L1348.19 145.474L1348 143.546L1347.95 143.049L1347.46 143.098L1306.01 147.166L1305.51 147.215L1305.56 147.713L1305.75 149.641L1305.78 150.005L1306.14 150.081L1317.71 152.533L1326.1 237.963L1315.19 242.048L1314.83 242.183L1314.87 242.565L1315.02 244.108L1315.07 244.605L1315.57 244.556L1474.81 228.924L1475.31 228.876L1475.26 228.378L1475.11 226.836L1475.07 226.453L1474.69 226.391L1463.2 224.504L1454.82 139.074L1465.69 134.42L1466.02 134.275L1465.99 133.911L1465.8 131.983L1465.75 131.486L1465.25 131.534L1423.8 135.603L1423.3 135.652L1423.35 136.15L1423.54 138.078L1423.58 138.423L1423.91 138.512L1433.77 141.121L1442.22 227.226L1405.24 230.856L1396.78 144.752L1405.94 140.276L1406.26 140.123L1406.22 139.778L1406.03 137.85L1405.98 137.352L1405.49 137.401L1365.96 141.281L1365.47 141.33L1365.52 141.827L1365.71 143.755L1365.74 144.098L1366.07 144.189L1375.74 146.815L1384.19 232.922L1347.21 236.553L1338.75 150.448L1347.91 145.972Z" stroke="#A5A3A2"/>
<path d="M918.48 800.25L918.588 800.603H918.958H922.111H922.611V800.103V778.032V777.532H922.111H913.152V713.761L921.402 711.148L921.751 711.038V710.671V709.238V708.738H921.251H890.151H889.651V709.238V710.671V711.023L889.982 711.142L897.247 713.746V777.532H863.85V713.744L870.974 711.141L871.303 711.021V710.671V709.238V708.738H870.803H839.845H839.345V709.238V710.671V711.038L839.695 711.148L847.945 713.761V777.075L839.717 779.269L839.345 779.368V779.752V780.898V781.398H839.845H912.712L918.48 800.25Z" stroke="#A5A3A2"/>
<path d="M1414.73 303.118L1404.64 309.961L1393.19 293.071L1397.42 287.71L1397.65 287.422L1397.44 287.119L1396.8 286.173L1396.52 285.759L1396.11 286.039L1374.9 300.415L1374.49 300.695L1374.77 301.109L1375.41 302.056L1375.62 302.359L1375.97 302.254L1382.51 300.307L1410.78 341.999L1406.38 347.074L1406.13 347.364L1406.34 347.682L1406.86 348.439L1407.14 348.853L1407.55 348.572L1433.58 330.924C1439.13 327.162 1442.92 322.671 1444.61 318.032C1446.3 313.376 1445.85 308.596 1442.97 304.338C1440.08 300.08 1435.76 297.89 1430.79 297.72C1425.83 297.551 1420.24 299.386 1414.73 303.118ZM1443.71 256.328L1443.94 256.041L1443.73 255.738L1443.09 254.791L1442.81 254.378L1442.39 254.658L1421.19 269.033L1420.78 269.314L1421.06 269.728L1421.7 270.674L1421.9 270.977L1422.26 270.873L1428.8 268.925L1456.76 310.159L1452.52 315.521L1452.3 315.808L1452.5 316.111L1453.14 317.058L1453.43 317.471L1453.84 317.191L1475.04 302.816L1475.46 302.535L1475.18 302.121L1474.53 301.175L1474.33 300.872L1473.98 300.976L1467.43 302.924L1439.48 261.69L1443.71 256.328ZM1413.58 307.734C1416.9 305.481 1420.26 304.681 1423.39 305.32C1426.52 305.96 1429.5 308.058 1432.01 311.766C1434.52 315.474 1435.37 319.016 1434.81 322.159C1434.24 325.302 1432.25 328.129 1428.93 330.382L1421.77 335.235L1406.42 312.587L1413.58 307.734Z" stroke="#A5A3A2"/>
<path d="M1165.1 930.495L1165.1 930.474V930.452V893.406V893.199L1164.96 893.052L1162.5 890.594L1162.33 890.425L1162.09 890.45L1135.76 893.26L1135.31 893.307V893.757V895.688V896.091L1135.7 896.177L1145.84 898.374V932.88C1140.75 930.93 1135.65 929.952 1130.54 929.952C1117.78 929.952 1107.67 934.165 1100.75 942.219C1093.85 950.262 1090.19 962.07 1090.19 977.156C1090.19 990.207 1092.92 1000.95 1098.54 1008.44C1104.17 1015.96 1112.67 1020.14 1124.05 1020.14C1133.4 1020.14 1140.78 1018.11 1146.3 1013.82L1146.35 1013.86L1145.85 1018.89L1145.84 1018.92V1018.94V1048.25L1135.66 1051.47L1135.31 1051.58V1051.95V1053.71V1054.21H1135.81H1175.14H1175.64V1053.71V1051.95V1051.58L1175.29 1051.47L1165.1 1048.25V1016.51C1170.36 1018.46 1175.46 1019.44 1180.58 1019.44C1193.25 1019.44 1203.28 1015.27 1210.13 1007.26C1216.97 999.263 1220.59 987.499 1220.59 972.415C1220.59 959.365 1217.9 948.621 1212.32 941.127C1206.73 933.611 1198.28 929.426 1186.9 929.426C1177.7 929.426 1170.32 931.809 1164.63 936.448L1164.59 936.408L1165.1 930.495ZM1132.3 1014.58C1125.4 1014.58 1119.85 1010.85 1115.99 1004.01C1112.12 997.16 1109.97 987.204 1109.97 974.873C1109.97 961.483 1112.16 951.183 1116.25 944.247C1120.31 937.342 1126.26 933.761 1133.88 933.761C1137.74 933.761 1141.61 934.744 1145.84 936.574V1009.58C1141.94 1012.92 1137.54 1014.58 1132.3 1014.58ZM1178.82 935.517C1185.64 935.517 1191.1 939.078 1194.89 945.733C1198.7 952.411 1200.8 962.189 1200.8 974.522C1200.8 988.09 1198.65 998.39 1194.61 1005.28C1190.59 1012.14 1184.69 1015.63 1177.07 1015.63C1173.55 1015.63 1169.51 1014.65 1165.1 1012.82V940.514C1169.01 937.182 1173.58 935.517 1178.82 935.517Z" stroke="#A5A3A2"/>
<path d="M955.511 832.679H955.011V833.179V855.832V856.332H955.511H958.836H959.191L959.308 855.996L965.634 837.836H990.133V931.718L978.035 934.944L977.664 935.043V935.428V937.09V937.59H978.164H1035.31C1047.44 937.59 1057.58 934.716 1064.7 929.519C1071.84 924.311 1075.92 916.786 1075.92 907.579C1075.92 898.372 1071.79 890.796 1064.63 885.537C1057.48 880.288 1047.34 877.361 1035.31 877.361H1012.75V839.572L1024.87 835.734L1025.22 835.624V835.258V833.179V832.679H1024.72H955.511ZM1028.66 882.31C1036.15 882.31 1042.19 884.563 1046.36 888.81C1050.53 893.058 1052.89 899.362 1052.89 907.579C1052.89 915.797 1050.53 922.101 1046.36 926.349C1042.19 930.596 1036.15 932.849 1028.66 932.849H1012.75V882.31H1028.66Z" stroke="#A5A3A2"/>
<path d="M925.296 501.31L925.64 501.372L925.816 501.07L927.312 498.508L927.564 498.077L927.133 497.825L871.798 465.512L871.366 465.26L871.114 465.692L869.618 468.254L869.433 468.57L869.679 468.841L881.962 482.413L863.896 513.351C856.671 525.722 854.193 537.663 856.8 548.428C859.409 559.198 867.085 568.696 879.977 576.225C897.388 586.392 914.852 590.285 931.973 587.968L899.469 643.631L881.613 639.603L881.256 639.522L881.071 639.839L879.575 642.4L879.323 642.832L879.755 643.084L937.139 676.593L937.571 676.846L937.823 676.414L939.319 673.852L939.504 673.536L939.258 673.264L926.975 659.693L992.727 547.093L1010.58 551.121L1010.94 551.201L1011.12 550.885L1012.62 548.323L1012.87 547.892L1012.44 547.639L957.106 515.327L956.674 515.075L956.422 515.507L954.926 518.069L954.75 518.37L954.973 518.64L965.229 531.017L935.603 581.751C922.758 584.003 909.951 581.576 897.309 574.194C889.36 569.552 885.107 563.19 884.477 555.141C883.843 547.053 886.861 537.189 893.646 525.57L909.476 498.461L925.296 501.31Z" stroke="#A5A3A2"/>
<path d="M1238.07 637.436L1247.5 651.723L1223.58 667.509L1216.1 661.452L1215.82 661.221L1215.51 661.423L1214.19 662.297L1213.77 662.573L1214.04 662.99L1233.63 692.664L1233.9 693.082L1234.32 692.806L1235.65 691.932L1235.95 691.73L1235.85 691.378L1233.22 682.121L1291.81 643.451L1298.89 649.746L1299.18 650.001L1299.5 649.789L1300.56 649.09L1300.98 648.814L1300.7 648.397L1276.66 611.967C1271.55 604.223 1265.41 598.915 1259.05 596.517C1252.67 594.112 1246.09 594.644 1240.19 598.54C1234.29 602.437 1231.2 608.331 1230.88 615.175C1230.57 622.004 1233 629.756 1238.07 637.436ZM1244.13 639.33C1241.04 634.647 1239.97 629.913 1240.92 625.521C1241.88 621.128 1244.88 616.995 1250.1 613.549C1255.32 610.104 1260.3 608.97 1264.71 609.819C1269.13 610.667 1273.06 613.514 1276.15 618.198L1282.87 628.379L1250.85 649.511L1244.13 639.33Z" stroke="#A5A3A2"/>
<path d="M1583.71 868.919L1583.43 869.148L1583.56 869.491L1585.06 873.354L1585.24 873.82L1585.7 873.64L1673.01 839.823L1673.47 839.642L1673.29 839.176L1671.8 835.313L1671.67 834.977L1671.31 834.994L1646.6 836.176L1542.76 770.234L1571.49 669.826L1593.63 652.861L1593.93 652.633L1593.79 652.284L1592.3 648.421L1592.11 647.954L1591.65 648.135L1526.36 673.423L1525.9 673.603L1526.08 674.07L1527.57 677.933L1527.72 678.301L1528.11 678.247L1561.09 673.721L1534.47 765.441L1454.87 714.821L1474.66 698.941L1474.94 698.712L1474.81 698.37L1473.32 694.507L1473.13 694.041L1472.67 694.222L1385.75 727.889L1385.29 728.069L1385.47 728.535L1386.96 732.398L1387.09 732.735L1387.45 732.717L1412.15 731.536L1509.95 794.485L1479.54 900.877L1457.02 917.991L1456.72 918.219L1456.85 918.57L1458.35 922.433L1458.53 922.899L1459 922.719L1524.28 897.431L1524.75 897.25L1524.57 896.784L1523.07 892.921L1522.93 892.553L1522.54 892.606L1489.55 897.132L1518.24 799.275L1603.88 852.892L1583.71 868.919Z" stroke="#A5A3A2"/>
<path d="M904.284 931.899L903.792 931.808L903.701 932.299L890.108 1005.68L890.017 1006.18L890.509 1006.27L893.906 1006.9L894.25 1006.96L894.428 1006.66L903.977 990.489L976.867 1003.99L970.88 1036.31C944.775 1031.92 922.691 1035.59 904.614 1047.72L904.609 1047.72C886.369 1060.26 874.838 1078.64 870.348 1102.88C865.796 1127.45 869.977 1148.75 882.925 1166.72C895.813 1185.03 915.621 1196.46 941.878 1201.32C968.14 1206.19 990.385 1202.54 1009.31 1190.13C1028.24 1177.71 1039.77 1159.33 1044.26 1135.09C1048.63 1111.53 1044.72 1090.65 1032.8 1072.87C1020.95 1055.21 1002.8 1043.38 978.656 1037.76L984.645 1005.43L1053.46 1018.18L1056.58 1036.69L1056.64 1037.04L1056.98 1037.1L1060.38 1037.73L1060.87 1037.82L1060.96 1037.33L1074.56 963.947L1074.65 963.455L1074.16 963.364L1070.76 962.735L1070.4 962.668L1070.23 962.991L1060.17 981.857L910.721 954.175L908.086 932.958L908.041 932.595L907.681 932.528L904.284 931.899ZM1023.1 1097.17L1023.11 1097.17C1035.71 1108.22 1040.72 1120.25 1038.18 1133.96C1035.61 1147.86 1026.43 1157.78 1011.31 1163.03C996.171 1168.29 975.082 1168.86 948.794 1163.99C922.85 1159.18 903.479 1150.94 891.239 1140.52C879.017 1130.12 873.918 1117.55 876.428 1104C878.969 1090.29 887.963 1080.85 903.346 1074.99C918.724 1069.12 939.417 1068.74 965.54 1073.58C991.663 1078.42 1010.85 1086.18 1023.1 1097.17Z" stroke="#A5A3A2"/>
<path d="M1049.57 711.229L1011.57 703.574L1024.39 639.927L1046.16 637.57L1046.52 637.53L1046.6 637.171L1047.29 633.704L1047.39 633.214L1046.9 633.115L969.231 617.467L968.741 617.369L968.642 617.859L967.944 621.326L967.871 621.685L968.192 621.863L987.349 632.465L956.272 786.727L934.733 788.06L934.349 788.084L934.273 788.461L933.714 791.235L933.616 791.725L934.106 791.824L1029.46 811.034C1049.64 815.1 1067.54 813.726 1081.17 807.507C1094.82 801.28 1104.17 790.205 1107.24 774.956C1110.31 759.705 1105.91 745.769 1095.71 734.65C1085.53 723.543 1069.58 715.261 1049.57 711.229ZM1037.29 716.632C1049.68 719.127 1059.01 724.941 1064.56 733.518C1070.11 742.095 1071.93 753.507 1069.16 767.284C1066.38 781.061 1060.29 790.877 1051.84 796.635C1043.4 802.393 1032.55 804.141 1020.17 801.646L992.918 796.157L1010.04 711.143L1037.29 716.632Z" stroke="#A5A3A2"/>
<path d="M1258.92 522.146L1258.57 522.5L1258.92 522.853C1264.95 528.874 1274.09 531.998 1286.27 531.998C1296.6 531.998 1303.3 529.487 1308.08 523.11L1308.08 523.11L1308.09 523.101C1312.51 516.919 1313.89 512.369 1316.85 502.64C1317.05 501.989 1317.26 501.315 1317.47 500.615L1317.47 500.606L1317.48 500.597L1321.82 484.16C1321.82 484.159 1321.82 484.157 1321.82 484.156C1324.44 474.912 1328.35 468.279 1334.2 463.947C1340.06 459.612 1347.93 457.529 1358.57 457.529H1373.58V520.582L1355.32 526.367L1354.97 526.477V526.844V529.947V530.447H1355.47H1424.97H1425.47V529.947V526.844V526.477L1425.12 526.367L1406.85 520.582V382.64L1425.09 378.08L1425.47 377.986V377.595V374.803V374.303H1424.97H1337.16C1319.25 374.303 1304.25 378.194 1293.71 385.208C1283.16 392.232 1277.09 402.386 1277.09 414.83C1277.09 426.006 1281.89 435.3 1290.46 442.138C1298.41 448.484 1309.58 452.704 1323.13 454.394C1315.28 456.25 1308.7 459.405 1303.4 463.901C1297.43 468.973 1293.11 475.728 1290.45 484.184L1290.45 484.184L1290.45 484.192L1286.1 498.775L1286.1 498.775L1286.1 498.784C1283.46 508.262 1281.46 514.398 1279.17 518.168C1278.04 520.042 1276.85 521.299 1275.51 522.093C1274.17 522.886 1272.63 523.241 1270.76 523.241C1267.79 523.241 1264.79 522.054 1261.74 519.918L1261.39 519.677L1261.1 519.974L1258.92 522.146ZM1348.33 450.633C1336.78 450.633 1327.45 447.478 1321.01 441.573C1314.58 435.673 1310.98 426.975 1310.98 415.761C1310.98 404.547 1314.58 395.927 1321.01 390.106C1327.45 384.278 1336.78 381.198 1348.33 381.198H1373.58V450.633H1348.33Z" stroke="#A5A3A2"/>
<path d="M541.135 1128.4L541.115 1128.75L541.443 1128.89L543.853 1129.88L544.315 1130.07L544.506 1129.61L550.878 1114.16L551.068 1113.7L550.606 1113.51L483.555 1085.86L483.093 1085.67L482.903 1086.13L476.531 1101.58L476.34 1102.04L476.803 1102.23L479.071 1103.17L479.399 1103.3L479.635 1103.04L488.996 1092.5L507.626 1100.18L481.593 1163.31L472.342 1162.53L471.977 1162.5L471.838 1162.84L471.253 1164.25L471.062 1164.72L471.525 1164.91L503.278 1178L503.74 1178.19L503.931 1177.73L504.515 1176.31L504.655 1175.97L504.374 1175.74L497.26 1169.77L523.293 1106.64L541.923 1114.32L541.135 1128.4Z" stroke="#A5A3A2"/>
<path d="M1432.69 425.256L1432.33 425.302L1432.26 425.666L1431.08 432.435L1431 432.927L1431.49 433.013L1478.87 441.262L1479.36 441.348L1479.45 440.855L1482.9 421.043L1620.79 445.053L1623.38 464.167L1623.43 464.53L1623.79 464.593L1626.86 465.128L1627.35 465.214L1627.44 464.722L1638.96 398.577L1639.04 398.084L1638.55 397.999L1635.47 397.463L1635.13 397.403L1634.96 397.703L1626.55 412.076L1488.64 388.062L1499.02 328.441L1636.94 352.454L1639.99 368.82L1640.05 369.162L1640.39 369.221L1643.47 369.757L1643.96 369.843L1644.05 369.35L1655.03 306.282L1655.11 305.79L1654.62 305.704L1651.54 305.168L1651.2 305.109L1651.03 305.406L1642.68 319.474L1504.76 295.46L1515.14 235.838L1653.06 259.852L1656.11 276.218L1656.17 276.559L1656.52 276.619L1659.59 277.155L1660.08 277.241L1660.17 276.748L1671.69 210.603L1671.77 210.111L1671.28 210.025L1668.2 209.489L1667.84 209.427L1667.67 209.751L1658.78 226.868L1522 203.052L1520.33 184.119L1520.3 183.736L1519.92 183.67L1517.46 183.242L1516.96 183.156L1516.88 183.648L1475.75 419.866L1432.69 425.256Z" stroke="#A5A3A2"/>
<path d="M326.747 1198.33L326.416 1197.98L326.056 1198.29L324.073 1200.03L323.68 1200.38L324.041 1200.75C330.273 1207.28 333.282 1215.15 333.071 1224.41C332.846 1234.23 329.172 1241.52 322.566 1246.3C315.937 1251.1 306.291 1253.42 294.047 1253.14C283.018 1252.89 274.113 1250.43 268.023 1246.21C261.952 1242.01 258.662 1236.05 258.829 1228.71C258.932 1224.21 260.403 1219.87 263.123 1215.54L276.761 1215.85C280.103 1215.93 282.928 1214.95 284.94 1213.13C286.955 1211.31 288.113 1208.69 288.184 1205.57C288.255 1202.47 287.351 1199.81 285.521 1197.89C283.691 1195.97 280.987 1194.87 277.566 1194.79C270.867 1194.64 265.62 1198.06 261.674 1204.89C257.748 1211.68 255.607 1219.65 255.394 1228.95C255.091 1242.24 258.81 1252.75 265.908 1260.02C273.005 1267.28 283.419 1271.23 296.38 1271.52C309.017 1271.81 319.475 1268.46 326.854 1261.63C334.235 1254.8 338.469 1244.55 338.775 1231.18C339.077 1217.95 335.072 1207.04 326.747 1198.33Z" stroke="#A5A3A2"/>
<path d="M316.287 1030.9L277.426 1058.91L277.02 1059.2L277.312 1059.6L279.971 1063.29L280.263 1063.7L280.669 1063.4L319.539 1035.39C329.068 1048.9 334.208 1061.45 334.816 1072.19C335.429 1083 331.448 1091.98 322.65 1098.32C317.817 1101.81 311.588 1104.15 304.064 1105.51L296.405 1094.88C293.692 1091.11 290.408 1088.84 287.004 1088.08C283.593 1087.31 280.115 1088.07 277.058 1090.27C274.101 1092.41 272.307 1095.3 271.819 1098.44C271.331 1101.58 272.153 1104.93 274.348 1107.98C278.876 1114.26 286.186 1116.74 296.035 1115.04C305.844 1113.34 315.593 1108.85 325.045 1102.03C340.612 1090.81 349.505 1077.64 351.865 1063.61C354.225 1049.58 350.035 1034.77 339.61 1020.31C329.183 1005.84 316.202 997.021 301.795 994.724C287.387 992.427 271.637 996.666 255.698 1008.15C246.342 1014.9 239.365 1022.68 234.787 1031.52L228.663 1031.14L228.211 1031.11L228.139 1031.56L227.624 1034.73L227.59 1034.94L227.712 1035.11L244.061 1057.79L244.353 1058.2L244.759 1057.9L248.631 1055.11L248.981 1054.86L248.783 1054.48C243.866 1044.96 242.847 1036.62 245.242 1029.7L245.242 1029.7L245.246 1029.69C247.535 1022.51 251.674 1016.77 257.671 1012.45C266.674 1005.96 276.579 1004.41 286.629 1007.58C296.593 1010.73 306.742 1018.54 316.287 1030.9Z" stroke="#A5A3A2"/>
<path d="M1575.68 88.3915L1575.69 88.377L1575.71 88.3612L1602.94 58.4222L1603.08 58.2691L1603.07 58.0622L1602.9 54.2683L1602.88 54.0296L1602.69 53.8885L1579.34 36.7939L1578.98 36.5284L1578.68 36.8609L1577.26 38.4217L1576.99 38.72L1577.22 39.0484L1583.82 48.3105L1558.38 76.2737C1555.69 70.9311 1552.28 66.3745 1548.14 62.6097C1537.84 53.2365 1526.58 49.2106 1515.09 50.6321C1503.61 52.0517 1491.98 58.8942 1480.89 71.0806C1471.3 81.6242 1465.61 92.3071 1464.64 102.481C1463.67 112.683 1467.46 122.299 1476.64 130.653C1484.21 137.537 1491.67 141.317 1499.29 141.898L1499.3 142.029L1495.18 145.74L1495.16 145.756L1495.14 145.775L1473.57 169.484L1462.94 164.587L1462.61 164.434L1462.36 164.704L1461.07 166.123L1460.73 166.493L1461.1 166.83L1492.89 195.748L1493.25 196.084L1493.59 195.714L1494.88 194.295L1495.13 194.025L1494.94 193.708L1489.07 183.583L1512.48 157.856C1515.29 163.32 1518.7 167.884 1522.85 171.655C1533.08 180.964 1544.23 184.961 1555.64 183.526C1567.04 182.093 1578.6 175.254 1589.69 163.068C1599.28 152.526 1605 141.876 1606 131.734C1607.01 121.564 1603.26 111.979 1594.08 103.625C1586.63 96.8505 1578.91 93.3547 1570.91 92.9374L1570.9 92.8124L1575.68 88.3915ZM1487.34 132.292C1481.75 127.21 1480 120.091 1481.91 111.716C1483.83 103.32 1489.42 93.6908 1498.49 83.7226C1508.34 72.8986 1517.69 66.1781 1526.1 63.5724C1534.48 60.977 1541.93 62.4563 1548.1 68.0725C1551.23 70.9203 1553.65 74.5798 1555.73 79.1864L1502.01 138.227C1496.38 138.054 1491.59 136.16 1487.34 132.292ZM1583.14 102.541C1588.65 107.562 1590.46 114.478 1588.62 122.657C1586.79 130.86 1581.29 140.315 1572.22 150.284C1562.24 161.252 1552.92 168.004 1544.58 170.606C1536.28 173.196 1528.92 171.682 1522.75 166.064C1519.89 163.468 1517.34 159.687 1515.12 154.946L1568.32 96.4765C1573.95 96.6529 1578.88 98.6702 1583.14 102.541Z" stroke="#A5A3A2"/>
<path d="M1279.98 474.893L1280.18 474.588L1279.95 474.301L1274.16 467.041L1273.85 466.65L1273.46 466.962L1222.63 507.527L1222.24 507.839L1222.55 508.23L1239.89 529.951L1090.1 649.51L1069.65 633.897L1069.34 633.66L1069.04 633.904L1066.06 636.274L1065.67 636.586L1065.99 636.977L1179.52 779.217L1179.83 779.608L1180.22 779.296L1183.19 776.925L1183.49 776.682L1183.33 776.327L1172.66 752.977L1291 680.604L1291.01 680.601C1303.91 672.455 1315.83 666.989 1325.7 664.404C1335.57 661.822 1343.29 662.146 1347.98 665.378L1364 685.452L1364.32 685.843L1364.71 685.531L1415.53 644.966L1415.92 644.654L1415.61 644.263L1409.82 637.003L1409.58 636.714L1409.24 636.85L1354.56 658.48L1247.02 523.746L1279.98 474.893ZM1165.81 746.905L1116.88 685.6L1267.91 565.055L1338.94 654.051C1332.62 653.072 1325.05 654.087 1316.26 657.048C1306.84 660.219 1295.98 665.635 1283.69 673.283L1283.69 673.283L1165.81 746.905Z" stroke="#A5A3A2"/>
<path d="M1053.26 417.922C1050.2 428.431 1051.2 437.809 1056.1 445.901L1053.14 444.267C1040.26 437.151 1029.98 433.896 1020.94 434.603C1011.87 435.311 1004.15 439.992 996.354 448.517L996.354 448.517L996.345 448.527L986.525 459.882C986.525 459.882 986.525 459.882 986.524 459.882C980.819 466.415 976.545 470.673 972.983 472.898C971.209 474.006 969.64 474.592 968.18 474.719C966.729 474.844 965.349 474.52 963.94 473.742C961.839 472.582 959.971 470.327 958.478 467.28L958.294 466.903L957.891 467.019L955.204 467.795L954.736 467.929L954.859 468.4C956.763 475.74 962.698 482.266 972.407 487.627C980.03 491.837 986.189 492.705 992.211 490.459C998.181 488.232 1003.93 482.971 1010.83 475.161C1010.83 475.161 1010.83 475.161 1010.83 475.16L1022.62 461.992C1022.62 461.992 1022.62 461.991 1022.62 461.991C1028.82 455.126 1034.28 451.024 1040.18 449.726C1046.07 448.431 1052.52 449.904 1060.75 454.451L1072.18 460.764L1042.56 514.407L1025.49 510.984L1025.13 510.912L1024.95 511.233L1023.59 513.705L1023.34 514.143L1023.78 514.385L1078.18 544.427L1078.62 544.668L1078.86 544.231L1080.23 541.758L1080.4 541.444L1080.16 541.179L1069.15 529.099L1098.78 475.449L1110.21 481.762C1118.44 486.308 1123.06 490.944 1125.07 496.602C1127.09 502.274 1126.52 509.077 1124.14 518.054L1119.02 534.905L1119.02 534.905L1119.02 534.915C1116.21 544.978 1114.88 552.68 1116.18 558.916C1117.48 565.206 1121.43 569.924 1128.93 574.067C1138.64 579.428 1147.33 580.976 1154.55 578.678L1155.02 578.53L1154.88 578.063L1154.11 575.376L1153.99 574.952L1153.55 575.021C1150.44 575.511 1147.79 575.271 1145.2 573.837C1143.79 573.059 1142.79 572.073 1142.15 570.794C1141.51 569.506 1141.19 567.885 1141.22 565.81C1141.26 561.641 1142.65 555.789 1145.15 547.476L1145.15 547.469L1149.28 532.979C1149.28 532.978 1149.28 532.977 1149.28 532.976C1152.59 521.97 1152.44 512.937 1148.18 504.869C1143.93 496.825 1135.64 489.825 1122.88 482.776L1119.67 481.006C1129.13 480.841 1137.6 476.695 1144.87 468.509L1155.07 457.044C1159.69 451.883 1163.88 448.479 1167.63 446.765C1171.35 445.058 1174.6 445.037 1177.39 446.581C1178.39 447.132 1179.1 447.745 1179.48 448.187L1173.77 458.532C1171.47 462.706 1170.85 466.959 1171.96 470.803C1173.07 474.648 1175.88 478.017 1180.31 480.458C1184.35 482.695 1188.4 483.272 1192.1 482.069C1195.79 480.868 1199.06 477.919 1201.63 473.268C1205.18 466.838 1205.35 460.71 1203.08 455.347C1200.82 450.004 1196.16 445.477 1190.16 442.163C1183.26 438.351 1176.3 437.381 1169.38 439.324C1162.48 441.263 1155.66 446.086 1148.99 453.759C1148.99 453.76 1148.99 453.761 1148.99 453.762L1138.93 464.968C1138.93 464.969 1138.93 464.97 1138.93 464.972C1133.5 470.75 1127.62 474.069 1121.32 474.971C1115.14 475.855 1108.51 474.426 1101.45 470.615L1129.16 420.436L1146.23 423.859L1146.59 423.931L1146.76 423.61L1148.13 421.137L1148.37 420.7L1147.93 420.458L1092.54 389.87L1092.1 389.628L1091.86 390.066L1090.5 392.538L1090.32 392.859L1090.57 393.124L1102.56 405.75L1074.85 455.93C1067.87 451.983 1063.12 447.129 1060.58 441.431C1057.99 435.618 1057.66 428.868 1059.66 421.198L1063.79 406.713C1063.79 406.712 1063.79 406.711 1063.79 406.709C1066.73 396.976 1067.19 388.64 1065.15 381.765C1063.11 374.873 1058.58 369.503 1051.68 365.692C1045.68 362.378 1039.31 360.816 1033.52 361.713C1027.72 362.613 1022.55 365.983 1019 372.417C1016.37 377.177 1015.48 381.449 1016.42 385.179C1017.37 388.916 1020.11 391.997 1024.52 394.429C1028.7 396.737 1032.99 397.284 1036.83 396.177C1040.66 395.069 1044 392.323 1046.31 388.143L1052.01 377.827C1052.75 377.97 1053.49 378.159 1054.49 378.714C1057.29 380.257 1059 383.013 1059.54 387.077C1060.08 391.159 1059.44 396.524 1057.53 403.18L1053.26 417.922Z" stroke="#A5A3A2"/>
<path d="M46.8168 1183.63L46.6793 1183.67L46.5825 1183.77C43.5538 1187.06 40.5179 1191.22 37.6404 1196.76C27.0422 1217.2 25.5053 1237.98 33.4172 1258.36C41.3235 1278.74 56.6209 1295.01 79.0972 1306.67C104.343 1319.76 129.773 1322.41 154.492 1314.57C179.225 1306.73 198.491 1289.04 212.647 1261.74C225.91 1236.17 229.314 1210.57 222.099 1187.58C214.884 1164.59 197.072 1144.29 168.054 1129.24C139.712 1114.54 111.858 1111.5 84.5213 1120.17L84.065 1120.31L84.1897 1120.77L85.8347 1126.87L85.9707 1127.38L86.4685 1127.22C106.732 1120.79 127.042 1122.64 147.249 1133.12C169.191 1144.5 182.159 1160.03 186.502 1178.79C190.823 1197.45 186.629 1219.41 174.069 1243.79L54.3235 1181.69L54.1492 1181.6L53.96 1181.65L46.8168 1183.63ZM80.8591 1299.9C68.1188 1293.29 61.2628 1281.99 60.6122 1266.47C59.964 1250.99 65.4806 1231.31 77.5458 1207.94L170.902 1249.87C157.356 1274.15 141.579 1290.12 125.86 1298.29C110.049 1306.52 94.2973 1306.87 80.8591 1299.9Z" stroke="#A5A3A2"/>
<path d="M402.333 870.05C400.156 887.031 407.653 897.918 425.731 902.513C443.005 906.903 455.976 906.351 465.045 900.957L462.947 897.43C459.421 899.528 454.593 900.012 448.567 898.48C442.14 896.847 439.743 892.816 441.478 885.986L472.619 763.459C481.706 727.706 457.206 694.535 405.383 681.364C384.091 675.952 364.087 675.573 346.071 680.83C328.157 685.686 317.462 695.798 313.684 710.662C309.6 726.732 317.295 738.524 331.355 742.097C345.817 745.773 358.515 737.881 362.599 721.811L370.869 689.271C381.641 685.594 392.099 684.83 402.946 687.587C429.058 694.224 440.029 716.685 432.779 745.208L423.182 782.97L422.379 782.766L421.977 782.664L421.473 782.964L421.071 782.862L420.669 782.76L420.268 782.657L419.866 782.555L419.464 782.453L418.96 782.753L418.559 782.651L418.157 782.549L417.755 782.447L417.354 782.344L416.952 782.242L416.448 782.542C370.018 778.44 338.956 777.816 323.364 780.268C299.725 784.097 285.4 796.708 280.09 817.598C272.739 846.522 285.923 868.69 322.48 877.982C350.601 885.129 377.053 882.015 401.434 868.539L402.333 870.05ZM403.783 859.299C385.441 870.889 366.628 874.233 347.747 869.435C326.857 864.125 317.773 847.703 324.001 823.198C329.004 803.513 339.305 791.59 354.4 787.728C364.463 785.154 385.774 785.438 417.933 788.479L418.335 788.581L418.736 788.683L419.138 788.785L419.54 788.888L419.941 788.99L420.445 788.69L420.847 788.792L421.249 788.894L421.65 788.996L403.783 859.299Z" fill="black"/>
<path d="M169.961 1063.19C72.3453 914.262 266.937 921.75 250.884 806.298L240.991 804.163C235.498 835.145 165.735 863.863 134.398 922.6C119.316 951.882 111.522 985.119 127.584 1034C135.897 1057.92 149.547 1083.92 168.968 1111.71C236.636 1208.54 306.359 1231.56 378.44 1181.19C411.875 1157.82 431.818 1129.02 437.702 1095.82C444.022 1062.33 435.195 1028.42 411.83 994.99C388.161 961.12 359.36 941.178 325.124 934.728C291.322 927.975 258.29 936.194 226.157 958.649C187.511 985.656 167.386 1026.22 171.698 1061.98L169.961 1063.19ZM365.195 1026.29C411.623 1092.72 413.837 1146.75 376.059 1173.15C338.282 1199.55 287.869 1179.2 241.442 1112.77C195.015 1046.33 192.932 991.563 230.709 965.163C268.486 938.763 318.161 958.982 365.195 1026.29Z" fill="black"/>
<path d="M480.427 989.095C489.972 981.353 495.3 972.53 496.589 962.484C497.789 952.51 494.838 943.144 487.665 934.3C480.562 925.543 472.007 920.724 461.999 919.84C451.833 918.94 442.1 922.334 432.556 930.076C423.099 937.747 417.77 946.569 416.553 956.703C415.265 966.748 418.216 976.114 425.318 984.87C432.492 993.715 441.047 998.534 451.142 999.347C461.238 1000.16 470.97 996.765 480.427 989.095ZM472.489 979.129C453.224 994.754 436.22 995.626 426.632 983.805C417.043 971.984 421.476 955.613 440.74 939.987C459.917 924.432 476.763 923.544 486.351 935.365C495.94 947.187 491.665 963.574 472.489 979.129Z" fill="black"/>
<path d="M451.52 1189.6C445.029 1211.6 436.975 1224.31 430.741 1223.2C430.117 1223.09 429.238 1222.61 428.046 1222.08L429.934 1211.48C432.155 1199.01 426.006 1190.2 414.784 1188.2C403.874 1186.26 395.116 1192.09 392.951 1204.25C390.064 1220.46 402.135 1230.33 416.786 1232.94C436.424 1236.43 450.533 1222.22 459.791 1190.1L506.561 1028.63L589.477 1043.4L553.334 1246.32L532.018 1248.64L531.462 1251.75L605.339 1264.91L605.894 1261.8L586.687 1252.26L622.609 1050.58L643.703 1049.52L644.203 1046.71L479.618 1017.4L479.118 1020.2L498.547 1028.49L451.52 1189.6Z" fill="black"/>
<path d="M630.614 1066.88L644.636 1068.52L657.839 1170.85L644.722 1176.23L644.956 1178.04L712.425 1169.34C738.688 1165.95 754.435 1152.41 752.069 1134.07C750.111 1118.9 736.286 1109.87 715.786 1109.75C731.933 1104.67 741.063 1093.37 739.223 1079.1C737.003 1061.9 720.461 1053.21 697.82 1056.13L630.351 1064.84L630.614 1066.88ZM697.936 1114.12C714.237 1112.02 725.594 1119.76 727.785 1136.74C729.975 1153.72 720.956 1164.09 704.654 1166.2L681.561 1169.18L674.842 1117.1L697.936 1114.12ZM668.036 1064.35L691.13 1061.37C704.035 1059.7 713.296 1067.26 715.311 1082.88C717.327 1098.5 710.286 1108.16 697.381 1109.82L674.287 1112.8L668.036 1064.35Z" fill="black"/>
<path d="M689.507 814.41C688.313 829.208 697.83 839.906 712.628 841.1C726.978 842.258 737.118 834.049 738.457 817.458C740.303 794.588 723.647 782.863 700.777 781.018C674.769 778.919 657.359 793.311 648.1 824.158L641.286 847.078C634.059 869.513 614.068 882.342 585.817 880.063L593.271 787.688L620.864 781.339L621.226 776.855L520.78 768.75L520.418 773.234L546.636 783.925L530.642 982.126L503.049 988.475L502.687 992.959L601.788 1000.96L602.15 996.472L577.277 985.89L585.238 887.237L608.108 889.083C639.049 891.58 650.215 904.216 655.074 933.493L659.144 961.354C665.059 994.327 672.457 1008.92 700.708 1011.2C718.196 1012.61 732.01 1009.21 741.218 1001.38L737.884 997.947C733.146 1000.72 728.517 1002.16 724.033 1001.79C712.823 1000.89 709.171 990.214 704.616 962.766L701.116 939.014C695.455 902.901 675.913 887.784 627.036 883.84L618.964 883.189C634.753 877.693 645.632 865.933 651.151 847.874L658.45 824.542C665.155 802.967 674.58 792.444 686.239 793.385C688.033 793.53 689.79 794.123 691.063 795.128L689.507 814.41Z" fill="black"/>
<path d="M229.365 777.399C230.866 775.911 232.391 774.011 233.873 771.443C239.34 761.975 240.51 752.166 237.198 742.338C233.886 732.509 226.981 724.457 216.55 718.435C204.836 711.671 192.823 709.871 180.926 713.059C169.03 716.246 159.502 724.225 152.183 736.903C138.471 760.653 143.556 785.199 170.515 800.764C183.674 808.361 196.834 810.396 209.997 806.869L209.343 803.925C199.472 806.57 189.755 805.239 180.287 799.773C159.747 787.914 156.66 768.801 169.909 745.853L225.914 778.188L229.365 777.399ZM215.802 721.212C227.838 728.161 228.067 743.699 215.374 765.684L171.299 743.446C185.375 720.548 203.125 713.893 215.802 721.212ZM197.646 684.84C194.218 690.778 196.049 697.612 201.987 701.04C207.924 704.468 214.759 702.637 218.187 696.699C221.522 690.922 219.783 683.928 213.846 680.5C207.909 677.072 200.982 679.063 197.646 684.84ZM233.592 705.594C230.164 711.531 232.156 718.458 237.933 721.794C243.87 725.222 250.865 723.483 254.293 717.545C257.628 711.768 255.729 704.681 249.792 701.253C244.015 697.918 236.927 699.817 233.592 705.594Z" fill="black"/>
<path d="M819.395 1213.08L821.08 1215.57L838.058 1204.09L795.094 1140.54L793.692 1141.49L797.674 1152.41L728.047 1199.48L718.769 1192.14L717.212 1193.19L743.959 1232.76L745.517 1231.7L738.999 1215.68L809.249 1168.19L829.889 1198.72L819.395 1213.08Z" fill="black"/>
<path d="M640.576 718.989L711.809 748.942L713.19 745.659L698.414 732.106L700.899 726.197L830.825 641.374L831.395 642.773L819.782 667.635L778.511 765.786L758.49 764.707L757.11 767.99L828.343 797.943L829.723 794.66L812.65 780.141L873.66 635.048L895.978 637.093L897.359 633.811L826.126 603.858L824.745 607.14L839.521 620.693L837.036 626.602L707.11 711.426L706.54 710.027L718.153 685.164L759.424 587.013L779.445 588.092L780.825 584.81L709.592 554.857L708.211 558.139L725.285 572.658L664.275 717.751L641.956 715.706L640.576 718.989Z" fill="black"/>
<path d="M1549.92 544.958C1540.35 542.783 1531.32 536.17 1526.35 527.708L1534.98 515.922C1546.65 502.445 1523.29 486.556 1515.27 499.99C1506.41 512.509 1520.13 532.504 1534.11 541.833C1542.17 547.727 1550.58 551.475 1559.56 553.219C1568.74 555.107 1575.38 553.033 1579.55 547.337C1583.72 541.64 1582.95 534.444 1576.87 529.987C1570.58 525.387 1563.29 526.69 1558.55 533.172L1549.92 544.958ZM1397.58 610.527L1440.2 641.721L1441.64 639.757L1433.96 628.406L1436.55 624.87L1536.37 589.032L1536.53 590.053L1524.87 604.747L1481.89 663.481L1468.75 659.594L1467.31 661.559L1509.94 692.752L1511.37 690.788L1502.32 678.431L1565.86 591.607L1580.37 596.5L1581.81 594.536L1539.18 563.342L1537.75 565.306L1545.43 576.657L1542.84 580.193L1443.02 616.03L1442.86 615.01L1454.52 600.316L1497.5 541.582L1510.64 545.469L1512.08 543.504L1469.45 512.31L1468.01 514.275L1477.07 526.632L1413.53 613.456L1399.01 608.563L1397.58 610.527Z" fill="black"/>
<path d="M879.545 1016.08V1014.38H853.859L824.429 1080.72L795.171 1014.38H769.144V1016.08L779.35 1019.31L775.608 1094.84L765.401 1098.07V1099.43H788.877V1098.07L778.67 1094.84L782.242 1026.63L814.903 1099.43H819.837L851.817 1026.97L855.219 1094.5L845.013 1097.73V1099.43H883.117V1097.73L872.911 1094.5L869.339 1019.31L879.545 1016.08Z" fill="black"/>
<path d="M1140.98 864.73L1204.61 930.174L1207.64 927.228L1198.07 905.876L1263.82 841.953L1335.4 915.577L1269.66 979.501L1248.58 969.343L1245.55 972.288L1309.18 1037.73L1312.21 1034.79L1300.29 1011.01L1434.21 880.808L1457.64 893.39L1460.67 890.444L1397.04 825L1394.01 827.945L1403.57 849.297L1341.77 909.391L1270.18 835.767L1331.99 775.673L1353.07 785.831L1356.1 782.885L1292.47 717.441L1289.44 720.387L1301.36 744.163L1167.44 874.366L1144.01 861.784L1140.98 864.73Z" fill="black"/>
<path d="M1316.01 275.933L1314.47 277.958L1329.76 295.687L1300 334.768C1296.09 326.033 1289.58 318.195 1280.47 311.255C1249.49 287.656 1216.3 293.417 1190.24 327.638C1167.41 357.606 1166.32 387.177 1192.45 407.074C1205.61 417.099 1220.29 420.925 1236.3 418.397L1236.44 419.467L1227.35 430.141L1227.82 434.981L1260.87 455.031L1262.56 452.804L1252.42 440.917L1350.82 311.728L1365.9 317.135L1367.45 315.11L1316.01 275.933ZM1239.69 413.942C1227.71 416.653 1217.08 414.639 1207.97 407.698C1199.26 401.066 1195.62 391.57 1196.88 379.412C1198.14 367.254 1203.83 354.314 1214.17 340.747C1237.15 310.576 1261.75 301.799 1282 317.223C1288.28 322.004 1293.57 328.916 1297.68 337.805L1239.69 413.942Z" fill="black"/>
<path d="M492.67 718.477L529.246 728.277L529.7 726.584L521.757 721.007L542.22 644.639L583.367 655.664L562.905 732.033L553.237 732.891L552.783 734.584L589.359 744.385L589.813 742.691L580.515 736.752L600.797 661.06L611.637 661.242L612.045 659.718L515.357 633.811L514.948 635.335L524.428 640.597L504.146 716.289L493.124 716.784L492.67 718.477Z" fill="black"/>
<path d="M821.612 965.028C796.342 983.906 781.378 992.802 772.923 988.014C772.218 987.615 771.412 986.848 770.738 985.846L776.059 976.452C780.448 968.701 778.207 960.608 770.692 956.352C763.411 952.229 756.054 954.266 751.398 962.486C744.615 974.464 752.023 985.483 762.356 991.335C769.872 995.592 778.443 995.793 787.968 991.572C797.728 987.483 811.456 979.128 828.916 966.372L941.354 883.951L958.912 888.002L960.242 885.653L920.551 863.174L919.221 865.523L936.187 881.025L849.857 944.732L859.623 837.664L876.476 841.315L877.806 838.966L824.258 808.64L822.928 810.989L834.258 823.299L821.612 965.028Z" fill="black"/>
<path d="M1396.31 256.729L1358.33 260.457L1349.79 173.509L1359.27 168.881L1359.08 166.953L1317.63 171.022L1317.82 172.95L1329.74 175.477L1338.2 261.654L1326.94 265.874L1327.09 267.417L1486.33 251.785L1486.18 250.242L1474.31 248.293L1465.85 162.116L1477.06 157.318L1476.87 155.39L1435.42 159.459L1435.61 161.387L1445.8 164.085L1454.34 251.033L1416.36 254.761L1407.82 167.813L1417.3 163.185L1417.11 161.257L1377.59 165.136L1377.77 167.064L1387.77 169.781L1396.31 256.729Z" fill="black"/>
<path d="M930.53 823.461H933.683V801.39H924.224V736.752L932.823 734.029V732.596H901.723V734.029L909.319 736.752V801.39H874.922V736.752L882.374 734.029V732.596H851.417V734.029L860.016 736.752V800.817L851.417 803.11V804.256H924.654L930.53 823.461Z" fill="black"/>
<path d="M1444.87 353.868C1455.85 346.424 1459.71 336.212 1454.12 327.977C1448.54 319.741 1437.47 319.51 1426.58 326.89L1416.08 334.014L1404.14 316.407L1408.6 310.758L1407.96 309.811L1386.75 324.186L1387.4 325.133L1394.3 323.081L1422.98 365.394L1418.33 370.759L1418.84 371.516L1444.87 353.868ZM1424.87 330.678C1431.68 326.058 1438.86 327.271 1444 334.843C1449.13 342.416 1447.6 349.533 1440.78 354.154L1433.21 359.288L1417.3 335.812L1424.87 330.678ZM1454.89 279.376L1454.25 278.43L1433.04 292.805L1433.68 293.752L1440.58 291.7L1468.95 333.539L1464.49 339.188L1465.13 340.135L1486.33 325.76L1485.69 324.813L1478.79 326.865L1450.43 285.025L1454.89 279.376Z" fill="black"/>
<path d="M1175.65 959.955L1176.17 953.81V916.764L1173.72 914.306L1147.38 917.115V919.046L1157.91 921.329V956.971C1152.65 954.864 1147.38 953.81 1142.11 953.81C1116.83 953.81 1102.26 970.49 1102.26 1000.51C1102.26 1026.5 1113.14 1043 1135.62 1043C1145.1 1043 1152.47 1040.9 1157.91 1036.51L1158.44 1037.03L1157.91 1042.3V1071.97L1147.38 1075.31V1077.06H1186.71V1075.31L1176.17 1071.97V1039.14C1181.62 1041.25 1186.89 1042.3 1192.15 1042.3C1217.26 1042.3 1231.66 1025.8 1231.66 995.773C1231.66 969.788 1220.95 953.283 1198.47 953.283C1189.17 953.283 1181.79 955.742 1176.17 960.482L1175.65 959.955ZM1143.87 1038.44C1129.65 1038.44 1121.04 1022.99 1121.04 998.231C1121.04 971.368 1129.82 956.619 1145.45 956.619C1149.49 956.619 1153.53 957.673 1157.91 959.604V1033.17C1153.88 1036.68 1149.31 1038.44 1143.87 1038.44ZM1190.4 958.375C1204.44 958.375 1212.87 973.124 1212.87 997.88C1212.87 1025.09 1204.27 1039.49 1188.64 1039.49C1184.95 1039.49 1180.74 1038.44 1176.17 1036.51V963.642C1180.21 960.131 1184.95 958.375 1190.4 958.375Z" fill="black"/>
<path d="M967.083 856.537V879.19H970.408L976.85 860.694H1002.2V955.46L989.735 958.785V960.448H1046.89C1070.99 960.448 1087 949.018 1087 930.937C1087 912.857 1070.79 901.219 1046.89 901.219H1023.82V862.564L1036.29 858.616V856.537H967.083ZM1040.24 905.168C1055.41 905.168 1064.97 914.312 1064.97 930.937C1064.97 947.563 1055.41 956.707 1040.24 956.707H1023.82V905.168H1040.24Z" fill="black"/>
<path d="M936.956 524.176L938.452 521.614L883.117 489.302L881.621 491.864L894.15 505.707L875.899 536.961C861.538 561.554 866.183 584.192 891.801 599.151C909.478 609.473 927.178 613.282 944.498 610.685L911.288 667.557L893.075 663.449L891.579 666.01L948.963 699.52L950.459 696.958L937.931 683.115L1004.05 569.883L1022.26 573.991L1023.76 571.429L968.425 539.117L966.929 541.679L977.409 554.325L947.49 605.561C934.441 607.904 921.438 605.464 908.629 597.984C892.489 588.56 891.173 571.988 904.786 548.676L920.793 521.265L936.956 524.176Z" fill="black"/>
<path d="M1287.81 635.6C1277.67 620.233 1263.56 614.709 1252.04 622.315C1240.51 629.922 1240 645.284 1250.06 660.518L1259.76 675.223L1235.12 691.485L1227.36 685.198L1226.03 686.073L1245.62 715.747L1246.94 714.872L1244.21 705.263L1303.43 666.18L1310.8 672.73L1311.86 672.03L1287.81 635.6ZM1255.28 662.964C1248.99 653.426 1250.8 643.485 1261.39 636.49C1271.99 629.495 1281.84 631.742 1288.14 641.28L1295.13 651.878L1262.28 673.562L1255.28 662.964Z" fill="black"/>
<path d="M1595.6 892.668L1597.09 896.531L1684.4 862.715L1682.9 858.852L1658.04 860.041L1553.75 793.814L1582.63 692.888L1604.9 675.822L1603.4 671.959L1538.12 697.247L1539.61 701.11L1573.36 696.479L1546.34 789.578L1465.58 738.226L1485.92 721.909L1484.42 718.046L1397.5 751.713L1399 755.576L1423.86 754.386L1522.1 817.624L1491.54 924.532L1468.89 941.747L1470.39 945.61L1535.67 920.323L1534.18 916.46L1500.43 921.091L1529.52 821.859L1616.32 876.201L1595.6 892.668Z" fill="black"/>
<path d="M915.764 955.748L902.172 1029.13L905.569 1029.76L915.296 1013.29L989.021 1026.95L982.854 1060.24C956.631 1055.74 934.522 1059.37 916.464 1071.49C898.344 1083.95 886.88 1102.2 882.412 1126.33C877.881 1150.79 882.045 1171.94 894.904 1189.78C907.701 1207.97 927.381 1219.34 953.541 1224.19C979.701 1229.03 1001.81 1225.4 1020.61 1213.07C1039.41 1200.74 1050.87 1182.48 1055.34 1158.36C1059.68 1134.91 1055.8 1114.16 1043.96 1096.51C1032.12 1078.86 1013.92 1067.05 989.649 1061.5L995.816 1028.21L1065.46 1041.11L1068.65 1059.97L1072.04 1060.6L1085.64 987.213L1082.24 986.584L1072.01 1005.77L921.841 977.958L919.162 956.378L915.764 955.748ZM960.275 1187.84C908.293 1178.21 882.411 1154.79 887.508 1127.27C890.088 1113.34 899.237 1103.79 914.739 1097.88C930.242 1091.96 951.042 1091.6 977.203 1096.44C1003.36 1101.29 1022.65 1109.08 1035.01 1120.15C1047.71 1131.29 1052.83 1143.48 1050.25 1157.41C1045.02 1185.61 1012.94 1197.59 960.275 1187.84Z" fill="black"/>
<path d="M1041.13 833.902C1081.36 842.005 1112.25 828.382 1118.32 798.215C1124.4 768.047 1100.92 743.111 1061.04 735.077L1022.55 727.323L1035.55 662.828L1057.68 660.431L1058.38 656.963L980.704 641.315L980.006 644.783L999.483 655.563L968.258 810.561L946.335 811.917L945.776 814.691L1041.13 833.902ZM1048.97 739.5C1073.93 744.53 1086.81 763 1081.22 790.74C1075.63 818.48 1056.61 830.524 1031.64 825.495L1003.9 819.906L1021.23 733.912L1048.97 739.5Z" fill="black"/>
<path d="M1270.85 545.858C1276.75 551.753 1285.74 554.856 1297.85 554.856C1308.08 554.856 1314.6 552.374 1319.26 546.168C1323.91 539.652 1325.15 534.997 1328.56 523.827L1332.91 507.382C1338.18 488.765 1348.73 480.387 1370.14 480.387H1385.66V544.306L1367.04 550.202V553.304H1436.54V550.202L1417.93 544.306V405.608L1436.54 400.953V398.161H1348.73C1313.05 398.161 1289.16 413.675 1289.16 438.188C1289.16 460.218 1308.08 474.802 1337.87 477.594C1319.57 481.007 1307.77 490.937 1302.5 507.692L1298.16 522.276C1292.88 541.203 1290.09 547.099 1282.33 547.099C1279.23 547.099 1276.13 545.858 1273.02 543.686L1270.85 545.858ZM1359.9 474.491C1336.63 474.491 1322.05 461.77 1322.05 439.119C1322.05 416.468 1336.63 404.056 1359.9 404.056H1385.66V474.491H1359.9Z" fill="black"/>
<path d="M553.206 1151.78L555.616 1152.78L561.987 1137.33L494.937 1109.68L488.565 1125.13L490.833 1126.06L500.43 1115.26L519.851 1123.27L493.488 1187.2L483.872 1186.39L483.287 1187.8L515.04 1200.9L515.625 1199.48L508.23 1193.28L534.593 1129.35L554.014 1137.35L553.206 1151.78Z" fill="black"/>
<path d="M1444.33 449.11L1443.15 455.878L1490.53 464.128L1494.06 443.823L1632.81 467.982L1635.44 487.458L1638.52 487.994L1650.04 421.849L1646.96 421.314L1638.38 435.986L1499.63 411.827L1510.19 351.221L1648.94 375.379L1652.05 392.087L1655.13 392.623L1666.11 329.555L1663.03 329.019L1654.51 343.384L1515.76 319.225L1526.31 258.618L1665.06 282.777L1668.17 299.485L1671.25 300.02L1682.77 233.876L1679.69 233.34L1670.63 250.781L1533.11 226.837L1531.4 207.521L1528.94 207.092L1487.75 443.675L1444.33 449.11Z" fill="black"/>
<path d="M288.344 1238.71C294.819 1238.86 299.12 1234.91 299.256 1228.92C299.393 1222.93 295.763 1218.8 289.126 1218.65C282.652 1218.5 277.557 1221.78 273.678 1228.5C269.8 1235.21 267.677 1243.1 267.466 1252.32C266.863 1278.71 282.227 1293.79 307.964 1294.38C333.052 1294.95 349.24 1281.07 349.846 1254.53C350.146 1241.42 346.182 1230.64 337.957 1222.03L335.974 1223.77C342.301 1230.39 345.357 1238.39 345.142 1247.78C344.687 1267.69 330.211 1277.56 305.608 1277C283.432 1276.49 269.557 1267.11 269.901 1252.05C270.009 1247.36 271.569 1242.86 274.424 1238.39L288.344 1238.71Z" fill="black"/>
<path d="M331.228 1058.05C350.715 1085.47 352.402 1109.19 334.514 1122.09C329.535 1125.68 323.124 1128.06 315.413 1129.41L307.571 1118.53C302.254 1111.15 294.823 1109.78 288.922 1114.04C283.205 1118.16 282.072 1125.14 286.325 1131.04C290.712 1137.13 297.804 1139.58 307.522 1137.9C317.239 1136.22 326.919 1131.77 336.324 1124.99C367.305 1102.66 371.511 1072.72 350.776 1043.96C330.04 1015.19 299.281 1009.06 267.561 1031.92C258.156 1038.7 251.187 1046.52 246.653 1055.39L240.204 1055L239.689 1058.17L256.038 1080.86L259.91 1078.06C254.954 1068.47 253.887 1059.99 256.341 1052.9C258.662 1045.62 262.865 1039.79 268.951 1035.4C287.207 1022.24 309.223 1029.07 328.569 1054.36L289.289 1082.67L291.948 1086.36L331.228 1058.05Z" fill="black"/>
<path d="M1581.96 115.961L1586.91 111.383L1614.15 81.4437L1613.97 77.6498L1590.62 60.5553L1589.2 62.1161L1596.03 71.7066L1569.83 100.51C1567.12 94.9347 1563.64 90.2104 1559.38 86.3375C1538.95 67.7473 1514.91 70.5117 1492.83 94.775C1473.72 115.775 1470.39 137.117 1488.55 153.641C1496.21 160.613 1503.72 164.332 1511.34 164.787L1511.38 165.6L1507.08 169.469L1485.27 193.449L1474.3 188.399L1473.01 189.818L1504.79 218.736L1506.08 217.317L1500.02 206.875L1524.17 180.341C1527.01 186.046 1530.5 190.771 1534.75 194.643C1555.04 213.105 1578.81 210.353 1600.89 186.09C1620 165.09 1623.48 143.877 1605.31 127.352C1597.79 120.51 1590.03 117.075 1582 116.774L1581.96 115.961ZM1498.57 156.02C1487.08 145.563 1491.49 126.751 1509.69 106.744C1529.44 85.0347 1547.38 79.5708 1560.01 91.0606C1563.27 94.0299 1565.76 97.8505 1567.89 102.639L1513.8 162.091C1507.95 161.959 1502.97 160.022 1498.57 156.02ZM1595.04 125.529C1606.39 135.857 1602.36 153.972 1584.16 173.979C1564.15 195.972 1546.61 201.281 1533.98 189.791C1531 187.08 1528.37 183.13 1526.1 178.213L1579.68 119.328C1585.52 119.46 1590.65 121.527 1595.04 125.529Z" fill="black"/>
<path d="M1291.13 497.971L1285.34 490.711L1234.52 531.276L1252.16 553.387L1101.67 673.503L1080.92 657.652L1077.95 660.023L1191.48 802.263L1194.45 799.893L1183.59 776.14L1302.31 703.536C1328.18 687.21 1350.15 681.564 1359.9 688.367L1375.97 708.498L1426.79 667.933L1421 660.673L1365.97 682.439L1257.97 547.129L1291.13 497.971ZM1127.75 708.879L1279.56 587.71L1351.73 678.136C1338.81 675.484 1320.08 681.794 1295.53 697.065L1177.27 770.923L1127.75 708.879Z" fill="black"/>
<path d="M1185.78 482.131C1181.28 490.291 1183.46 498.599 1192.12 503.379C1200.03 507.748 1207.71 505.534 1212.76 496.384C1219.73 483.773 1213.36 472.513 1201.49 465.958C1187.89 458.448 1174.21 462.187 1160.94 477.448L1150.87 488.668C1139.9 500.356 1126.93 502.228 1112.34 494.171L1140.47 443.231L1157.9 446.726L1159.26 444.253L1103.87 413.665L1102.51 416.138L1114.75 429.03L1086.62 479.969C1072.03 471.912 1066.7 459.936 1070.75 444.424L1074.89 429.927C1080.74 410.569 1076.61 396.998 1063.01 389.488C1051.14 382.933 1037.97 383.406 1031.01 396.017C1025.82 405.413 1027.68 412.57 1036.33 417.349C1044.49 421.855 1052.94 419.419 1057.44 411.259L1063.32 400.626C1064.19 400.789 1065.07 400.951 1066.31 401.634C1072.24 404.911 1073.42 413.304 1069.58 426.675L1065.31 441.42C1062.08 452.54 1063.44 462.331 1069.17 470.658L1064.47 468.063C1038.76 453.861 1023.78 455.271 1008.29 472.212L998.474 483.568C987.066 496.63 981.205 500.815 975.27 497.538C973.045 496.309 971.118 493.954 969.601 490.858L966.914 491.633C968.771 498.789 974.576 505.222 984.22 510.548C999.304 518.877 1008.24 513.806 1022.02 498.187L1033.82 485.015C1046.26 471.237 1056 468.222 1072.56 477.371L1084.43 483.926L1054.39 538.327L1036.96 534.832L1035.6 537.305L1090 567.347L1091.36 564.874L1080.11 552.529L1110.15 498.127L1122.02 504.682C1138.59 513.831 1140.97 523.538 1136.19 541.548L1131.07 558.408C1125.45 578.533 1125.91 588.793 1140.75 596.987C1150.39 602.312 1158.93 603.8 1165.97 601.559L1165.2 598.873C1162.02 599.374 1159.25 599.135 1156.53 597.633C1150.59 594.355 1151.26 587.302 1156.24 570.69L1160.37 556.193C1166.96 534.337 1159.68 520.637 1134.21 506.572L1129.26 503.84C1139.36 504.254 1148.38 500.198 1156.06 491.535L1166.27 480.068C1175.54 469.701 1183.27 466.224 1189.21 469.501C1190.44 470.184 1191.3 470.978 1191.65 471.498L1185.78 482.131Z" fill="black"/>
<path d="M58.522 1207.47C55.5242 1210.72 52.5136 1214.84 49.656 1220.35C39.1186 1240.67 37.5992 1261.3 45.4551 1281.54C53.311 1301.78 68.5143 1317.97 90.8992 1329.58C116.039 1342.62 141.333 1345.25 165.913 1337.46C190.493 1329.66 209.666 1312.08 223.775 1284.87C250.208 1233.9 237.252 1183.04 179.396 1153.04C151.157 1138.39 123.439 1135.38 96.2442 1144L97.8892 1150.1C118.286 1143.63 138.732 1145.5 159.051 1156.03C203.132 1178.9 211.395 1218.58 185.855 1267.83L65.6651 1205.49L58.522 1207.47ZM92.2007 1323.7C66.3719 1310.3 64.4227 1277.83 88.8909 1230.65L183.176 1272.99C155.901 1322.21 119.407 1337.81 92.2007 1323.7Z" fill="black"/>
</svg>
