<svg width="1086" height="465" viewBox="0 0 1086 465" fill="none" xmlns="http://www.w3.org/2000/svg">
<path d="M186.541 40.5977H186.213L186.083 40.8976L9.29537 445.758L-31.5271 457.165L-31.8926 457.267V457.646V463.683V464.183H-31.3926H76.0648H76.5648V463.683V457.646V457.243L76.1704 457.157L23.6409 445.816L76.3931 324.126H258.046L308.415 445.85L269.108 457.166L268.747 457.27V457.646V463.683V464.183H269.247H414.737H415.237V463.683V457.646V457.273L414.879 457.167L376.47 445.764L206.924 40.9045L206.795 40.5977H206.463H186.541ZM169.624 108.792L252.202 310.449H82.2596L169.624 108.792Z" stroke="#BDBAB9"/>
<path d="M415.647 411.072L415.316 411.191V411.543V415.745V416.245H415.816H506.999H507.499V415.745V411.543V411.177L507.15 411.066L482.287 403.193V276.239C482.287 253.482 477.125 235.279 466.462 222.759C455.788 210.226 439.665 203.464 417.917 203.464C389.395 203.464 356.285 215.134 335.566 234.781L334.807 234.022L336.057 208.611L336.067 208.401L335.924 208.246L330.461 202.364L330.291 202.18L330.042 202.207L266.592 208.93L266.145 208.977V209.427V214.049V214.453L266.539 214.538L291.357 219.915V403.193L266.494 411.066L266.145 411.177V411.543V415.745V416.245H266.645H357.828H358.328V415.745V411.543V411.191L357.997 411.072L336.058 403.207V244.923C350.685 229.551 374.422 219.171 394.806 219.171C409.551 219.171 420.211 225.491 427.21 236.638C434.23 247.817 437.586 263.887 437.586 283.382V403.207L415.647 411.072Z" stroke="#BDBAB9"/>
<path d="M608.876 82.3425L609.228 82.2336V81.8647V78.4744V77.9744H608.728H537.548C536.111 77.8846 534.767 77.7946 533.517 77.7108C530.069 77.4798 527.331 77.2964 525.327 77.2964C504.227 77.2964 487.161 82.4021 473.832 92.6539C460.478 102.585 453.97 116.298 453.97 133.058C453.97 150.995 461.348 164.939 476.397 175.17C460.41 190.9 453.631 201.814 453.631 217.137C453.631 225.689 455.598 232.751 459.618 238.241C463.449 243.472 469.111 247.23 476.599 249.499C456.558 261.209 446.172 273.681 446.172 286.638C446.172 296.916 452.816 304.6 464.827 309.686C476.826 314.768 494.28 317.312 516.173 317.312C547.234 317.312 570.818 312.307 586.652 302.789C602.52 293.251 610.584 279.191 610.584 261.211C610.584 247.194 606.048 236.606 596.871 229.539C587.718 222.493 574.027 219.01 555.84 219.01H498.544C489.6 219.01 483.026 217.489 478.699 214.481C474.407 211.497 472.261 207.003 472.261 200.864C472.261 192.642 475.174 185.061 481.353 178.108C492.922 184.809 507.48 188.142 525.327 188.142C546.76 188.142 563.826 183.378 577.158 173.465C590.514 163.533 597.023 149.819 597.023 133.058C597.023 114.132 588.953 99.6957 572.859 89.4843H585.674H585.75L585.822 89.4621L608.876 82.3425ZM562.459 132.719C562.459 148.753 558.745 161.091 552.267 169.408C545.8 177.711 536.542 182.056 525.327 182.056C514.113 182.056 504.941 177.712 498.559 169.411C492.164 161.094 488.534 148.755 488.534 132.719C488.534 116.683 492.164 104.345 498.559 96.0273C504.941 87.7264 514.113 83.3818 525.327 83.3818C536.536 83.3818 545.795 87.8918 552.265 96.2821C558.746 104.687 562.459 117.026 562.459 132.719ZM559.23 252.218C569.155 252.218 576.312 254.658 580.982 258.707C585.642 262.749 587.886 268.448 587.886 275.111C587.886 286.247 581.836 295.082 570.729 301.159C559.601 307.248 543.422 310.548 523.293 310.548C507.552 310.548 495.547 308.429 487.49 303.502C479.481 298.606 475.312 290.899 475.312 279.519C475.312 270.59 479.583 261.273 488.241 251.559C488.847 251.61 489.44 251.661 490.018 251.71C493.195 251.983 495.934 252.218 498.205 252.218H559.23Z" stroke="#BDBAB9"/>
<path d="M673.672 383.42H674.172V382.92V377.804V377.438L673.823 377.328L643.48 367.719V18.193V17.9967L643.347 17.8528L636.697 10.6913L636.526 10.5079L636.277 10.5343L559.035 18.7189L558.588 18.7663V19.2161V24.843V25.2463L558.982 25.3317L589.28 31.8963V367.719L558.937 377.328L558.588 377.438V377.804V382.92V383.42H559.088H673.672Z" stroke="#BDBAB9"/>
<path d="M743.511 295.731L743.616 295.634L743.653 295.496C744.399 292.763 744.893 289.54 744.893 285.585C744.893 271.028 739.706 258.907 729.321 249.758C718.947 240.62 705.621 235.941 689.626 235.941C671.659 235.941 656.613 241.853 645.019 253.447C633.415 265.051 627.758 280.592 627.758 300.01C627.758 318.204 633.291 333.562 644.04 344.372C654.79 355.183 670.699 361.39 691.338 361.39C711.502 361.39 728.016 354.991 740.835 342.173L741.173 341.834L740.85 341.481L738.16 338.547L737.808 338.162L737.438 338.532C728.002 347.968 716.151 352.81 701.851 352.81C686.314 352.81 674.61 347.899 666.78 338.714C659.013 329.603 654.996 316.216 654.92 299.043H739.748H739.944L740.088 298.91L743.511 295.731ZM690.604 240.609C699.577 240.609 706.632 244.899 711.472 253.346C716.284 261.745 718.905 274.26 718.954 290.736L654.935 294.346C655.492 276.95 659.673 263.548 666.044 254.485C672.474 245.338 681.132 240.609 690.604 240.609Z" stroke="#BDBAB9"/>
<path d="M909.38 238.584L909.719 238.246L909.395 237.893L903.358 231.307L903.005 230.922L902.636 231.291C880.778 253.149 854.012 264.076 822.307 264.076C788.685 264.076 763.321 252.056 746.346 229.696C729.354 207.313 720.72 174.505 720.72 132.85C720.72 95.3123 728.393 64.6836 742.386 43.4559C756.365 22.2479 776.659 10.4062 802 10.4062C817.724 10.4062 832.926 15.2592 848.153 24.4582V71.3782C848.153 82.46 851.617 91.6467 857.688 98.0669C863.762 104.49 872.406 108.103 882.682 108.103C892.94 108.103 901.584 104.913 907.665 98.8316C913.747 92.7499 917.211 83.8304 917.211 72.4759C917.211 50.2971 905.545 33.1341 882.373 20.4448C859.238 7.77555 832.259 1.17334 800.902 1.17334C756.07 1.17334 721.076 14.515 697.291 38.852C673.507 63.1871 660.992 98.4529 660.992 142.181C660.992 184.81 673.095 219.663 696.534 243.861C719.977 268.062 754.697 281.542 799.804 281.542C844.38 281.542 880.737 267.228 909.38 238.584Z" stroke="#BDBAB9"/>
<path d="M815.636 383.42H816.136V382.92V380.55V380.184L815.787 380.074L801.921 375.683V266.119V265.923L801.787 265.779L798.707 262.462L798.537 262.279L798.288 262.305L762.514 266.096L762.066 266.143V266.593V269.199V269.602L762.461 269.688L776.281 272.682V375.683L762.415 380.074L762.066 380.184V380.55V382.92V383.42H762.566H815.636ZM775.006 243.728C781.597 250.319 793.283 250.32 799.876 243.732C806.709 237.139 806.709 225.445 799.876 218.852C793.283 212.264 781.597 212.265 775.006 218.856C768.414 225.448 768.414 237.136 775.006 243.728Z" stroke="#BDBAB9"/>
<path d="M990.34 203.161V255.11H989.724H989.166H988.959L988.813 255.257L988.401 255.668H988.05H987.492H986.934H986.376H985.818H985.611L985.465 255.814L985.053 256.226H984.703H984.145H983.587H983.029H982.471H982.264L982.117 256.372L981.673 256.816C919.834 266.849 879.096 276.333 859.52 284.723L859.518 284.724C844.667 291.169 833.564 299.73 826.176 310.355C818.787 320.982 815.137 333.639 815.137 348.234C815.137 368.425 821.31 384.757 833.926 396.034C846.533 407.303 865.502 413.458 890.963 413.458C929.973 413.458 963.456 400.692 990.829 375.154L992.039 376.364C993.464 387.803 997.543 396.526 1004.47 402.39C1011.42 408.28 1021.18 411.227 1033.8 411.227C1057.85 411.227 1074.75 406.198 1084.93 396.015L1085.29 395.661L1084.93 395.308L1081.03 391.402L1080.67 391.048L1080.32 391.402C1076.54 395.184 1070.55 397.393 1062.26 397.393C1057.87 397.393 1054.68 396.297 1052.58 394.128C1050.47 391.955 1049.37 388.617 1049.37 383.944V213.762C1049.37 188.773 1038.55 167.424 1018.69 152.336C998.844 137.256 969.992 128.45 933.927 128.45C904.288 128.45 877.972 134.601 856.119 147.488C834.236 159.834 823.506 176.723 823.506 197.581C823.506 208.846 827.029 217.77 833.066 223.878C839.104 229.986 847.609 233.233 857.485 233.233C867.654 233.233 876.3 229.558 882.401 223.031C888.5 216.507 892.021 207.171 892.021 195.907V150.982C904.714 142.754 917.943 138.378 932.811 138.378C950.82 138.378 965.183 144.746 975.05 155.993C984.925 167.248 990.34 183.441 990.34 203.161ZM988.608 265.038H988.815L988.962 264.891L989.373 264.48H989.724H990.282H990.34V361.426C970.368 382.444 947.107 392.929 921.094 392.929C906.696 392.929 895.266 388.365 887.429 379.634C879.586 370.896 875.282 357.919 875.282 340.98C875.282 313.76 884.715 294.993 902.92 285.064C908.997 281.749 918.987 278.413 932.859 275.067C946.712 271.726 964.4 268.382 985.857 265.038H986.376H986.934H987.492H988.05H988.608Z" stroke="#BDBAB9"/>
</svg>
