<svg width="1119" height="465" viewBox="0 0 1119 465" fill="none" xmlns="http://www.w3.org/2000/svg">
<path d="M219.414 40.4663H219.087L218.956 40.7662L42.1689 445.627L1.3464 457.033L0.980957 457.135V457.515V463.552V464.052H1.48096H108.938H109.438V463.552V457.515V457.111L109.044 457.026L56.5144 445.684L109.267 323.995H290.92L341.288 445.719L301.982 457.034L301.62 457.138V457.515V463.552V464.052H302.12H447.61H448.11V463.552V457.515V457.142L447.753 457.035L409.344 445.633L239.797 40.7732L239.669 40.4663H239.336H219.414ZM202.498 108.66L285.075 310.317H115.133L202.498 108.66Z" stroke="#BDBAB9"/>
<path d="M448.52 410.94L448.189 411.059V411.411V415.613V416.113H448.689H539.872H540.372V415.613V411.411V411.045L540.023 410.934L515.16 403.061V276.107C515.16 253.35 509.999 235.147 499.336 222.628C488.661 210.094 472.538 203.333 450.79 203.333C422.268 203.333 389.159 215.003 368.439 234.649L367.681 233.89L368.931 208.48L368.941 208.269L368.798 208.115L363.335 202.232L363.165 202.049L362.916 202.075L299.466 208.798L299.019 208.846V209.295V213.918V214.321L299.413 214.406L324.23 219.783V403.061L299.368 410.934L299.019 411.045V411.411V415.613V416.113H299.519H390.702H391.202V415.613V411.411V411.059L390.87 410.94L368.931 403.075V244.792C383.559 229.419 407.296 219.04 427.679 219.04C442.425 219.04 453.085 225.36 460.084 236.507C467.103 247.686 470.46 263.755 470.46 283.25V403.075L448.52 410.94Z" stroke="#BDBAB9"/>
<path d="M641.749 82.2111L642.102 82.1023V81.7334V78.3431V77.8431H641.602H570.421C568.985 77.7533 567.641 77.6632 566.39 77.5795C562.942 77.3485 560.204 77.165 558.201 77.165C537.1 77.165 520.035 82.2708 506.706 92.5225C493.352 102.454 486.844 116.167 486.844 132.927C486.844 150.863 494.221 164.807 509.271 175.039C493.283 190.769 486.505 201.682 486.505 217.006C486.505 225.557 488.472 232.62 492.492 238.109C496.323 243.341 501.985 247.099 509.472 249.368C489.432 261.078 479.046 273.55 479.046 286.507C479.046 296.785 485.689 304.468 497.701 309.555C509.7 314.637 527.154 317.18 549.047 317.18C580.108 317.18 603.691 312.176 619.526 302.658C635.394 293.12 643.458 279.06 643.458 261.08C643.458 247.063 638.921 236.474 629.744 229.408C620.592 222.361 606.901 218.879 588.713 218.879H531.417C522.473 218.879 515.899 217.357 511.573 214.349C507.281 211.365 505.134 206.871 505.134 200.733C505.134 192.51 508.047 184.93 514.227 177.977C525.796 184.677 540.354 188.01 558.201 188.01C579.633 188.01 596.699 183.247 610.031 173.333C623.388 163.402 629.897 149.688 629.897 132.927C629.897 114.001 621.826 99.5643 605.732 89.353H618.548H618.623L618.695 89.3307L641.749 82.2111ZM595.333 132.588C595.333 148.622 591.619 160.959 585.14 169.277C578.673 177.58 569.416 181.925 558.201 181.925C546.986 181.925 537.814 177.58 531.432 169.279C525.038 160.962 521.407 148.624 521.407 132.588C521.407 116.551 525.038 104.213 531.432 95.8959C537.814 87.595 546.986 83.2505 558.201 83.2505C569.41 83.2505 578.669 87.7605 585.139 96.1508C591.62 104.555 595.333 116.895 595.333 132.588ZM592.103 252.087C602.029 252.087 609.186 254.526 613.855 258.576C618.515 262.617 620.76 268.317 620.76 274.98C620.76 286.116 614.709 294.95 603.602 301.028C592.474 307.117 576.295 310.417 556.166 310.417C540.426 310.417 528.421 308.297 520.363 303.371C512.355 298.474 508.185 290.768 508.185 279.387C508.185 270.458 512.457 261.141 521.114 251.428C521.721 251.479 522.313 251.53 522.891 251.579C526.069 251.852 528.808 252.087 531.078 252.087H592.103Z" stroke="#BDBAB9"/>
<path d="M706.546 383.288H707.046V382.788V377.673V377.307L706.697 377.196L676.354 367.587V18.0614V17.8651L676.22 17.7212L669.57 10.5597L669.4 10.3763L669.151 10.4027L591.909 18.5873L591.461 18.6347V19.0845V24.7114V25.1147L591.856 25.2001L622.154 31.7647V367.587L591.81 377.196L591.461 377.307V377.673V382.788V383.288H591.961H706.546Z" stroke="#BDBAB9"/>
<path d="M776.384 295.6L776.489 295.503L776.527 295.365C777.272 292.632 777.767 289.409 777.767 285.454C777.767 270.897 772.579 258.775 762.194 249.627C751.821 240.488 738.495 235.81 722.5 235.81C704.533 235.81 689.487 241.721 677.892 253.316C666.288 264.92 660.631 280.461 660.631 299.879C660.631 318.073 666.165 333.43 676.913 344.241C687.663 355.052 703.572 361.258 724.211 361.258C744.376 361.258 760.89 354.86 773.708 342.041L774.047 341.703L773.723 341.35L771.034 338.416L770.681 338.031L770.312 338.4C760.875 347.837 749.024 352.679 734.725 352.679C719.187 352.679 707.483 347.767 699.653 338.582C691.887 329.472 687.87 316.085 687.793 298.912H772.621H772.818L772.962 298.778L776.384 295.6ZM723.478 240.477C732.45 240.477 739.505 244.767 744.346 253.215C749.158 261.614 751.778 274.129 751.828 290.605L687.808 294.215C688.366 276.819 692.547 263.417 698.918 254.354C705.348 245.207 714.006 240.477 723.478 240.477Z" stroke="#BDBAB9"/>
<path d="M942.254 238.453L942.592 238.115L942.269 237.762L936.232 231.175L935.879 230.79L935.509 231.16C913.651 253.018 886.886 263.945 855.181 263.945C821.559 263.945 796.194 251.925 779.219 229.564C762.228 207.182 753.593 174.374 753.593 132.719C753.593 95.181 761.267 64.5522 775.259 43.3245C789.239 22.1166 809.533 10.2749 834.873 10.2749C850.598 10.2749 865.8 15.1278 881.026 24.3269V71.2469C881.026 82.3287 884.491 91.5153 890.562 97.9356C896.636 104.358 905.28 107.971 915.555 107.971C925.813 107.971 934.458 104.781 940.539 98.7003C946.62 92.6185 950.084 83.699 950.084 72.3446C950.084 50.1657 938.418 33.0028 915.247 20.3135C892.111 7.6442 865.133 1.04199 833.775 1.04199C788.944 1.04199 753.95 14.3837 730.164 38.7206C706.38 63.0558 693.866 98.3215 693.866 142.049C693.866 184.678 705.968 219.532 729.408 243.73C752.85 267.931 787.571 281.41 832.678 281.41C877.254 281.41 913.61 267.097 942.254 238.453Z" stroke="#BDBAB9"/>
<path d="M848.51 383.288H849.01V382.788V380.419V380.053L848.661 379.942L834.795 375.552V265.988V265.791L834.661 265.647L831.581 262.331L831.411 262.147L831.162 262.174L795.387 265.964L794.94 266.012V266.461V269.068V269.471L795.334 269.556L809.155 272.551V375.552L795.289 379.942L794.94 380.053V380.419V382.788V383.288H795.44H848.51ZM807.88 243.597C814.471 250.188 826.157 250.189 832.75 243.6C839.583 237.007 839.583 225.314 832.75 218.721C826.157 212.132 814.471 212.133 807.88 218.724C801.288 225.316 801.288 237.005 807.88 243.597Z" stroke="#BDBAB9"/>
<path d="M1023.21 203.029V254.979H1022.6H1022.04H1021.83L1021.69 255.125L1021.27 255.537H1020.92H1020.37H1019.81H1019.25H1018.69H1018.48L1018.34 255.683L1017.93 256.095H1017.58H1017.02H1016.46H1015.9H1015.34H1015.14L1014.99 256.241L1014.55 256.685C952.708 266.718 911.97 276.202 892.393 284.592L892.391 284.593C877.54 291.037 866.438 299.599 859.05 310.223C851.66 320.851 848.01 333.508 848.01 348.102C848.01 368.294 854.183 384.626 866.799 395.903C879.407 407.172 898.375 413.327 923.837 413.327C962.847 413.327 996.329 400.56 1023.7 375.023L1024.91 376.233C1026.34 387.672 1030.42 396.394 1037.34 402.258C1044.29 408.149 1054.05 411.095 1066.68 411.095C1090.72 411.095 1107.62 406.067 1117.81 395.884L1118.16 395.53L1117.81 395.176L1113.9 391.271L1113.55 390.917L1113.19 391.271C1109.41 395.052 1103.42 397.262 1095.13 397.262C1090.75 397.262 1087.55 396.166 1085.45 393.996C1083.34 391.824 1082.24 388.486 1082.24 383.813V213.631C1082.24 188.642 1071.43 167.293 1051.57 152.204C1031.72 137.125 1002.87 128.319 966.801 128.319C937.162 128.319 910.846 134.47 888.992 147.357C867.109 159.703 856.38 176.592 856.38 197.45C856.38 208.715 859.903 217.638 865.94 223.747C871.977 229.855 880.483 233.102 890.358 233.102C900.527 233.102 909.173 229.427 915.274 222.9C921.373 216.375 924.895 207.04 924.895 195.776V150.851C937.588 142.623 950.817 138.246 965.685 138.246C983.693 138.246 998.057 144.614 1007.92 155.862C1017.8 167.117 1023.21 183.309 1023.21 203.029ZM1021.48 264.906H1021.69L1021.84 264.76L1022.25 264.348H1022.6H1023.16H1023.21V361.294C1003.24 382.312 979.98 392.798 953.967 392.798C939.569 392.798 928.139 388.233 920.303 379.503C912.459 370.765 908.155 357.787 908.155 340.849C908.155 313.629 917.589 294.862 935.793 284.932C941.87 281.618 951.86 278.282 965.732 274.936C979.585 271.594 997.273 268.251 1018.73 264.906H1019.25H1019.81H1020.37H1020.92H1021.48Z" stroke="#BDBAB9"/>
</svg>
