<svg width="1321" height="465" viewBox="0 0 1321 465" fill="none" xmlns="http://www.w3.org/2000/svg">
<path d="M109.461 112.694L21.1541 314.926L0.659668 320.653V323.666H54.3069V320.653L27.7847 314.926L54.3069 253.744H145.326L170.643 314.926L150.751 320.653V323.666H223.386V320.653L204.097 314.926L119.407 112.694H109.461ZM142.614 247.415H57.0194L101.022 145.847L142.614 247.415Z" fill="black"/>
<path d="M308.041 383.944V380.93L280.916 375.204V317.036C290.862 322.461 302.616 325.173 316.178 325.173C362.291 325.173 389.416 295.939 389.416 245.004C389.416 200.398 369.223 171.767 330.344 171.767C310.753 171.767 294.177 178.698 280.916 192.562L280.012 191.658L280.916 175.082L276.998 170.862L231.488 175.685V179L249.571 182.918V375.204L231.488 380.93V383.944H308.041ZM280.916 199.193C290.259 188.042 301.712 182.315 315.274 182.315C328.234 182.315 338.481 188.644 346.016 201.001C353.551 213.358 357.469 229.633 357.469 249.826C357.469 294.733 340.591 320.653 310.452 320.653C301.109 320.653 291.163 317.94 280.916 312.515V199.193Z" fill="black"/>
<path d="M493.378 320.653V323.666H561.492V320.653L544.313 314.926L490.967 242.593L537.08 181.712L556.67 175.986V172.972H505.735V175.986L529.846 181.712L487.049 237.771L445.759 181.712L463.842 175.986V172.972H396.03V175.986L413.209 181.712L463.239 250.429L414.414 314.926L394.523 320.653V323.666H445.458V320.653L421.346 314.926L467.158 255.251L511.763 314.926L493.378 320.653Z" fill="black"/>
<path d="M571.728 323.666H637.129V320.653L621.155 314.926V309.501L694.694 200.7L695.598 201.604L694.694 224.811V314.926L678.721 320.653V323.666H744.122V320.653L726.039 314.926V181.712L744.122 175.986V172.972H678.721V175.986L694.694 181.712V187.137L621.155 295.939L620.251 295.034L621.155 271.828V181.712L637.129 175.986V172.972H571.728V175.986L589.811 181.712V314.926L571.728 320.653V323.666Z" fill="black"/>
<path d="M897.333 205.823H902.457V172.972H759.9V205.823H764.722L774.065 179H815.356V314.926L797.272 320.653V323.666H864.783V320.653L846.7 314.926V179H887.99L897.333 205.823Z" fill="black"/>
<path d="M1056.7 244.401C1057.61 241.086 1058.21 237.168 1058.21 232.346C1058.21 214.564 1051.88 199.796 1039.22 188.644C1026.57 177.493 1010.29 171.767 990.7 171.767C968.699 171.767 950.314 179 936.149 193.165C921.984 207.33 915.052 226.318 915.052 250.128C915.052 294.733 942.177 325.173 992.81 325.173C1017.52 325.173 1037.72 317.337 1053.39 301.665L1050.07 298.048C1038.32 309.803 1023.55 315.83 1005.77 315.83C967.192 315.83 947.3 291.418 947.3 248.319H1052.48L1056.7 244.401ZM991.906 176.287C1014.51 176.287 1027.47 197.987 1027.47 239.278L947.3 243.798C948.506 200.097 968.096 176.287 991.906 176.287Z" fill="black"/>
<path d="M1192.21 194.371C1192.21 204.316 1199.15 210.947 1209.09 210.947C1218.74 210.947 1225.07 204.919 1225.07 193.768C1225.07 178.397 1213.31 171.465 1197.94 171.465C1180.46 171.465 1169.61 182.014 1165.09 203.111L1161.77 218.783C1158.16 234.154 1145.5 243.798 1126.51 243.798V181.712L1144.59 175.986V172.972H1077.08V175.986L1095.17 181.712V314.926L1077.08 320.653V323.666H1143.69V320.653L1126.51 314.926V248.621H1141.88C1162.68 248.621 1170.82 256.457 1175.64 275.746L1179.86 294.13C1185.58 315.83 1191.31 325.173 1210.3 325.173C1222.05 325.173 1231.09 322.159 1236.82 316.433L1234.41 314.323C1231.39 316.433 1228.38 317.639 1225.37 317.639C1217.83 317.639 1214.82 310.707 1210.3 292.623L1206.68 276.951C1200.95 253.141 1187.09 244.1 1154.24 244.1H1148.81C1159.06 239.579 1165.69 231.14 1168.4 218.783L1172.02 202.81C1175.34 188.042 1181.06 180.507 1188.9 180.507C1190.1 180.507 1191.31 180.808 1192.21 181.411V194.371Z" fill="black"/>
<path d="M1386.21 205.823H1391.33V172.972H1248.77V205.823H1253.6L1262.94 179H1304.23V314.926L1286.15 320.653V323.666H1353.66V320.653L1335.57 314.926V179H1376.86L1386.21 205.823Z" fill="black"/>
<path d="M1488.1 326.379C1473.93 358.628 1464.29 375.505 1453.44 375.505C1452.53 375.505 1451.33 375.204 1450.12 374.601V362.546C1450.12 352.6 1443.49 345.969 1433.85 345.969C1424.5 345.969 1418.47 351.997 1418.47 362.546C1418.47 377.916 1431.74 384.547 1445 384.547C1454.64 384.547 1463.08 380.026 1470.01 370.683C1477.25 361.34 1485.99 345.668 1495.93 323.666L1559.83 181.712L1579.11 175.986V172.972H1528.18V175.986L1553.2 181.712L1504.37 291.116L1454.94 181.712L1473.33 175.986V172.972H1404.61V175.986L1422.39 181.712L1488.1 326.379Z" fill="black"/>
<path d="M1664.58 383.944V380.93L1637.46 375.204V317.036C1647.4 322.461 1659.16 325.173 1672.72 325.173C1718.83 325.173 1745.96 295.939 1745.96 245.004C1745.96 200.398 1725.77 171.767 1686.89 171.767C1667.3 171.767 1650.72 178.698 1637.46 192.562L1636.56 191.658L1637.46 175.082L1633.54 170.862L1588.03 175.685V179L1606.11 182.918V375.204L1588.03 380.93V383.944H1664.58ZM1637.46 199.193C1646.8 188.042 1658.26 182.315 1671.82 182.315C1684.78 182.315 1695.02 188.644 1702.56 201.001C1710.09 213.358 1714.01 229.633 1714.01 249.826C1714.01 294.733 1697.13 320.653 1667 320.653C1657.65 320.653 1647.71 317.94 1637.46 312.515V199.193Z" fill="black"/>
<path d="M1868.03 305.583C1869.54 317.94 1876.77 324.269 1890.33 324.269C1903.29 324.269 1912.34 321.557 1917.76 316.132L1915.65 314.022C1913.54 316.132 1910.23 317.337 1905.7 317.337C1900.88 317.337 1898.47 314.926 1898.47 309.803V217.879C1898.47 191.055 1875.26 172.068 1836.39 172.068C1820.41 172.068 1806.25 175.383 1794.49 182.315C1782.74 188.946 1777.01 197.987 1777.01 209.139C1777.01 221.194 1784.55 228.126 1795.09 228.126C1805.94 228.126 1813.48 220.29 1813.48 208.235V183.822C1820.41 179.301 1827.64 176.89 1835.78 176.89C1855.37 176.89 1867.13 190.754 1867.13 212.153V240.483H1866.52H1866.22L1865.92 240.785H1865.62H1865.32H1865.02H1864.72H1864.41L1864.11 241.086H1863.81H1863.51H1863.21H1862.91H1862.61L1862.3 241.387C1828.85 246.812 1806.85 251.936 1796.3 256.457C1780.33 263.389 1772.49 274.841 1772.49 290.514C1772.49 312.214 1785.75 325.475 1813.18 325.475C1834.28 325.475 1852.36 318.543 1867.13 304.679L1868.03 305.583ZM1867.13 297.747C1856.28 309.2 1843.62 314.926 1829.45 314.926C1813.78 314.926 1804.44 304.98 1804.44 286.596C1804.44 271.828 1809.56 261.58 1819.51 256.155C1826.14 252.539 1841.21 248.922 1864.41 245.305H1864.72H1865.02H1865.32H1865.62H1865.92L1866.22 245.004H1866.52H1866.83H1867.13V297.747Z" fill="black"/>
<path d="M127.405 0.509277C119.226 13.1686 114.709 27.7951 114.509 42.877C114.436 49.2339 114.855 56.0099 116.731 62.13C116.732 62.132 116.732 62.1339 116.733 62.1359C117.083 63.2644 118.918 64.7181 119.682 65.5909C120.392 66.3923 121.084 67.212 121.813 68.0134C122.032 68.2502 122.614 68.7056 122.706 68.997C122.087 66.9734 121.627 64.8824 121.291 62.7607C120.607 58.4466 120.434 54.0052 120.483 49.744C120.684 34.6621 130.514 13.5105 138.693 0.851169C138.82 0.650806 131.946 0.90763 131.206 0.898001C130.365 0.893515 127.296 0.673211 127.405 0.509277Z" fill="#DE1919"/>
<path fill-rule="evenodd" clip-rule="evenodd" d="M109.591 61.7658C80.7025 61.8933 54.4914 80.8731 45.7482 108.487C41.3585 122.348 41.6317 137.576 46.5315 151.273C48.8448 157.74 52.1599 163.805 56.2946 169.27C60.8483 175.281 65.9849 181.237 71.7044 186.191C93.635 205.226 126.422 207.812 151.048 192.366C175.711 176.92 187.751 146.41 180.247 118.268C176.385 103.769 167.332 91.7109 156.822 81.2556C147.164 71.6679 134.701 65.1262 121.291 62.7607C121.627 64.8824 122.087 66.9734 122.706 68.997C122.614 68.7056 122.032 68.2502 121.813 68.0134C121.084 67.212 120.392 66.3923 119.682 65.5909C118.918 64.7181 117.083 63.2644 116.733 62.1359C114.363 61.8959 111.977 61.7779 109.591 61.7658ZM115.566 68.6327C129.099 68.6874 142.396 72.7493 153.562 80.4542C156.258 82.3121 158.808 84.3704 161.212 86.5926C161.868 87.1964 162.491 87.8167 163.127 88.4533C163.066 88.3732 163.004 88.2934 162.942 88.2137C162.269 87.3576 159.955 84.6436 163.161 88.323C166.349 92.0024 163.999 89.343 163.234 88.5598C163.198 88.5242 163.163 88.4887 163.127 88.4533C163.697 89.1964 164.238 89.9545 164.764 90.7273C168.516 96.1736 171.467 102.166 173.471 108.487C181.74 134.643 172.833 163.896 151.431 181.018C130.01 198.177 99.2998 200.381 75.657 186.428C72.8337 184.77 70.1379 182.894 67.5878 180.836C66.4403 179.907 65.311 178.924 64.2181 177.922C63.5983 177.351 62.993 176.765 62.4024 176.178C62.7893 176.701 63.1821 177.222 63.5806 177.74C63.0585 177.063 62.6077 176.486 62.2206 175.997C62.2125 175.989 62.2044 175.981 62.1962 175.973C61.923 175.699 61.6498 175.408 61.3584 175.117C60.1266 173.836 59.0968 172.051 62.2206 175.997C62.2811 176.058 62.3417 176.118 62.4024 176.178C58.7743 171.272 55.6699 166.111 53.3985 160.399C48.3165 147.667 47.2965 133.423 50.4659 120.071C56.6771 93.8421 78.8992 73.405 105.548 69.3978C108.881 68.8877 112.196 68.651 115.566 68.6327Z" fill="#DE1919"/>
<path d="M900.168 92.627C906.777 93.1618 913.369 94.3521 919.858 95.6976C933.699 98.5958 947.42 102.839 960.016 109.326C966.798 112.828 973.269 117.019 978.91 122.16C979.602 122.781 980.276 123.437 980.934 124.092C981.886 125.041 984.619 128.129 981.107 124.092C977.612 120.09 980.259 123.161 981.055 124.23C981.661 125.041 982.249 125.869 982.803 126.732C984.896 129.923 986.644 133.356 987.959 136.944C991.194 145.794 990.986 154.85 990.969 164.131C990.952 174.844 990.935 185.574 990.9 196.286C990.848 215.21 990.779 234.151 990.779 253.075C990.779 264.409 990.796 275.76 990.813 287.094C990.848 301.274 990.623 315.488 991.021 329.668C991.488 346.608 996.385 363.014 1007.44 376.09C1013.05 382.731 1018.76 389.028 1025.95 393.961C1031.58 397.808 1037.72 400.862 1044.1 403.26C1055.75 407.624 1068.14 409.867 1080.51 410.712C1087.69 411.212 1094.94 411.298 1102.1 410.695C1102.45 410.66 1102.79 410.643 1103.14 410.591C1102.76 410.626 1100.66 407.676 1100.34 407.313C1099.96 406.882 1098.03 404.019 1097.46 404.088C1092.38 404.64 1087.2 404.657 1082.12 404.536C1070.52 404.26 1058.9 402.828 1047.7 399.74C1034.48 396.118 1021.7 390.046 1011.7 380.54C1011.06 379.937 1010.43 379.316 1009.83 378.677C1009.52 378.367 1009.22 378.039 1008.93 377.729C1007.15 375.866 1013.69 383.387 1011.68 380.851C1010.47 379.333 1009.31 377.763 1008.24 376.142C1006.11 372.933 1004.29 369.517 1002.77 365.964C999.257 357.718 997.44 348.816 996.869 339.898C996.419 333.049 996.627 326.166 996.592 319.301C996.558 312.314 996.54 305.328 996.506 298.324C996.471 286.662 996.454 275.001 996.454 263.34C996.454 244.329 996.523 225.319 996.575 206.326C996.61 195.855 996.627 185.384 996.644 174.913C996.662 165.27 997.354 155.471 994.533 146.121C992.232 138.497 988.028 131.976 982.854 125.99C977.145 119.366 971.314 113.345 964.013 108.463C951.659 100.269 937.454 94.9904 923.145 91.2987C914.217 88.9871 905.064 87.2103 895.877 86.2615C895.41 86.2098 894.96 86.158 894.493 86.1235C895.064 86.1753 896.88 88.9181 897.296 89.4012C897.97 90.1602 898.628 90.9365 899.32 91.6955C899.458 91.868 899.96 92.6098 900.168 92.627Z" fill="#DE1919"/>
<mask id="path-4-outside-1_604:120" maskUnits="userSpaceOnUse" x="230.373" y="168.862" width="1689" height="217" fill="black">
<rect fill="white" x="230.373" y="168.862" width="1689" height="217"/>
<path d="M307.926 383.944V380.93L280.801 375.204V317.036C290.747 322.461 302.501 325.173 316.063 325.173C362.176 325.173 389.301 295.939 389.301 245.004C389.301 200.398 369.108 171.766 330.229 171.766C310.638 171.766 294.062 178.698 280.801 192.562L279.897 191.658L280.801 175.082L276.883 170.862L231.373 175.685V179L249.456 182.918V375.204L231.373 380.93V383.944H307.926ZM280.801 199.193C290.144 188.041 301.597 182.315 315.159 182.315C328.119 182.315 338.366 188.644 345.901 201.001C353.435 213.358 357.354 229.633 357.354 249.826C357.354 294.733 340.476 320.652 310.337 320.652C300.994 320.652 291.048 317.94 280.801 312.515V199.193Z"/>
<path d="M493.263 320.652V323.666H561.377V320.652L544.198 314.926L490.852 242.593L536.965 181.712L556.555 175.986V172.972H505.62V175.986L529.731 181.712L486.934 237.771L445.644 181.712L463.727 175.986V172.972H395.915V175.986L413.094 181.712L463.124 250.429L414.299 314.926L394.408 320.652V323.666H445.342V320.652L421.231 314.926L467.042 255.251L511.648 314.926L493.263 320.652Z"/>
<path d="M571.613 323.666H637.014V320.652L621.04 314.926V309.501L694.579 200.7L695.483 201.604L694.579 224.811V314.926L678.606 320.652V323.666H744.007V320.652L725.924 314.926V181.712L744.007 175.986V172.972H678.606V175.986L694.579 181.712V187.137L621.04 295.939L620.136 295.034L621.04 271.828V181.712L637.014 175.986V172.972H571.613V175.986L589.696 181.712V314.926L571.613 320.652V323.666Z"/>
<path d="M897.218 205.823H902.342V172.972H759.785V205.823H764.607L773.95 179H815.241V314.926L797.157 320.652V323.666H864.668V320.652L846.585 314.926V179H887.875L897.218 205.823Z"/>
<path d="M1386.09 205.823H1391.22V172.972H1248.66V205.823H1253.48L1262.82 179H1304.11V314.926L1286.03 320.652V323.666H1353.54V320.652L1335.46 314.926V179H1376.75L1386.09 205.823Z"/>
<path d="M1487.98 326.379C1473.81 358.627 1464.17 375.505 1453.32 375.505C1452.42 375.505 1451.21 375.204 1450.01 374.601V362.546C1450.01 352.6 1443.37 345.969 1433.73 345.969C1424.39 345.969 1418.36 351.997 1418.36 362.546C1418.36 377.916 1431.62 384.547 1444.88 384.547C1454.53 384.547 1462.96 380.026 1469.9 370.683C1477.13 361.34 1485.87 345.668 1495.82 323.666L1559.71 181.712L1579 175.986V172.972H1528.06V175.986L1553.08 181.712L1504.26 291.116L1454.83 181.712L1473.21 175.986V172.972H1404.5V175.986L1422.28 181.712L1487.98 326.379Z"/>
<path d="M1664.47 383.944V380.93L1637.34 375.204V317.036C1647.29 322.461 1659.04 325.173 1672.61 325.173C1718.72 325.173 1745.84 295.939 1745.84 245.004C1745.84 200.398 1725.65 171.766 1686.77 171.766C1667.18 171.766 1650.61 178.698 1637.34 192.562L1636.44 191.658L1637.34 175.082L1633.43 170.862L1587.92 175.685V179L1606 182.918V375.204L1587.92 380.93V383.944H1664.47ZM1637.34 199.193C1646.69 188.041 1658.14 182.315 1671.7 182.315C1684.66 182.315 1694.91 188.644 1702.44 201.001C1709.98 213.358 1713.9 229.633 1713.9 249.826C1713.9 294.733 1697.02 320.652 1666.88 320.652C1657.54 320.652 1647.59 317.94 1637.34 312.515V199.193Z"/>
<path d="M1867.92 305.583C1869.42 317.94 1876.66 324.269 1890.22 324.269C1903.18 324.269 1912.22 321.557 1917.65 316.132L1915.54 314.022C1913.43 316.132 1910.11 317.337 1905.59 317.337C1900.77 317.337 1898.36 314.926 1898.36 309.802V217.879C1898.36 191.055 1875.15 172.068 1836.27 172.068C1820.3 172.068 1806.13 175.383 1794.38 182.315C1782.62 188.946 1776.9 197.987 1776.9 209.139C1776.9 221.194 1784.43 228.126 1794.98 228.126C1805.83 228.126 1813.36 220.29 1813.36 208.235V183.822C1820.3 179.301 1827.53 176.89 1835.67 176.89C1855.26 176.89 1867.01 190.754 1867.01 212.153V240.483H1866.41H1866.11L1865.81 240.784H1865.5H1865.2H1864.9H1864.6H1864.3L1864 241.086H1863.7H1863.4H1863.09H1862.79H1862.49L1862.19 241.387C1828.74 246.812 1806.73 251.936 1796.19 256.457C1780.21 263.389 1772.38 274.841 1772.38 290.514C1772.38 312.214 1785.64 325.475 1813.06 325.475C1834.16 325.475 1852.24 318.543 1867.01 304.679L1867.92 305.583ZM1867.01 297.747C1856.16 309.2 1843.5 314.926 1829.34 314.926C1813.67 314.926 1804.32 304.98 1804.32 286.596C1804.32 271.828 1809.45 261.58 1819.39 256.155C1826.02 252.539 1841.09 248.922 1864.3 245.305H1864.6H1864.9H1865.2H1865.5H1865.81L1866.11 245.004H1866.41H1866.71H1867.01V297.747Z"/>
</mask>
<path d="M307.926 383.944V380.93L280.801 375.204V317.036C290.747 322.461 302.501 325.173 316.063 325.173C362.176 325.173 389.301 295.939 389.301 245.004C389.301 200.398 369.108 171.766 330.229 171.766C310.638 171.766 294.062 178.698 280.801 192.562L279.897 191.658L280.801 175.082L276.883 170.862L231.373 175.685V179L249.456 182.918V375.204L231.373 380.93V383.944H307.926ZM280.801 199.193C290.144 188.041 301.597 182.315 315.159 182.315C328.119 182.315 338.366 188.644 345.901 201.001C353.435 213.358 357.354 229.633 357.354 249.826C357.354 294.733 340.476 320.652 310.337 320.652C300.994 320.652 291.048 317.94 280.801 312.515V199.193Z" fill="#ECE9E7"/>
<path d="M493.263 320.652V323.666H561.377V320.652L544.198 314.926L490.852 242.593L536.965 181.712L556.555 175.986V172.972H505.62V175.986L529.731 181.712L486.934 237.771L445.644 181.712L463.727 175.986V172.972H395.915V175.986L413.094 181.712L463.124 250.429L414.299 314.926L394.408 320.652V323.666H445.342V320.652L421.231 314.926L467.042 255.251L511.648 314.926L493.263 320.652Z" fill="#ECE9E7"/>
<path d="M571.613 323.666H637.014V320.652L621.04 314.926V309.501L694.579 200.7L695.483 201.604L694.579 224.811V314.926L678.606 320.652V323.666H744.007V320.652L725.924 314.926V181.712L744.007 175.986V172.972H678.606V175.986L694.579 181.712V187.137L621.04 295.939L620.136 295.034L621.04 271.828V181.712L637.014 175.986V172.972H571.613V175.986L589.696 181.712V314.926L571.613 320.652V323.666Z" fill="#ECE9E7"/>
<path d="M897.218 205.823H902.342V172.972H759.785V205.823H764.607L773.95 179H815.241V314.926L797.157 320.652V323.666H864.668V320.652L846.585 314.926V179H887.875L897.218 205.823Z" fill="#ECE9E7"/>
<path d="M1386.09 205.823H1391.22V172.972H1248.66V205.823H1253.48L1262.82 179H1304.11V314.926L1286.03 320.652V323.666H1353.54V320.652L1335.46 314.926V179H1376.75L1386.09 205.823Z" fill="#ECE9E7"/>
<path d="M1487.98 326.379C1473.81 358.627 1464.17 375.505 1453.32 375.505C1452.42 375.505 1451.21 375.204 1450.01 374.601V362.546C1450.01 352.6 1443.37 345.969 1433.73 345.969C1424.39 345.969 1418.36 351.997 1418.36 362.546C1418.36 377.916 1431.62 384.547 1444.88 384.547C1454.53 384.547 1462.96 380.026 1469.9 370.683C1477.13 361.34 1485.87 345.668 1495.82 323.666L1559.71 181.712L1579 175.986V172.972H1528.06V175.986L1553.08 181.712L1504.26 291.116L1454.83 181.712L1473.21 175.986V172.972H1404.5V175.986L1422.28 181.712L1487.98 326.379Z" fill="#ECE9E7"/>
<path d="M1664.47 383.944V380.93L1637.34 375.204V317.036C1647.29 322.461 1659.04 325.173 1672.61 325.173C1718.72 325.173 1745.84 295.939 1745.84 245.004C1745.84 200.398 1725.65 171.766 1686.77 171.766C1667.18 171.766 1650.61 178.698 1637.34 192.562L1636.44 191.658L1637.34 175.082L1633.43 170.862L1587.92 175.685V179L1606 182.918V375.204L1587.92 380.93V383.944H1664.47ZM1637.34 199.193C1646.69 188.041 1658.14 182.315 1671.7 182.315C1684.66 182.315 1694.91 188.644 1702.44 201.001C1709.98 213.358 1713.9 229.633 1713.9 249.826C1713.9 294.733 1697.02 320.652 1666.88 320.652C1657.54 320.652 1647.59 317.94 1637.34 312.515V199.193Z" fill="#ECE9E7"/>
<path d="M1867.92 305.583C1869.42 317.94 1876.66 324.269 1890.22 324.269C1903.18 324.269 1912.22 321.557 1917.65 316.132L1915.54 314.022C1913.43 316.132 1910.11 317.337 1905.59 317.337C1900.77 317.337 1898.36 314.926 1898.36 309.802V217.879C1898.36 191.055 1875.15 172.068 1836.27 172.068C1820.3 172.068 1806.13 175.383 1794.38 182.315C1782.62 188.946 1776.9 197.987 1776.9 209.139C1776.9 221.194 1784.43 228.126 1794.98 228.126C1805.83 228.126 1813.36 220.29 1813.36 208.235V183.822C1820.3 179.301 1827.53 176.89 1835.67 176.89C1855.26 176.89 1867.01 190.754 1867.01 212.153V240.483H1866.41H1866.11L1865.81 240.784H1865.5H1865.2H1864.9H1864.6H1864.3L1864 241.086H1863.7H1863.4H1863.09H1862.79H1862.49L1862.19 241.387C1828.74 246.812 1806.73 251.936 1796.19 256.457C1780.21 263.389 1772.38 274.841 1772.38 290.514C1772.38 312.214 1785.64 325.475 1813.06 325.475C1834.16 325.475 1852.24 318.543 1867.01 304.679L1867.92 305.583ZM1867.01 297.747C1856.16 309.2 1843.5 314.926 1829.34 314.926C1813.67 314.926 1804.32 304.98 1804.32 286.596C1804.32 271.828 1809.45 261.58 1819.39 256.155C1826.02 252.539 1841.09 248.922 1864.3 245.305H1864.6H1864.9H1865.2H1865.5H1865.81L1866.11 245.004H1866.41H1866.71H1867.01V297.747Z" fill="#ECE9E7"/>
<path d="M307.926 383.944V380.93L280.801 375.204V317.036C290.747 322.461 302.501 325.173 316.063 325.173C362.176 325.173 389.301 295.939 389.301 245.004C389.301 200.398 369.108 171.766 330.229 171.766C310.638 171.766 294.062 178.698 280.801 192.562L279.897 191.658L280.801 175.082L276.883 170.862L231.373 175.685V179L249.456 182.918V375.204L231.373 380.93V383.944H307.926ZM280.801 199.193C290.144 188.041 301.597 182.315 315.159 182.315C328.119 182.315 338.366 188.644 345.901 201.001C353.435 213.358 357.354 229.633 357.354 249.826C357.354 294.733 340.476 320.652 310.337 320.652C300.994 320.652 291.048 317.94 280.801 312.515V199.193Z" stroke="black" stroke-width="2" mask="url(#path-4-outside-1_604:120)"/>
<path d="M493.263 320.652V323.666H561.377V320.652L544.198 314.926L490.852 242.593L536.965 181.712L556.555 175.986V172.972H505.62V175.986L529.731 181.712L486.934 237.771L445.644 181.712L463.727 175.986V172.972H395.915V175.986L413.094 181.712L463.124 250.429L414.299 314.926L394.408 320.652V323.666H445.342V320.652L421.231 314.926L467.042 255.251L511.648 314.926L493.263 320.652Z" stroke="black" stroke-width="2" mask="url(#path-4-outside-1_604:120)"/>
<path d="M571.613 323.666H637.014V320.652L621.04 314.926V309.501L694.579 200.7L695.483 201.604L694.579 224.811V314.926L678.606 320.652V323.666H744.007V320.652L725.924 314.926V181.712L744.007 175.986V172.972H678.606V175.986L694.579 181.712V187.137L621.04 295.939L620.136 295.034L621.04 271.828V181.712L637.014 175.986V172.972H571.613V175.986L589.696 181.712V314.926L571.613 320.652V323.666Z" stroke="black" stroke-width="2" mask="url(#path-4-outside-1_604:120)"/>
<path d="M897.218 205.823H902.342V172.972H759.785V205.823H764.607L773.95 179H815.241V314.926L797.157 320.652V323.666H864.668V320.652L846.585 314.926V179H887.875L897.218 205.823Z" stroke="black" stroke-width="2" mask="url(#path-4-outside-1_604:120)"/>
<path d="M1386.09 205.823H1391.22V172.972H1248.66V205.823H1253.48L1262.82 179H1304.11V314.926L1286.03 320.652V323.666H1353.54V320.652L1335.46 314.926V179H1376.75L1386.09 205.823Z" stroke="black" stroke-width="2" mask="url(#path-4-outside-1_604:120)"/>
<path d="M1487.98 326.379C1473.81 358.627 1464.17 375.505 1453.32 375.505C1452.42 375.505 1451.21 375.204 1450.01 374.601V362.546C1450.01 352.6 1443.37 345.969 1433.73 345.969C1424.39 345.969 1418.36 351.997 1418.36 362.546C1418.36 377.916 1431.62 384.547 1444.88 384.547C1454.53 384.547 1462.96 380.026 1469.9 370.683C1477.13 361.34 1485.87 345.668 1495.82 323.666L1559.71 181.712L1579 175.986V172.972H1528.06V175.986L1553.08 181.712L1504.26 291.116L1454.83 181.712L1473.21 175.986V172.972H1404.5V175.986L1422.28 181.712L1487.98 326.379Z" stroke="black" stroke-width="2" mask="url(#path-4-outside-1_604:120)"/>
<path d="M1664.47 383.944V380.93L1637.34 375.204V317.036C1647.29 322.461 1659.04 325.173 1672.61 325.173C1718.72 325.173 1745.84 295.939 1745.84 245.004C1745.84 200.398 1725.65 171.766 1686.77 171.766C1667.18 171.766 1650.61 178.698 1637.34 192.562L1636.44 191.658L1637.34 175.082L1633.43 170.862L1587.92 175.685V179L1606 182.918V375.204L1587.92 380.93V383.944H1664.47ZM1637.34 199.193C1646.69 188.041 1658.14 182.315 1671.7 182.315C1684.66 182.315 1694.91 188.644 1702.44 201.001C1709.98 213.358 1713.9 229.633 1713.9 249.826C1713.9 294.733 1697.02 320.652 1666.88 320.652C1657.54 320.652 1647.59 317.94 1637.34 312.515V199.193Z" stroke="black" stroke-width="2" mask="url(#path-4-outside-1_604:120)"/>
<path d="M1867.92 305.583C1869.42 317.94 1876.66 324.269 1890.22 324.269C1903.18 324.269 1912.22 321.557 1917.65 316.132L1915.54 314.022C1913.43 316.132 1910.11 317.337 1905.59 317.337C1900.77 317.337 1898.36 314.926 1898.36 309.802V217.879C1898.36 191.055 1875.15 172.068 1836.27 172.068C1820.3 172.068 1806.13 175.383 1794.38 182.315C1782.62 188.946 1776.9 197.987 1776.9 209.139C1776.9 221.194 1784.43 228.126 1794.98 228.126C1805.83 228.126 1813.36 220.29 1813.36 208.235V183.822C1820.3 179.301 1827.53 176.89 1835.67 176.89C1855.26 176.89 1867.01 190.754 1867.01 212.153V240.483H1866.41H1866.11L1865.81 240.784H1865.5H1865.2H1864.9H1864.6H1864.3L1864 241.086H1863.7H1863.4H1863.09H1862.79H1862.49L1862.19 241.387C1828.74 246.812 1806.73 251.936 1796.19 256.457C1780.21 263.389 1772.38 274.841 1772.38 290.514C1772.38 312.214 1785.64 325.475 1813.06 325.475C1834.16 325.475 1852.24 318.543 1867.01 304.679L1867.92 305.583ZM1867.01 297.747C1856.16 309.2 1843.5 314.926 1829.34 314.926C1813.67 314.926 1804.32 304.98 1804.32 286.596C1804.32 271.828 1809.45 261.58 1819.39 256.155C1826.02 252.539 1841.09 248.922 1864.3 245.305H1864.6H1864.9H1865.2H1865.5H1865.81L1866.11 245.004H1866.41H1866.71H1867.01V297.747Z" stroke="black" stroke-width="2" mask="url(#path-4-outside-1_604:120)"/>
<path d="M1164.41 140.322C1160.7 139.173 1157.17 137.637 1153.93 135.638C1141.96 144.559 1132.81 156.947 1128.06 171.169C1123 186.305 1123.12 203.026 1128.35 218.083C1130.79 225.076 1134.3 231.674 1138.7 237.617C1143.43 243.997 1148.84 250.257 1154.74 255.606C1165.64 265.492 1179.47 271.931 1194.07 273.853C1224.2 277.815 1254.32 262.164 1268.34 235.18C1275.42 221.59 1277.97 205.859 1275.69 190.703C1273.44 175.686 1266.4 162.768 1256.58 151.396C1251.37 145.374 1246.08 139.589 1239.58 134.933C1233.55 130.614 1226.88 127.226 1219.85 124.928C1203.76 119.658 1185.91 120.232 1170.18 126.533C1165.9 128.256 1161.68 130.475 1157.77 132.952C1156.46 133.808 1155.18 134.704 1153.93 135.638C1157.17 137.637 1160.7 139.173 1164.41 140.322C1191.22 123.323 1226.72 125.582 1250.91 146.186C1252.14 147.236 1253.33 148.326 1254.5 149.455C1254.75 149.698 1254.99 149.944 1255.24 150.191C1254.83 149.679 1254.36 149.082 1253.83 148.39C1254.08 148.705 1254.34 149.021 1254.59 149.336C1254.84 149.651 1255.09 149.967 1255.33 150.285C1255.77 150.732 1256.2 151.183 1256.64 151.634C1257.79 152.819 1258.58 154.364 1255.63 150.692C1257.46 153.139 1259.13 155.695 1260.62 158.35C1264.08 164.472 1266.64 171.089 1268.21 177.944C1271.4 191.951 1270.37 206.83 1265.21 220.242C1255.07 246.711 1229.65 265.294 1201.34 266.899C1187.14 267.711 1172.81 264.304 1160.53 257.132C1154.94 253.864 1149.99 249.872 1145.41 245.358C1145.69 245.743 1145.99 246.122 1146.28 246.493C1146.56 246.83 1146.86 247.147 1147.1 247.503C1147.49 248.078 1142.12 242.055 1144.24 244.195C1144.63 244.586 1145.02 244.974 1145.41 245.358C1145.08 244.922 1144.76 244.479 1144.44 244.036C1143.43 242.63 1142.48 241.183 1141.57 239.717C1139.75 236.746 1138.14 233.655 1136.75 230.465C1124.51 202.055 1132.06 168.078 1155.08 147.434C1157.95 144.858 1161.18 142.441 1164.41 140.322Z" fill="#DE1919"/>
<path d="M1129.62 82.7569C1128.79 87.9451 1129.01 93.4299 1129.72 98.598C1130.39 103.452 1131.68 108.246 1133.76 112.704C1136.71 119.004 1141.51 124.135 1146.15 129.227C1148.45 131.759 1151.08 133.878 1153.93 135.638C1155.18 134.704 1156.46 133.808 1157.77 132.952C1152.35 131.289 1147.25 128.725 1142.96 125.002C1143.31 125.542 1143.68 126.072 1144.06 126.592C1144.32 126.949 1144.62 127.285 1144.86 127.642C1145.43 128.494 1139.35 121.56 1140.78 122.927C1141.31 123.442 1141.81 123.957 1142.34 124.452C1142.55 124.638 1142.75 124.822 1142.96 125.002C1142.6 124.453 1142.26 123.893 1141.93 123.323C1140.78 121.382 1139.81 119.321 1139.01 117.201C1136.32 110.148 1135.39 102.461 1135.7 94.9526C1135.76 93.3677 1135.86 91.7827 1136.12 90.2176C1136.22 89.5638 1133.37 86.9684 1132.91 86.4533C1132.46 85.9404 1129.53 83.4236 1129.62 82.7569Z" fill="#DE1919"/>
<path d="M125.144 347.142C125.102 347.155 125.06 347.168 125.018 347.182C100.047 355.069 79.1991 372.393 65.3973 394.451C55.4702 410.316 48.6761 428.185 44.7235 446.436C43.922 450.097 43.1934 453.813 42.7745 457.547C42.7016 458.203 45.2699 460.498 45.7253 461.008C46.4356 461.809 47.1278 462.629 47.8564 463.43C47.9839 463.576 48.7671 464.268 48.7489 464.414C49.8965 453.886 52.8291 443.358 56.2717 433.376C63.5394 412.283 74.8872 392.174 91.3534 376.892C102.55 366.496 115.93 358.794 130.494 354.203C130.501 354.201 130.508 354.198 130.515 354.196C130.787 354.214 128.275 350.915 128.002 350.605C127.71 350.259 125.545 347.014 125.144 347.142Z" fill="#DE1919"/>
<path d="M179.476 241.259C150.606 241.387 124.395 260.367 115.633 287.98C111.244 301.842 111.517 317.069 116.417 330.767C118.509 336.616 121.421 342.137 125.018 347.182C125.06 347.168 125.102 347.155 125.144 347.142C125.545 347.014 127.71 350.259 128.002 350.605C128.275 350.915 130.787 354.214 130.515 354.196C130.508 354.198 130.501 354.201 130.494 354.203C133.91 358.303 137.609 362.236 141.589 365.685C163.52 384.737 196.325 387.306 220.951 371.878C245.614 356.432 257.654 325.922 250.15 297.78C246.288 283.281 237.235 271.223 226.726 260.767C216.817 250.931 203.957 244.301 190.15 242.097C186.635 241.532 183.065 241.277 179.476 241.259C179.824 241.259 180.819 242.561 181.572 243.581C181.893 243.95 182.213 244.319 182.536 244.684C182.665 244.836 182.981 245.276 183.365 245.792C183.757 246.244 184.152 246.696 184.558 247.143C184.704 247.307 185.269 248.126 185.451 248.126C198.984 248.181 212.281 252.243 223.447 259.948C226.143 261.806 228.693 263.864 231.097 266.086C231.753 266.69 232.376 267.31 233.012 267.947C232.951 267.867 232.889 267.787 232.827 267.707C232.154 266.851 229.84 264.137 233.046 267.816C236.234 271.496 233.884 268.837 233.119 268.053C233.083 268.018 233.048 267.982 233.012 267.947C233.582 268.69 234.123 269.448 234.649 270.221C238.401 275.667 241.352 281.66 243.356 287.98C251.625 314.137 242.718 343.39 221.316 360.512C199.895 377.67 169.185 379.874 145.542 365.922C142.719 364.264 140.023 362.388 137.473 360.33C136.325 359.401 135.196 358.417 134.103 357.415C129.625 352.296 125.797 346.213 123.284 339.893C118.202 327.16 117.182 312.916 120.351 299.565C126.562 273.336 148.784 252.899 175.433 248.891C178.766 248.381 182.117 248.163 185.487 248.144C185.148 248.144 184.125 246.816 183.365 245.792C183.052 245.433 182.742 245.075 182.427 244.72C182.29 244.564 181.964 244.111 181.572 243.581C181.188 243.14 180.802 242.698 180.405 242.261C180.241 242.079 179.677 241.259 179.476 241.259Z" fill="#DE1919"/>
</svg>
