<svg width="1392" height="465" viewBox="0 0 1392 465" fill="none" xmlns="http://www.w3.org/2000/svg">
<path d="M108.996 112.502L20.6888 314.734L0.194336 320.461V323.475H53.8415V320.461L27.3193 314.734L53.8415 253.552H144.861L170.178 314.734L150.286 320.461V323.475H222.921V320.461L203.632 314.734L118.941 112.502H108.996ZM142.148 247.223H56.554L100.557 145.655L142.148 247.223Z" fill="black"/>
<path d="M307.575 383.752V380.738L280.451 375.012V316.844C290.396 322.269 302.15 324.981 315.713 324.981C361.825 324.981 388.95 295.747 388.95 244.812C388.95 200.207 368.757 171.575 329.878 171.575C310.288 171.575 293.712 178.507 280.451 192.37L279.546 191.466L280.451 174.89L276.532 170.67L231.023 175.493V178.808L249.106 182.726V375.012L231.023 380.738V383.752H307.575ZM280.451 199.001C289.794 187.85 301.246 182.123 314.809 182.123C327.769 182.123 338.016 188.452 345.55 200.809C353.085 213.166 357.003 229.441 357.003 249.634C357.003 294.541 340.125 320.461 309.987 320.461C300.644 320.461 290.698 317.748 280.451 312.323V199.001Z" fill="black"/>
<path d="M492.913 320.461V323.475H561.027V320.461L543.848 314.734L490.502 242.401L536.614 181.52L556.205 175.794V172.78H505.27V175.794L529.381 181.52L486.584 237.579L445.294 181.52L463.377 175.794V172.78H395.564V175.794L412.744 181.52L462.774 250.237L413.949 314.734L394.058 320.461V323.475H444.992V320.461L420.881 314.734L466.692 255.059L511.298 314.734L492.913 320.461Z" fill="black"/>
<path d="M571.262 323.475H636.664V320.461L620.69 314.734V309.309L694.229 200.508L695.133 201.412L694.229 224.619V314.734L678.255 320.461V323.475H743.657V320.461L725.573 314.734V181.52L743.657 175.794V172.78H678.255V175.794L694.229 181.52V186.945L620.69 295.747L619.786 294.843L620.69 271.636V181.52L636.664 175.794V172.78H571.262V175.794L589.346 181.52V314.734L571.262 320.461V323.475Z" fill="black"/>
<path d="M896.868 205.632H901.992V172.78H759.435V205.632H764.257L773.6 178.808H814.89V314.734L796.807 320.461V323.475H864.318V320.461L846.235 314.734V178.808H887.525L896.868 205.632Z" fill="black"/>
<path d="M1056.24 244.209C1057.14 240.894 1057.75 236.976 1057.75 232.154C1057.75 214.372 1051.42 199.604 1038.76 188.452C1026.1 177.301 1009.83 171.575 990.235 171.575C968.234 171.575 949.849 178.808 935.684 192.973C921.518 207.139 914.586 226.126 914.586 249.936C914.586 294.541 941.711 324.981 992.345 324.981C1017.06 324.981 1037.25 317.145 1052.92 301.473L1049.61 297.856C1037.85 309.611 1023.09 315.638 1005.3 315.638C966.727 315.638 946.835 291.226 946.835 248.127H1052.02L1056.24 244.209ZM991.44 176.095C1014.04 176.095 1027 197.795 1027 239.086L946.835 243.607C948.04 199.905 967.631 176.095 991.44 176.095Z" fill="black"/>
<path d="M1191.75 194.179C1191.75 204.125 1198.68 210.755 1208.63 210.755C1218.27 210.755 1224.6 204.727 1224.6 193.576C1224.6 178.205 1212.85 171.273 1197.47 171.273C1179.99 171.273 1169.14 181.822 1164.62 202.919L1161.31 218.591C1157.69 233.962 1145.03 243.607 1126.05 243.607V181.52L1144.13 175.794V172.78H1076.62V175.794L1094.7 181.52V314.734L1076.62 320.461V323.475H1143.22V320.461L1126.05 314.734V248.429H1141.42C1162.21 248.429 1170.35 256.265 1175.17 275.554L1179.39 293.938C1185.12 315.638 1190.84 324.981 1209.83 324.981C1221.59 324.981 1230.63 321.968 1236.35 316.241L1233.94 314.131C1230.93 316.241 1227.92 317.447 1224.9 317.447C1217.37 317.447 1214.35 310.515 1209.83 292.431L1206.22 276.759C1200.49 252.95 1186.62 243.908 1153.77 243.908H1148.35C1158.6 239.387 1165.23 230.948 1167.94 218.591L1171.56 202.618C1174.87 187.85 1180.6 180.315 1188.43 180.315C1189.64 180.315 1190.84 180.616 1191.75 181.219V194.179Z" fill="black"/>
<path d="M1385.74 205.632H1390.87V172.78H1248.31V205.632H1253.13L1262.47 178.808H1303.76V314.734L1285.68 320.461V323.475H1353.19V320.461L1335.11 314.734V178.808H1376.4L1385.74 205.632Z" fill="black"/>
<mask id="path-2-outside-1_622:16" maskUnits="userSpaceOnUse" x="229.908" y="168.67" width="1162" height="217" fill="black">
<rect fill="white" x="229.908" y="168.67" width="1162" height="217"/>
<path d="M307.46 383.752V380.738L280.335 375.012V316.844C290.281 322.269 302.035 324.981 315.598 324.981C361.71 324.981 388.835 295.747 388.835 244.812C388.835 200.207 368.642 171.575 329.763 171.575C310.173 171.575 293.597 178.507 280.335 192.37L279.431 191.466L280.335 174.89L276.417 170.67L230.908 175.493V178.808L248.991 182.726V375.012L230.908 380.738V383.752H307.46ZM280.335 199.001C289.679 187.85 301.131 182.123 314.694 182.123C327.653 182.123 337.901 188.452 345.435 200.809C352.97 213.166 356.888 229.441 356.888 249.634C356.888 294.541 340.01 320.461 309.872 320.461C300.528 320.461 290.583 317.748 280.335 312.323V199.001Z"/>
<path d="M492.798 320.461V323.474H560.912V320.461L543.733 314.734L490.387 242.401L536.499 181.52L556.09 175.794V172.78H505.155V175.794L529.266 181.52L486.469 237.579L445.179 181.52L463.262 175.794V172.78H395.449V175.794L412.629 181.52L462.659 250.237L413.834 314.734L393.943 320.461V323.474H444.877V320.461L420.766 314.734L466.577 255.059L511.183 314.734L492.798 320.461Z"/>
<path d="M571.147 323.474H636.549V320.461L620.575 314.734V309.309L694.114 200.508L695.018 201.412L694.114 224.619V314.734L678.14 320.461V323.474H743.542V320.461L725.458 314.734V181.52L743.542 175.794V172.78H678.14V175.794L694.114 181.52V186.945L620.575 295.747L619.671 294.843L620.575 271.636V181.52L636.549 175.794V172.78H571.147V175.794L589.231 181.52V314.734L571.147 320.461V323.474Z"/>
<path d="M896.753 205.632H901.877V172.78H759.32V205.632H764.142L773.485 178.808H814.775V314.734L796.692 320.461V323.474H864.203V320.461L846.12 314.734V178.808H887.41L896.753 205.632Z"/>
<path d="M1385.63 205.632H1390.75V172.78H1248.19V205.632H1253.02L1262.36 178.808H1303.65V314.734L1285.57 320.461V323.474H1353.08V320.461L1334.99 314.734V178.808H1376.28L1385.63 205.632Z"/>
</mask>
<path d="M307.46 383.752V380.738L280.335 375.012V316.844C290.281 322.269 302.035 324.981 315.598 324.981C361.71 324.981 388.835 295.747 388.835 244.812C388.835 200.207 368.642 171.575 329.763 171.575C310.173 171.575 293.597 178.507 280.335 192.37L279.431 191.466L280.335 174.89L276.417 170.67L230.908 175.493V178.808L248.991 182.726V375.012L230.908 380.738V383.752H307.46ZM280.335 199.001C289.679 187.85 301.131 182.123 314.694 182.123C327.653 182.123 337.901 188.452 345.435 200.809C352.97 213.166 356.888 229.441 356.888 249.634C356.888 294.541 340.01 320.461 309.872 320.461C300.528 320.461 290.583 317.748 280.335 312.323V199.001Z" fill="#ECE9E7"/>
<path d="M492.798 320.461V323.474H560.912V320.461L543.733 314.734L490.387 242.401L536.499 181.52L556.09 175.794V172.78H505.155V175.794L529.266 181.52L486.469 237.579L445.179 181.52L463.262 175.794V172.78H395.449V175.794L412.629 181.52L462.659 250.237L413.834 314.734L393.943 320.461V323.474H444.877V320.461L420.766 314.734L466.577 255.059L511.183 314.734L492.798 320.461Z" fill="#ECE9E7"/>
<path d="M571.147 323.474H636.549V320.461L620.575 314.734V309.309L694.114 200.508L695.018 201.412L694.114 224.619V314.734L678.14 320.461V323.474H743.542V320.461L725.458 314.734V181.52L743.542 175.794V172.78H678.14V175.794L694.114 181.52V186.945L620.575 295.747L619.671 294.843L620.575 271.636V181.52L636.549 175.794V172.78H571.147V175.794L589.231 181.52V314.734L571.147 320.461V323.474Z" fill="#ECE9E7"/>
<path d="M896.753 205.632H901.877V172.78H759.32V205.632H764.142L773.485 178.808H814.775V314.734L796.692 320.461V323.474H864.203V320.461L846.12 314.734V178.808H887.41L896.753 205.632Z" fill="#ECE9E7"/>
<path d="M1385.63 205.632H1390.75V172.78H1248.19V205.632H1253.02L1262.36 178.808H1303.65V314.734L1285.57 320.461V323.474H1353.08V320.461L1334.99 314.734V178.808H1376.28L1385.63 205.632Z" fill="#ECE9E7"/>
<path d="M307.46 383.752V380.738L280.335 375.012V316.844C290.281 322.269 302.035 324.981 315.598 324.981C361.71 324.981 388.835 295.747 388.835 244.812C388.835 200.207 368.642 171.575 329.763 171.575C310.173 171.575 293.597 178.507 280.335 192.37L279.431 191.466L280.335 174.89L276.417 170.67L230.908 175.493V178.808L248.991 182.726V375.012L230.908 380.738V383.752H307.46ZM280.335 199.001C289.679 187.85 301.131 182.123 314.694 182.123C327.653 182.123 337.901 188.452 345.435 200.809C352.97 213.166 356.888 229.441 356.888 249.634C356.888 294.541 340.01 320.461 309.872 320.461C300.528 320.461 290.583 317.748 280.335 312.323V199.001Z" stroke="black" stroke-width="2" mask="url(#path-2-outside-1_622:16)"/>
<path d="M492.798 320.461V323.474H560.912V320.461L543.733 314.734L490.387 242.401L536.499 181.52L556.09 175.794V172.78H505.155V175.794L529.266 181.52L486.469 237.579L445.179 181.52L463.262 175.794V172.78H395.449V175.794L412.629 181.52L462.659 250.237L413.834 314.734L393.943 320.461V323.474H444.877V320.461L420.766 314.734L466.577 255.059L511.183 314.734L492.798 320.461Z" stroke="black" stroke-width="2" mask="url(#path-2-outside-1_622:16)"/>
<path d="M571.147 323.474H636.549V320.461L620.575 314.734V309.309L694.114 200.508L695.018 201.412L694.114 224.619V314.734L678.14 320.461V323.474H743.542V320.461L725.458 314.734V181.52L743.542 175.794V172.78H678.14V175.794L694.114 181.52V186.945L620.575 295.747L619.671 294.843L620.575 271.636V181.52L636.549 175.794V172.78H571.147V175.794L589.231 181.52V314.734L571.147 320.461V323.474Z" stroke="black" stroke-width="2" mask="url(#path-2-outside-1_622:16)"/>
<path d="M896.753 205.632H901.877V172.78H759.32V205.632H764.142L773.485 178.808H814.775V314.734L796.692 320.461V323.474H864.203V320.461L846.12 314.734V178.808H887.41L896.753 205.632Z" stroke="black" stroke-width="2" mask="url(#path-2-outside-1_622:16)"/>
<path d="M1385.63 205.632H1390.75V172.78H1248.19V205.632H1253.02L1262.36 178.808H1303.65V314.734L1285.57 320.461V323.474H1353.08V320.461L1334.99 314.734V178.808H1376.28L1385.63 205.632Z" stroke="black" stroke-width="2" mask="url(#path-2-outside-1_622:16)"/>
<path d="M126.94 0.317383C118.761 12.9767 114.244 27.6032 114.044 42.6851C113.971 49.042 114.39 55.818 116.266 61.9381C116.266 61.9401 116.267 61.942 116.268 61.944C116.618 63.0725 118.453 64.5262 119.217 65.399C119.927 66.2004 120.619 67.0201 121.348 67.8215C121.566 68.0583 122.149 68.5137 122.24 68.8051C121.622 66.7815 121.162 64.6906 120.825 62.5689C120.141 58.2547 119.969 53.8133 120.018 49.5521C120.218 34.4702 130.049 13.3186 138.227 0.659274C138.355 0.458911 131.48 0.715735 130.74 0.706107C129.899 0.70162 126.83 0.481316 126.94 0.317383Z" fill="#DE1919"/>
<path fill-rule="evenodd" clip-rule="evenodd" d="M109.126 61.5739C80.2372 61.7014 54.026 80.6812 45.2829 108.295C40.8931 122.156 41.1664 137.384 46.0662 151.082C48.3794 157.548 51.6945 163.613 55.8293 169.078C60.383 175.089 65.5196 181.045 71.239 185.999C93.1697 205.034 125.956 207.62 150.583 192.174C175.246 176.728 187.286 146.218 179.781 118.076C175.92 103.577 166.867 91.519 156.357 81.0637C146.698 71.476 134.236 64.9343 120.825 62.5689C121.162 64.6906 121.622 66.7815 122.24 68.8051C122.149 68.5137 121.566 68.0583 121.348 67.8215C120.619 67.0201 119.927 66.2004 119.217 65.399C118.453 64.5262 116.618 63.0725 116.268 61.944C113.898 61.704 111.512 61.586 109.126 61.5739ZM115.1 68.4408C128.634 68.4955 141.931 72.5574 153.096 80.2623C155.792 82.1202 158.342 84.1785 160.747 86.4007C161.402 87.0046 162.025 87.6248 162.662 88.2614C162.601 88.1813 162.539 88.1015 162.477 88.0218C161.803 87.1657 159.49 84.4517 162.696 88.1311C165.883 91.8105 163.534 89.1511 162.769 88.3679C162.733 88.3323 162.698 88.2968 162.662 88.2614C163.231 89.0045 163.772 89.7626 164.299 90.5354C168.051 95.9817 171.002 101.974 173.005 108.295C181.275 134.451 172.368 163.704 150.965 180.826C129.545 197.985 98.8345 200.189 75.1917 186.236C72.3684 184.579 69.6726 182.702 67.1225 180.644C65.975 179.715 64.8456 178.732 63.7528 177.73C63.1329 177.159 62.5277 176.573 61.9371 175.986C62.324 176.51 62.7168 177.03 63.1152 177.548C62.5931 176.871 62.1423 176.294 61.7553 175.805C61.7472 175.797 61.739 175.789 61.7309 175.781C61.4577 175.508 61.1845 175.216 60.893 174.925C59.6613 173.644 58.6315 171.859 61.7553 175.805C61.8157 175.866 61.8763 175.926 61.9371 175.986C58.3089 171.08 55.2046 165.919 52.9331 160.207C47.8512 147.475 46.8312 133.231 50.0006 119.88C56.2118 93.6502 78.4339 73.2131 105.082 69.2059C108.416 68.6959 111.731 68.4591 115.1 68.4408Z" fill="#DE1919"/>
<path d="M899.701 92.4351C906.311 92.9699 912.903 94.1602 919.391 95.5058C933.233 98.4039 946.953 102.648 959.549 109.134C966.332 112.636 972.803 116.828 978.443 121.968C979.135 122.589 979.81 123.245 980.468 123.9C981.419 124.849 984.153 127.937 980.641 123.9C977.146 119.898 979.793 122.969 980.589 124.038C981.194 124.849 981.783 125.677 982.336 126.54C984.43 129.731 986.177 133.164 987.492 136.752C990.728 145.602 990.52 154.658 990.503 163.939C990.486 174.652 990.468 185.382 990.434 196.094C990.382 215.018 990.313 233.96 990.313 252.883C990.313 264.217 990.33 275.568 990.347 286.902C990.382 301.082 990.157 315.296 990.555 329.476C991.022 346.416 995.918 362.822 1006.97 375.898C1012.58 382.539 1018.29 388.836 1025.49 393.77C1031.11 397.616 1037.25 400.67 1043.64 403.068C1055.28 407.432 1067.67 409.675 1080.04 410.52C1087.22 411.02 1094.47 411.106 1101.63 410.503C1101.98 410.468 1102.33 410.451 1102.67 410.399C1102.29 410.434 1100.2 407.484 1099.87 407.122C1099.49 406.69 1097.57 403.827 1097 403.896C1091.91 404.448 1086.74 404.465 1081.65 404.344C1070.06 404.068 1058.43 402.636 1047.24 399.549C1034.02 395.926 1021.23 389.854 1011.23 380.349C1010.59 379.745 1009.97 379.124 1009.36 378.485C1009.05 378.175 1008.76 377.847 1008.46 377.537C1006.68 375.674 1013.22 383.195 1011.21 380.659C1010 379.141 1008.84 377.571 1007.77 375.95C1005.64 372.741 1003.83 369.325 1002.3 365.772C998.791 357.526 996.974 348.625 996.403 339.706C995.953 332.857 996.161 325.974 996.126 319.109C996.091 312.122 996.074 305.136 996.04 298.132C996.005 286.47 995.988 274.809 995.988 263.148C995.988 244.137 996.057 225.127 996.109 206.134C996.143 195.663 996.161 185.192 996.178 174.721C996.195 165.078 996.887 155.279 994.067 145.929C991.766 138.305 987.562 131.784 982.388 125.798C976.678 119.174 970.848 113.153 963.546 108.271C951.193 100.077 936.987 94.7985 922.679 91.1068C913.751 88.7952 904.598 87.0184 895.411 86.0696C894.943 86.0179 894.494 85.9661 894.026 85.9316C894.597 85.9834 896.414 88.7262 896.829 89.2093C897.504 89.9683 898.162 90.7446 898.854 91.5036C898.992 91.6761 899.494 92.4179 899.701 92.4351Z" fill="#DE1919"/>
<path d="M1163.94 140.13C1160.24 138.981 1156.7 137.445 1153.46 135.446C1141.5 144.367 1132.34 156.755 1127.59 170.977C1122.54 186.113 1122.66 202.834 1127.89 217.891C1130.32 224.884 1133.83 231.482 1138.23 237.425C1142.96 243.805 1148.37 250.065 1154.28 255.414C1165.17 265.301 1179 271.739 1193.6 273.661C1223.74 277.623 1253.85 261.972 1267.88 234.989C1274.95 221.398 1277.51 205.667 1275.23 190.511C1272.97 175.494 1265.94 162.576 1256.11 151.204C1250.9 145.182 1245.61 139.397 1239.11 134.741C1233.09 130.422 1226.41 127.034 1219.38 124.736C1203.29 119.466 1185.44 120.041 1169.71 126.341C1165.43 128.064 1161.21 130.283 1157.31 132.76C1156 133.616 1154.71 134.512 1153.46 135.446C1156.7 137.445 1160.24 138.981 1163.94 140.13C1190.75 123.131 1226.25 125.39 1250.44 145.994C1251.67 147.044 1252.86 148.134 1254.03 149.263C1254.28 149.506 1254.52 149.752 1254.77 150C1254.36 149.487 1253.9 148.89 1253.37 148.198C1253.61 148.513 1253.87 148.829 1254.13 149.144C1254.37 149.459 1254.62 149.775 1254.86 150.094C1255.3 150.54 1255.73 150.991 1256.17 151.442C1257.32 152.627 1258.11 154.172 1255.17 150.501C1257 152.947 1258.66 155.503 1260.15 158.158C1263.62 164.28 1266.17 170.897 1267.74 177.752C1270.93 191.759 1269.9 206.638 1264.75 220.05C1254.6 246.519 1229.19 265.102 1200.87 266.707C1186.67 267.519 1172.35 264.112 1160.06 256.94C1154.47 253.672 1149.53 249.68 1144.94 245.167C1145.23 245.551 1145.52 245.93 1145.82 246.301C1146.09 246.638 1146.39 246.955 1146.63 247.311C1147.03 247.886 1141.66 241.863 1143.78 244.003C1144.16 244.394 1144.55 244.782 1144.94 245.167C1144.61 244.73 1144.29 244.287 1143.97 243.844C1142.96 242.438 1142.01 240.991 1141.1 239.525C1139.28 236.554 1137.67 233.463 1136.29 230.273C1124.04 201.863 1131.59 167.886 1154.61 147.242C1157.49 144.667 1160.72 142.25 1163.94 140.13Z" fill="#DE1919"/>
<path d="M1129.15 82.565C1128.32 87.7532 1128.54 93.238 1129.25 98.4061C1129.93 103.26 1131.22 108.054 1133.3 112.512C1136.25 118.812 1141.04 123.943 1145.68 129.035C1147.99 131.567 1150.61 133.686 1153.46 135.446C1154.71 134.512 1156 133.616 1157.31 132.76C1151.89 131.097 1146.79 128.533 1142.49 124.811C1142.85 125.35 1143.22 125.88 1143.6 126.4C1143.86 126.757 1144.15 127.094 1144.39 127.45C1144.97 128.302 1138.88 121.368 1140.31 122.735C1140.84 123.25 1141.34 123.765 1141.87 124.26C1142.08 124.447 1142.29 124.63 1142.49 124.811C1142.13 124.261 1141.79 123.701 1141.46 123.131C1140.31 121.19 1139.34 119.129 1138.55 117.009C1135.85 109.956 1134.92 102.269 1135.24 94.7607C1135.3 93.1758 1135.4 91.5908 1135.65 90.0257C1135.75 89.3719 1132.9 86.7766 1132.44 86.2614C1131.99 85.7485 1129.06 83.2317 1129.15 82.565Z" fill="#DE1919"/>
<path d="M124.679 346.95C124.637 346.963 124.595 346.976 124.553 346.99C99.5813 354.877 78.7338 372.201 64.9319 394.259C55.0049 410.124 48.2107 427.993 44.2581 446.244C43.4567 449.905 42.7281 453.621 42.3091 457.355C42.2363 458.011 44.8046 460.306 45.2599 460.816C45.9703 461.617 46.6625 462.437 47.3911 463.238C47.5186 463.384 48.3018 464.076 48.2836 464.222C49.4311 453.694 52.3637 443.166 55.8063 433.184C63.074 412.091 74.4219 391.982 90.8881 376.7C102.085 366.304 115.465 358.602 130.028 354.011C130.036 354.009 130.043 354.006 130.05 354.004C130.322 354.022 127.81 350.723 127.536 350.413C127.245 350.067 125.079 346.823 124.679 346.95Z" fill="#DE1919"/>
<path d="M179.011 241.067C150.14 241.195 123.929 260.175 115.168 287.788C110.778 301.65 111.051 316.877 115.951 330.575C118.044 336.424 120.956 341.945 124.553 346.99C124.595 346.976 124.637 346.963 124.679 346.95C125.079 346.823 127.245 350.067 127.536 350.413C127.81 350.723 130.322 354.022 130.05 354.004C130.043 354.006 130.036 354.009 130.028 354.011C133.445 358.111 137.143 362.044 141.124 365.493C163.055 384.546 195.86 387.114 220.486 371.686C245.149 356.24 257.189 325.73 249.684 297.588C245.823 283.089 236.77 271.031 226.26 260.575C216.351 250.739 203.492 244.109 189.685 241.905C186.169 241.341 182.599 241.086 179.011 241.067C179.359 241.067 180.353 242.369 181.107 243.389C181.428 243.758 181.748 244.127 182.071 244.492C182.199 244.644 182.516 245.084 182.899 245.6C183.292 246.052 183.687 246.504 184.093 246.951C184.239 247.115 184.803 247.934 184.985 247.934C198.519 247.989 211.816 252.051 222.982 259.756C225.677 261.614 228.227 263.672 230.632 265.894C231.287 266.498 231.91 267.118 232.547 267.755C232.486 267.675 232.424 267.595 232.362 267.515C231.688 266.659 229.375 263.945 232.581 267.625C235.768 271.304 233.419 268.645 232.654 267.861C232.618 267.826 232.583 267.79 232.547 267.755C233.116 268.498 233.657 269.256 234.184 270.029C237.936 275.475 240.887 281.468 242.89 287.788C251.16 313.945 242.253 343.198 220.85 360.32C199.43 377.478 168.72 379.682 145.077 365.73C142.253 364.072 139.558 362.196 137.008 360.138C135.86 359.209 134.731 358.225 133.638 357.223C129.16 352.104 125.332 346.021 122.818 339.701C117.736 326.969 116.716 312.725 119.886 299.373C126.097 273.144 148.319 252.707 174.967 248.699C178.301 248.189 181.652 247.971 185.022 247.953C184.683 247.953 183.66 246.624 182.899 245.6C182.587 245.241 182.276 244.883 181.962 244.528C181.825 244.373 181.498 243.919 181.107 243.389C180.723 242.948 180.337 242.506 179.94 242.069C179.776 241.887 179.211 241.067 179.011 241.067Z" fill="#DE1919"/>
</svg>
