<svg width="48" height="58" viewBox="0 0 48 58" fill="none" xmlns="http://www.w3.org/2000/svg">
<path d="M25.6654 25.0178H15.133V3.71645H36.4524L39.9451 11.5371L40.0773 11.8332H40.4016H41.7413H42.2413V11.3332V1.64038V1.14038H41.7413H1H0.5V1.64038V2.34961V2.74737L0.88757 2.83681L5.62221 3.92941V54.5195L0.88049 55.6867L0.5 55.7804V56.1722V56.8027V57.3027H1H25.6654C31.9643 57.3027 37.1203 55.8673 41.0114 53.0301L41.0129 53.029C45.0066 50.0948 46.9695 46.0817 46.9695 41.1208C46.9695 36.162 45.0079 32.1458 41.0095 29.2889C37.1186 26.4526 31.9632 25.0178 25.6654 25.0178ZM15.133 27.5938H24.0893C28.1291 27.5938 31.4184 28.7849 33.6968 31.0351C35.9736 33.2839 37.3011 36.6501 37.3011 41.1208C37.3011 45.5917 35.9735 48.9785 33.6953 51.2474C31.4162 53.5171 28.1269 54.7266 24.0893 54.7266H15.133V27.5938Z" stroke="black" stroke-opacity="0.2"/>
</svg>
