<svg width="1251" height="630" viewBox="0 0 1251 630" fill="none" xmlns="http://www.w3.org/2000/svg">
<path d="M1088.43 469.026L1088.55 469.356H1088.9H1095.43H1095.93V468.856V424.38V423.88H1095.43H928.947H928.447V424.38V428.053V428.443L928.826 428.538L952.929 434.564V616.199L928.796 623.841L928.447 623.952V624.318V628.398V628.898H928.947H1032.59H1033.09V628.398V624.318V623.912L1032.69 623.829L996.365 616.16V433.041H1075.49L1088.43 469.026Z" stroke="#A5A3A2"/>
<path d="M186.435 180.866H104.039V14.0794H269.598L296.703 74.8504L296.835 75.1467H297.16H307.225H307.725V74.6467V1.72168V1.22168H307.225H1.10352H0.603516V1.72168V7.05766V7.4553L0.990946 7.54482L39.0908 16.3486V402.121L0.983859 411.514L0.603516 411.607V411.999V416.742V417.242H1.10352H186.435C233.285 417.242 271.293 406.553 299.823 385.723L299.824 385.722C328.97 364.281 343.252 335.077 343.252 298.758C343.252 262.44 328.971 233.234 299.821 212.384C271.291 191.555 233.284 180.866 186.435 180.866ZM104.039 193.724H174.592C205.581 193.724 231.199 202.883 249.069 220.556C266.938 238.227 277.12 264.47 277.12 298.758C277.12 333.046 266.938 359.438 249.068 377.258C231.197 395.078 205.578 404.384 174.592 404.384H104.039V193.724Z" stroke="#A5A3A2"/>
<path d="M437.511 259.56L467.793 266.501L408.233 400.135L347.918 266.459L370.07 259.55L370.422 259.441V259.073V255.348V254.848H369.922H285.109H284.609V255.348V259.073V259.437L284.955 259.549L306.692 266.558L387.601 444.939C378.899 464.767 371.594 479.839 364.81 489.96C357.981 500.147 351.788 505.149 345.37 505.149C344.416 505.149 343.119 504.847 341.779 504.218V489.633C341.779 483.374 339.693 478.12 336.055 474.429C332.416 470.738 327.261 468.647 321.191 468.647C315.315 468.647 310.431 470.548 307.018 474.158C303.608 477.764 301.72 483.021 301.72 489.633C301.72 499.296 305.893 506.243 312.157 510.757C318.402 515.257 326.697 517.323 334.955 517.323C347.042 517.323 357.596 511.64 366.228 499.991C375.192 488.397 385.998 468.987 398.276 441.79L398.276 441.789L477.043 266.564L500.631 259.552L500.988 259.446V259.073V255.348V254.848H500.488H437.623H437.123V255.348V259.073V259.471L437.511 259.56Z" stroke="#A5A3A2"/>
<path d="M1028.42 119.768L1028.77 119.658V119.292V109.809V109.309H1028.27H885.263H884.938L884.806 109.606L721.425 478.403L558.989 109.607L558.858 109.309H558.532H413.633H413.133V109.809V119.292V119.658L413.482 119.768L469.938 137.669L449.139 557.977L392.647 575.889L392.298 576V576.366V583.952V584.452H392.798H523.491H523.991V583.952V576.366V576L523.642 575.889L467.188 557.988L486.947 180.181L667.933 584.156L668.065 584.452H668.389H695.854H696.18L696.311 584.154L873.505 182.114L892.321 556.092L835.866 573.992L835.517 574.103V574.469V583.952V584.452H836.017H1048.16H1048.66V583.952V574.469V574.103L1048.31 573.992L991.816 556.08L971.962 137.669L1028.42 119.768Z" stroke="#A5A3A2"/>
<path d="M865.403 130.5C839.475 130.5 816.449 135.888 797.326 147.18C778.174 157.999 768.775 172.807 768.775 191.098C768.775 200.975 771.86 208.806 777.153 214.169C782.447 219.531 789.902 222.379 798.552 222.379C807.461 222.379 815.04 219.155 820.388 213.426C825.734 207.699 828.818 199.508 828.818 189.632V150.327C839.901 143.139 851.449 139.318 864.427 139.318C880.16 139.318 892.703 144.888 901.319 154.721C909.942 164.563 914.675 178.726 914.675 195.984V241.412H913.711H913.504L913.357 241.558L913.016 241.9H910.783H910.576L910.429 242.047L910.088 242.389H907.855H907.648L907.502 242.536L907.128 242.91C853.06 251.694 817.433 259.998 800.307 267.348L800.305 267.349C787.309 272.996 777.59 280.499 771.121 289.814C764.65 299.132 761.456 310.228 761.456 323.019C761.456 340.712 766.858 355.033 777.908 364.922C788.949 374.804 805.554 380.196 827.83 380.196C861.939 380.196 891.221 369.025 915.163 346.679L916.163 347.68C917.413 357.697 920.984 365.344 927.05 370.489C933.147 375.659 941.695 378.242 952.748 378.242C973.779 378.242 988.582 373.838 997.506 364.903L997.858 364.55L997.506 364.196L994.09 360.776L993.736 360.422L993.382 360.776C990.091 364.072 984.87 366.004 977.633 366.004C973.807 366.004 971.033 365.047 969.209 363.163C967.383 361.277 966.422 358.373 966.422 354.289V205.267C966.422 183.365 956.954 164.653 939.57 151.429C922.198 138.214 896.952 130.5 865.403 130.5ZM913.223 250.229H913.43L913.577 250.083L913.918 249.741H914.675V334.546C897.222 352.928 876.902 362.095 854.18 362.095C841.603 362.095 831.625 358.103 824.787 350.474C817.941 342.837 814.179 331.49 814.179 316.667C814.179 292.847 822.423 276.438 838.317 267.758C843.624 264.859 852.353 261.94 864.483 259.01C876.595 256.085 892.06 253.158 910.822 250.229H913.223Z" stroke="#A5A3A2"/>
<path d="M1115.46 248.459C1089.2 248.459 1065.89 253.915 1046.52 265.35C1027.12 276.307 1017.61 291.302 1017.61 309.824C1017.61 319.827 1020.73 327.755 1026.09 333.185C1031.45 338.615 1039 341.499 1047.76 341.499C1056.78 341.499 1064.45 338.234 1069.87 332.433C1075.28 326.635 1078.4 318.341 1078.4 308.34V268.529C1089.63 261.247 1101.33 257.376 1114.48 257.376C1130.41 257.376 1143.12 263.018 1151.84 272.979C1160.58 282.948 1165.37 297.293 1165.37 314.772V360.787H1164.39H1164.18L1164.03 360.934L1163.69 361.282H1161.42H1161.22L1161.07 361.429L1160.72 361.777H1158.46H1158.25L1158.1 361.924L1157.72 362.304C1102.97 371.201 1066.88 379.611 1049.54 387.054L1049.54 387.055C1036.38 392.774 1026.53 400.373 1019.98 409.806C1013.43 419.241 1010.19 430.478 1010.19 443.431C1010.19 461.349 1015.67 475.85 1026.85 485.865C1038.03 495.872 1054.85 501.332 1077.41 501.332C1111.96 501.332 1141.61 490.018 1165.86 467.384L1166.88 468.405C1168.14 478.549 1171.76 486.293 1177.9 491.502C1184.08 496.738 1192.73 499.353 1203.92 499.353C1225.22 499.353 1240.21 494.893 1249.25 485.846L1249.6 485.492L1249.25 485.139L1245.79 481.675L1245.44 481.321L1245.08 481.675C1241.75 485.015 1236.46 486.972 1229.13 486.972C1225.25 486.972 1222.44 486.002 1220.59 484.093C1218.74 482.181 1217.77 479.237 1217.77 475.101V324.174C1217.77 301.995 1208.18 283.045 1190.57 269.653C1172.98 256.271 1147.41 248.459 1115.46 248.459ZM1163.89 369.705H1164.1L1164.25 369.558L1164.6 369.21H1165.37V455.108C1147.69 473.727 1127.11 483.013 1104.1 483.013C1091.36 483.013 1081.25 478.969 1074.32 471.241C1067.39 463.506 1063.58 452.011 1063.58 436.998C1063.58 412.872 1071.93 396.251 1088.03 387.458C1093.4 384.522 1102.25 381.565 1114.53 378.598C1126.8 375.635 1142.46 372.671 1161.46 369.705H1163.89Z" stroke="#A5A3A2"/>
</svg>
