<svg width="407" height="152" viewBox="0 0 407 152" fill="none" xmlns="http://www.w3.org/2000/svg">
<path d="M20.3007 41.9692H12.2966V73.8226H0.552734V1.34619H12.2966V30.3744H20.3007V1.34619H32.0446V73.8178H20.3007V41.9692Z" fill="white"/>
<path d="M52.1011 74.5989H49.8121C40.4603 74.5989 35.4707 69.826 35.4707 60.8634V46.3518H47.1115V59.0169C47.1115 62.3291 48.2534 64.084 50.9592 64.084C53.7626 64.084 54.8017 62.3291 54.8017 57.8502V56.1966C54.8017 51.0331 54.2822 49.1818 50.023 44.0183L42.5385 35.051C37.5489 29.0149 36.0983 24.3384 36.0983 17.1307V14.7925C36.0983 5.14536 41.2937 0.666504 50.5425 0.666504H52.7287C62.3942 0.666504 66.1338 4.65842 66.1338 13.2304V25.1146H54.8068V14.6912C54.8068 12.2566 54.2873 10.4052 51.4838 10.4052C48.6804 10.4052 48.0528 12.0589 48.0528 15.4723V16.8367C48.0528 20.9298 48.8861 23.1668 52.8316 27.9398L60.316 36.9987C65.6143 43.4253 67.2758 47.128 67.2758 55.3095V57.6477C67.2758 68.2687 62.389 74.5989 52.1011 74.5989Z" fill="white"/>
<path d="M97.3115 1.34619V11.866H82.3424V30.8613H94.0862V41.868H82.3424V62.8111H97.9339V73.8178H70.5986V1.34619H97.3115Z" fill="white"/>
<path d="M129.637 60.1836H121.113L119.554 73.8226H109.055L118.515 1.34619H132.44L142.522 73.8178H131.195L129.637 60.1836ZM128.387 49.3697L125.269 22.5834L122.255 49.3697H128.387Z" fill="white"/>
<path d="M156.136 73.8178H144.393V1.34619H163.41C171.203 1.34619 175.154 4.46548 175.154 12.5457V25.4038C175.154 31.4447 172.139 33.7829 170.061 34.6556C172.659 35.7259 175.154 37.6736 175.154 42.5478V67.9698C175.154 70.8914 175.776 72.2558 176.296 73.3261V73.813H164.655C164.135 73.032 163.513 71.7688 163.513 67.8733V46.0576C163.513 42.8419 162.89 41.4775 159.151 41.4775H156.136V73.8178ZM156.136 31.1554H159.254C162.479 31.1554 163.513 29.2077 163.513 25.9919V15.8627C163.513 12.7434 162.787 11.1862 159.254 11.1862H156.136V31.1554Z" fill="white"/>
<path d="M198.856 11.866V73.8178H187.215V11.866H177.344V1.34619H208.732V11.866H198.856Z" fill="white"/>
<path d="M240.32 60.1836H231.796L230.238 73.8226H219.739L229.199 1.34619H243.123L253.206 73.8178H241.879L240.32 60.1836ZM239.075 49.3697L235.958 22.5834L232.943 49.3697H239.075Z" fill="white"/>
<path d="M265.679 1.34619L275.762 40.2144V1.34619H286.466V73.8178H276.904L265.679 32.1293V73.8178H255.078V1.34619H265.679Z" fill="white"/>
<path d="M290.835 1.34619H308.813C318.896 1.34619 322.013 6.70249 322.013 15.2745V59.3976C322.013 68.2637 318.479 73.8129 308.813 73.8129H290.835V1.34619ZM302.579 63.2979H305.382C308.916 63.2979 309.955 61.543 309.955 57.6476V16.8365C309.955 12.647 308.813 11.1862 305.902 11.1862H302.579V63.2979Z" fill="white"/>
<path d="M0.552734 76.9795H18.8102C29.049 76.9795 32.2147 82.419 32.2147 91.1241V135.933C32.2147 144.936 28.6258 150.572 18.8102 150.572H0.552734V76.9795ZM12.4788 139.893H15.3311C18.9199 139.893 19.9751 138.111 19.9751 134.155V92.7055C19.9751 88.4509 18.8154 86.9674 15.8587 86.9674H12.4788V139.893Z" fill="white"/>
<path d="M63.5638 76.9795V87.6626H48.3675V106.953H60.2936V118.131H48.3675V139.399H64.2011V150.577H36.4414V76.9795H63.5638Z" fill="white"/>
<path d="M83.1955 151.369H80.8709C71.3738 151.369 66.3066 146.522 66.3066 137.42V122.683H78.1283V135.545C78.1283 138.909 79.2881 140.691 82.0306 140.691C84.8776 140.691 85.9381 138.909 85.9381 134.36V132.681C85.9381 127.437 85.4105 125.557 81.0851 120.314L73.4843 111.212C68.4171 105.077 66.9387 100.328 66.9387 93.0085V90.6339C66.9387 80.8419 72.2149 76.2886 81.6075 76.2886H83.8224C93.6381 76.2886 97.4359 80.3425 97.4359 89.0476V101.116H85.9329V90.5311C85.9329 88.0586 85.4053 86.1785 82.553 86.1785C79.706 86.1785 79.0687 87.8579 79.0687 91.3243V92.7098C79.0687 96.8666 79.9149 99.1383 83.9217 103.985L91.5225 113.185C96.9031 119.711 98.5956 123.472 98.5956 131.78V134.155C98.6061 144.941 93.6486 151.369 83.1955 151.369Z" fill="white"/>
<path d="M113.906 150.577H101.98V76.9795H113.906V150.577Z" fill="white"/>
<path d="M129.424 151.57C122.461 151.57 118.026 145.734 118.026 138.116V92.1174C118.026 83.9068 121.406 76.2886 132.695 76.2886H135.019C147.792 76.2886 149.27 84.1026 149.27 92.8078V100.323H137.662V92.0195C137.662 88.7539 136.816 86.9717 133.865 86.9717C131.331 86.9717 130.171 88.7539 130.171 92.0195V135.051C130.171 138.512 131.65 140.294 134.074 140.294C137.135 140.294 138.509 138.316 138.509 135.545V117.146H133.128V105.87H149.803V150.581H143.048C142.944 150.184 141.993 146.527 141.042 143.359C140.196 145.832 136.189 151.57 130.171 151.57H129.424Z" fill="white"/>
<path d="M164.677 76.9795L174.916 116.451V76.9795H185.787V150.577H176.076L164.677 108.241V150.577H153.911V76.9795H164.677Z" fill="white"/>
<path d="M216.923 151.369H214.598C205.101 151.369 200.034 146.522 200.034 137.42V122.683H211.856V135.545C211.856 138.909 213.016 140.691 215.763 140.691C218.61 140.691 219.666 138.909 219.666 134.36V132.681C219.666 127.437 219.138 125.557 214.813 120.314L207.212 111.212C202.145 105.077 200.666 100.328 200.666 93.0085V90.6339C200.666 80.8419 205.942 76.2886 215.335 76.2886H217.555C227.371 76.2886 231.169 80.3425 231.169 89.0476V101.116H219.666V90.5311C219.666 88.0586 219.138 86.1785 216.291 86.1785C213.444 86.1785 212.807 87.8579 212.807 91.3243V92.7098C212.807 96.8666 213.653 99.1383 217.66 103.985L225.26 113.185C230.641 119.711 232.328 123.472 232.328 131.78V134.155C232.333 144.941 227.371 151.369 216.923 151.369Z" fill="white"/>
<path d="M255.233 135.643V118.532H266.951V135.545C266.951 143.457 264.208 151.472 252.7 151.472H250.062C238.031 151.472 235.393 143.359 235.393 135.942V91.0305C235.393 83.5151 238.877 76.2935 249.639 76.2935H252.381C265.467 76.2935 266.945 84.4062 266.945 91.6278V104.783H255.228V91.8237C255.228 88.6559 254.173 86.9766 251.216 86.9766C248.26 86.9766 247.523 88.558 247.523 91.8237V135.545C247.523 138.811 248.683 140.588 251.321 140.588C254.178 140.588 255.233 138.61 255.233 135.643Z" fill="white"/>
<path d="M290.801 118.233H282.673V150.582H270.747V76.9795H282.673V106.459H290.801V76.9795H302.727V150.577H290.801V118.233Z" fill="white"/>
<path d="M339.458 134.16C339.458 144.446 335.764 151.472 324.261 151.472H322.256C310.857 151.472 306.845 144.451 306.845 134.16V93.2043C306.845 83.0157 310.962 76.2886 322.146 76.2886H324.152C335.759 76.2886 339.452 83.0157 339.452 93.1064V134.16H339.458ZM327.323 92.6119C327.323 88.7539 325.949 86.9717 323.206 86.9717C320.145 86.9717 318.985 88.8518 318.985 92.6119V134.948C318.985 138.116 319.936 140.588 323.311 140.588C326.476 140.588 327.323 138.116 327.323 134.948V92.6119Z" fill="white"/>
<path d="M375.873 134.16C375.873 144.446 372.179 151.472 360.671 151.472H358.665C347.267 151.472 343.255 144.451 343.255 134.16V93.2043C343.255 83.0157 347.371 76.2886 358.561 76.2886H360.567C372.174 76.2886 375.867 83.0157 375.867 93.1064V134.16H375.873ZM363.732 92.6119C363.732 88.7539 362.358 86.9717 359.616 86.9717C356.555 86.9717 355.395 88.8518 355.395 92.6119V134.948C355.395 138.116 356.341 140.588 359.72 140.588C362.886 140.588 363.732 138.116 363.732 134.948V92.6119Z" fill="white"/>
<path d="M391.91 76.9795V139.198H406.474V150.572H379.984V76.9795H391.91Z" fill="white"/>
</svg>
