<svg width="830" height="58" viewBox="0 0 830 58" fill="none" xmlns="http://www.w3.org/2000/svg">
<path d="M0.5 56.8027V57.3027H1H19.7552H20.2552V56.8027V56.0146V55.6398L19.8955 55.5347L15.133 54.1426V30.0367H42.6597V54.1426L37.8972 55.5347L37.5375 55.6398V56.0146V56.8027V57.3027H38.0375H56.7139H57.2139V56.8027V56.0146V55.6398L56.8542 55.5347L52.0917 54.1426V4.30045L56.8542 2.90833L57.2139 2.80318V2.42841V1.64038V1.14038H56.7139H38.0375H37.5375V1.64038V2.42841V2.80318L37.8972 2.90833L42.6597 4.30045V27.3819H15.133V4.30045L19.8955 2.90833L20.2552 2.80318V2.42841V1.64038V1.14038H19.7552H1H0.5V1.64038V2.42841V2.80318L0.859716 2.90833L5.62221 4.30045V54.1426L0.859717 55.5347L0.5 55.6398V56.0146V56.8027Z" stroke="black" stroke-opacity="0.2"/>
<path d="M578.5 56.8027V57.3027H579H597.755H598.255V56.8027V56.0146V55.6398L597.895 55.5347L593.133 54.1426V30.0367H620.66V54.1426L615.897 55.5347L615.538 55.6398V56.0146V56.8027V57.3027H616.038H634.714H635.214V56.8027V56.0146V55.6398L634.854 55.5347L630.092 54.1426V4.30045L634.854 2.90833L635.214 2.80318V2.42841V1.64038V1.14038H634.714H616.038H615.538V1.64038V2.42841V2.80318L615.897 2.90833L620.66 4.30045V27.3819H593.133V4.30045L597.895 2.90833L598.255 2.80318V2.42841V1.64038V1.14038H597.755H579H578.5V1.64038V2.42841V2.80318L578.86 2.90833L583.622 4.30045V54.1426L578.86 55.5347L578.5 55.6398V56.0146V56.8027Z" stroke="black" stroke-opacity="0.2"/>
<path d="M218.665 25.0178H208.133V3.71645H229.452L232.945 11.5371L233.077 11.8332H233.402H234.741H235.241V11.3332V1.64038V1.14038H234.741H194H193.5V1.64038V2.34961V2.74737L193.888 2.83681L198.622 3.92941V54.5195L193.88 55.6867L193.5 55.7804V56.1722V56.8027V57.3027H194H218.665C224.964 57.3027 230.12 55.8673 234.011 53.0301L234.013 53.029C238.007 50.0948 239.969 46.0817 239.969 41.1208C239.969 36.162 238.008 32.1458 234.009 29.2889C230.119 26.4526 224.963 25.0178 218.665 25.0178ZM208.133 27.5938H217.089C221.129 27.5938 224.418 28.7849 226.697 31.0351C228.974 33.2839 230.301 36.6501 230.301 41.1208C230.301 45.5917 228.974 48.9785 226.695 51.2474C224.416 53.5171 221.127 54.7266 217.089 54.7266H208.133V27.5938Z" stroke="black" stroke-opacity="0.2"/>
<path d="M414.713 1.14038H414.385L414.254 1.44029L391.26 54.0997L386.13 55.5331L385.765 55.6352V56.0146V56.8027V57.3027H386.265H400.292H400.792V56.8027V56.0146V55.611L400.397 55.5259L394.058 54.1572L400.62 39.0203H423.756L430.034 54.1916L425.37 55.5341L425.009 55.6382V56.0146V56.8027V57.3027H425.509H444.5H445V56.8027V56.0146V55.6415L444.643 55.5353L439.826 54.1055L417.774 1.44724L417.646 1.14038H417.313H414.713ZM412.493 11.5965L422.636 36.3654H401.762L412.493 11.5965Z" stroke="black" stroke-opacity="0.2"/>
<path d="M772.917 56.8027V57.3027H773.417H792.172H792.672V56.8027V56.0146V55.6398L792.312 55.5347L787.549 54.1426V3.71645H814.446V54.1426L809.683 55.5347L809.324 55.6398V56.0146V56.8027V57.3027H809.824H828.5H829V56.8027V56.0146V55.6398L828.64 55.5347L823.878 54.1426V3.92941L828.612 2.83681L829 2.74737V2.34961V1.64038V1.14038H828.5H773.417H772.917V1.64038V2.34961V2.74737L773.304 2.83681L778.039 3.92941V54.1426L773.276 55.5347L772.917 55.6398V56.0146V56.8027Z" stroke="black" stroke-opacity="0.2"/>
</svg>
