<svg width="58" height="58" viewBox="0 0 58 58" fill="none" xmlns="http://www.w3.org/2000/svg">
<path d="M0.5 56.8027V57.3027H1H19.7552H20.2552V56.8027V56.0146V55.6398L19.8955 55.5347L15.133 54.1426V30.0367H42.6597V54.1426L37.8972 55.5347L37.5375 55.6398V56.0146V56.8027V57.3027H38.0375H56.7139H57.2139V56.8027V56.0146V55.6398L56.8542 55.5347L52.0917 54.1426V4.30045L56.8542 2.90833L57.2139 2.80318V2.42841V1.64038V1.14038H56.7139H38.0375H37.5375V1.64038V2.42841V2.80318L37.8972 2.90833L42.6597 4.30045V27.3819H15.133V4.30045L19.8955 2.90833L20.2552 2.80318V2.42841V1.64038V1.14038H19.7552H1H0.5V1.64038V2.42841V2.80318L0.859716 2.90833L5.62221 4.30045V54.1426L0.859717 55.5347L0.5 55.6398V56.0146V56.8027Z" stroke="black" stroke-opacity="0.2"/>
</svg>
