<svg width="1538" height="713" viewBox="0 0 1538 713" fill="none" xmlns="http://www.w3.org/2000/svg">
<path d="M869.812 301.136L879.983 319.634L879.817 319.726L879.635 319.826L879.578 320.024L879.545 320.138L879.525 320.149L879.323 320.26L879.122 320.37L878.92 320.481L878.719 320.592L878.537 320.692L878.48 320.89L878.447 321.004L878.427 321.015L878.225 321.126L878.024 321.236L877.822 321.347L877.621 321.458L877.439 321.558L877.382 321.757L877.336 321.914C857.048 337.779 844.219 349.291 838.798 356.231L838.796 356.232C834.688 361.54 832.352 366.885 831.787 372.254C831.221 377.626 832.433 382.98 835.355 388.294C839.393 395.637 844.925 400.376 851.82 401.967C858.703 403.554 866.848 401.981 876.079 396.906C890.139 389.175 899.713 377.953 904.579 363.355L904.887 363.445C907.689 367.285 910.931 369.652 914.661 370.408C918.431 371.173 922.61 370.272 927.207 367.744C935.913 362.958 941.101 357.737 942.788 351.927L942.928 351.447L942.447 351.307L940.262 350.672L939.782 350.533L939.642 351.013C939.056 353.03 937.401 354.964 934.452 356.586C932.908 357.435 931.622 357.64 930.535 357.306C929.444 356.971 928.435 356.056 927.527 354.405L893.744 292.962C888.738 283.858 880.514 278.244 870.26 276.725C860.019 275.209 847.789 277.781 834.729 284.962C823.994 290.865 815.671 298.342 810.307 307.387C804.814 316.259 804.27 324.6 808.47 332.24C810.737 336.362 813.837 338.944 817.316 339.977C820.796 341.01 824.592 340.475 828.215 338.483C831.951 336.429 834.4 333.322 835.329 329.668C836.257 326.018 835.656 321.872 833.39 317.752L824.549 301.672C827.466 296.294 831.314 292.179 836.581 289.283C843.018 285.744 849.38 285.207 855.086 287.277C860.802 289.35 865.922 294.062 869.812 301.136ZM881.869 323.936L882.051 323.836L882.109 323.637L882.135 323.548L901.173 358.173C898.141 369.599 891.882 377.893 882.599 382.998C877.457 385.825 872.511 386.423 868.044 384.86C863.567 383.294 859.486 379.527 856.145 373.452C850.776 363.687 850.488 355.159 855.014 348.077C856.528 345.708 859.448 342.543 863.789 338.584C868.115 334.638 873.825 329.93 880.896 324.471L881.064 324.379L881.265 324.268L881.466 324.158L881.668 324.047L881.869 323.936Z" stroke="#A5A3A2"/>
<path d="M467.915 180.754L472.314 214.722L472.077 214.753L471.71 214.8L471.505 214.827L471.378 214.991L471.186 215.241L471.024 215.262L470.658 215.31L470.291 215.357L469.924 215.405L469.558 215.452L469.352 215.479L469.226 215.643L469.033 215.893L468.872 215.914L468.505 215.961L468.139 216.009L467.772 216.056L467.405 216.104L467.2 216.13L467.074 216.294L466.853 216.581C427.105 228.428 401.141 238.127 388.977 245.315L388.975 245.316C379.744 250.827 373.153 257.419 369.185 265.063C365.215 272.709 363.891 281.373 365.137 290.992C366.86 304.294 372.324 314.549 381.623 320.919C390.912 327.283 403.947 329.713 420.702 327.542C446.319 324.224 467.238 313.008 483.067 293.939L483.79 294.497C485.71 301.891 489.147 307.298 494.229 310.583C499.344 313.891 506.049 314.997 514.372 313.919C530.185 311.871 540.92 307.118 546.785 299.507L547.091 299.111L546.695 298.806L543.796 296.572L543.4 296.267L543.094 296.663C540.967 299.423 537.267 301.371 531.849 302.072C528.993 302.442 526.853 301.994 525.335 300.786C523.813 299.576 522.818 297.525 522.423 294.478L507.939 182.653C505.805 166.179 496.849 153.026 482.47 144.776C468.104 136.534 448.356 133.202 424.633 136.275C405.135 138.8 388.337 145.09 375.046 155.44C361.679 165.443 356.03 177.51 357.815 191.287C358.778 198.725 361.87 204.332 366.398 207.864C370.926 211.396 376.838 212.813 383.365 211.967C390.089 211.096 395.501 207.924 398.984 203.074C402.465 198.228 403.99 191.749 403.027 184.312L399.215 154.884C406.815 148.45 415.084 144.485 424.788 143.228C436.579 141.7 446.509 144.652 453.909 151.167C461.317 157.688 466.24 167.826 467.915 180.754ZM472.232 221.706L472.437 221.679L472.564 221.515L472.756 221.265L472.918 221.244L473.155 221.214L481.376 284.682C470.071 300.126 455.732 308.949 438.71 311.154C429.286 312.375 421.438 310.354 415.59 305.322C409.733 300.284 405.813 292.167 404.375 281.063C402.064 263.218 406.656 250.154 417.709 242.127C421.401 239.445 427.663 236.41 436.491 233.031C445.301 229.66 456.63 225.96 470.437 221.938L470.765 221.896L471.132 221.848L471.499 221.801L471.865 221.753L472.232 221.706Z" stroke="#A5A3A2"/>
<path d="M664.667 310.39L664.727 310.26L664.709 310.119C664.391 307.572 663.694 304.704 662.33 301.393C657.315 289.212 648.795 280.854 636.95 276.776C625.12 272.702 612.357 273.38 598.976 278.89C583.944 285.079 573.391 295.209 567.684 308.906C561.971 322.616 562.594 337.569 569.282 353.812C575.549 369.031 585.469 379.976 598.191 385.319C610.913 390.663 626.363 390.373 643.627 383.265C660.494 376.319 672.108 365.277 678.417 350.134L678.601 349.693L678.168 349.489L674.909 347.962L674.436 347.741L674.236 348.223C669.6 359.348 661.369 367.467 649.426 372.384C636.447 377.729 624.986 377.65 615.294 372.674C605.689 367.743 597.735 357.961 591.764 343.661L662.636 314.478L662.817 314.404L662.899 314.225L664.667 310.39ZM601.436 282.544C608.92 279.463 616.277 280.616 623.219 286.003C630.117 291.355 636.605 300.893 642.312 314.623L590.123 339.637C584.619 324.929 583.508 312.313 585.709 302.566C587.933 292.718 593.534 285.798 601.436 282.544Z" stroke="#A5A3A2"/>
<path d="M1162.71 376.734L1162.85 377.214L1163.33 377.076L1204.73 365.152L1205.21 365.014L1205.07 364.533L1204.52 362.625L1204.43 362.287L1204.08 362.265L1193.27 361.574L1192.42 358.625L1218.9 277.062L1218.92 277.07L1222.53 291.714L1222.53 291.724L1222.53 291.733L1238.86 348.443L1230.08 354.775L1229.8 354.981L1229.89 355.319L1230.44 357.227L1230.58 357.707L1231.06 357.569L1272.46 345.645L1272.94 345.507L1272.81 345.026L1272.26 343.118L1272.16 342.767L1271.79 342.757L1259.66 342.438L1235.58 258.81L1245.68 252.09L1245.98 251.888L1245.88 251.536L1245.33 249.628L1245.19 249.147L1244.71 249.286L1203.31 261.21L1202.83 261.348L1202.97 261.828L1203.52 263.736L1203.62 264.075L1203.97 264.097L1214.77 264.787L1215.62 267.736L1189.14 349.3L1189.12 349.291L1185.52 334.647L1185.51 334.638L1185.51 334.628L1169.18 277.918L1177.96 271.586L1178.25 271.381L1178.15 271.042L1177.6 269.135L1177.46 268.654L1176.98 268.792L1135.58 280.716L1135.1 280.855L1135.24 281.335L1135.78 283.243L1135.89 283.595L1136.25 283.605L1148.38 283.923L1172.46 367.552L1162.36 374.271L1162.06 374.474L1162.16 374.826L1162.71 376.734Z" stroke="#A5A3A2"/>
<path d="M931.507 422.106L931.544 422.605L932.042 422.569L1014.46 416.588L1014.96 416.552L1014.93 416.054L1014.65 412.238L1014.62 411.889L1014.29 411.793L994.256 406.079L988.31 324.122L1080.04 317.467L1085.98 399.423L1066.99 407.97L1066.67 408.113L1066.69 408.462L1066.97 412.278L1067.01 412.776L1067.5 412.74L1149.93 406.76L1150.43 406.724L1150.39 406.225L1150.11 402.409L1150.09 402.044L1149.73 401.959L1126.66 396.455L1114.48 228.525L1136.51 219.75L1136.85 219.614L1136.82 219.249L1136.55 215.433L1136.51 214.935L1136.01 214.971L1053.59 220.951L1053.09 220.987L1053.13 221.486L1053.4 225.302L1053.43 225.65L1053.77 225.746L1073.8 231.461L1079.38 308.456L987.656 315.112L982.07 238.116L1001.07 229.57L1001.39 229.426L1001.36 229.078L1001.08 225.262L1001.05 224.763L1000.55 224.799L918.127 230.779L917.628 230.816L917.664 231.314L917.941 235.13L917.968 235.495L918.324 235.58L941.389 241.084L953.573 409.014L931.544 417.79L931.204 417.925L931.231 418.29L931.507 422.106Z" stroke="#A5A3A2"/>
<path d="M77.6011 445.424L77.5615 445.923L78.0599 445.962L185.387 454.485L185.885 454.525L185.925 454.026L186.319 449.057L186.347 448.709L186.029 448.563L161.259 437.216L169.754 330.239L289.5 339.749L281.005 446.725L254.754 454.021L254.417 454.114L254.389 454.463L253.995 459.432L253.955 459.93L254.454 459.97L361.781 468.493L362.279 468.532L362.319 468.034L362.713 463.065L362.742 462.7L362.403 462.562L333.679 450.892L351.061 231.999L381.267 225.008L381.624 224.926L381.653 224.561L382.048 219.592L382.087 219.094L381.589 219.054L274.262 210.531L273.763 210.491L273.724 210.99L273.329 215.959L273.302 216.307L273.62 216.453L298.39 227.8L290.408 328.317L170.662 318.808L178.644 218.291L204.895 210.995L205.232 210.902L205.259 210.553L205.654 205.584L205.694 205.086L205.195 205.046L97.8682 196.523L97.3698 196.484L97.3302 196.982L96.9356 201.951L96.9066 202.316L97.2458 202.454L125.97 214.124L108.587 433.017L78.3813 440.008L78.0246 440.09L77.9956 440.455L77.6011 445.424Z" stroke="#A5A3A2"/>
<path d="M778.484 351.355L778.925 351.119L778.689 350.678L777.089 347.681L776.897 347.323L776.508 347.436L746.88 356.037L716.567 299.285C729.173 299.239 742.106 295.664 755.358 288.586C778.383 276.287 792.82 259.191 798.074 238.764C803.325 218.345 799.38 194.681 785.812 169.279C773.933 147.041 759.117 131.412 742.364 123.951C725.589 116.481 706.938 117.229 687.486 127.619C668.041 138.005 655.196 153.647 649.271 174.37L648.593 174.164L640.781 157.401L640.691 157.209L640.491 157.14L634.353 155.025L634.116 154.943L633.909 155.084L591.212 184.054L590.84 184.306L591.052 184.703L592.813 188L593.003 188.356L593.391 188.245L613.068 182.647L714.845 373.193L700.16 388.231L699.904 388.493L700.076 388.816L701.677 391.813L701.913 392.254L702.354 392.019L778.484 351.355ZM653.662 181.516C657.027 165.683 665.28 154.097 678.574 146.996C691.285 140.207 704.651 141.027 718.583 149.239C732.537 157.465 745.023 171.488 755.72 191.516C767.623 213.801 772.787 233.549 771.281 249.683C769.778 265.785 761.629 278.324 746.791 286.25C737.657 291.129 726.511 293.7 713.63 293.786L653.662 181.516Z" stroke="#A5A3A2"/>
<path d="M916.985 169.053L917.009 169.407L917.352 169.501L921.193 170.551L921.676 170.682L921.807 170.2L928.536 145.567L928.668 145.085L928.186 144.953L821.294 115.753L820.811 115.621L820.68 116.104L813.951 140.736L813.819 141.219L814.301 141.35L817.917 142.338L818.26 142.432L818.461 142.139L830.76 124.233L860.895 132.465L833.281 233.55L818.915 234.125L818.549 234.14L818.452 234.493L817.835 236.753L817.703 237.235L818.186 237.367L868.807 251.195L869.289 251.327L869.421 250.844L870.038 248.585L870.135 248.231L869.827 248.033L857.749 240.234L885.362 139.149L915.498 147.381L916.985 169.053Z" stroke="#A5A3A2"/>
<path d="M502.754 350.114L503.103 350.131L503.239 349.809L504.225 347.474L504.42 347.013L503.959 346.819L453.526 325.513L453.066 325.318L452.871 325.779L451.885 328.114L451.742 328.451L452.021 328.688L463.877 338.805L451.986 366.953C447.217 378.241 446.423 388.651 449.823 397.509C453.224 406.371 460.788 413.589 472.551 418.558C488.379 425.245 503.571 426.643 517.8 422.844L496.446 473.389L480.928 471.941L480.563 471.907L480.421 472.244L479.434 474.579L479.24 475.04L479.7 475.234L532.001 497.33L532.462 497.524L532.656 497.064L533.643 494.729L533.785 494.391L533.507 494.154L521.65 484.037L564.964 381.511L580.483 382.959L580.847 382.993L580.99 382.656L581.976 380.321L582.171 379.86L581.71 379.666L531.277 358.36L530.816 358.165L530.622 358.626L529.636 360.96L529.499 361.283L529.755 361.521L539.767 370.848L520.265 417.01C509.656 420.31 498.566 419.658 487.071 414.802C479.844 411.749 475.561 406.842 474.149 400.118C472.73 393.356 474.198 384.682 478.669 374.099L489.087 349.438L502.754 350.114Z" stroke="#A5A3A2"/>
<path d="M1217.54 428.615L1217.14 428.909L1217.43 429.314C1225.11 439.92 1238.26 446.914 1256.85 449.891C1272.6 452.413 1283.36 450.212 1292.15 441.711L1292.15 441.711L1292.16 441.703C1300.39 433.362 1303.61 426.78 1310.53 412.612C1310.99 411.668 1311.47 410.691 1311.96 409.678L1311.97 409.669L1311.97 409.66L1322.64 385.577C1322.64 385.576 1322.64 385.574 1322.64 385.573C1328.93 372.041 1336.57 362.794 1346.66 357.562C1356.75 352.329 1369.36 351.075 1385.68 353.687L1408.91 357.408L1393.39 454.327L1363.83 458.731L1363.47 458.785L1363.41 459.147L1362.65 463.893L1362.57 464.387L1363.07 464.466L1469.39 481.49L1469.88 481.569L1469.96 481.076L1470.72 476.329L1470.78 475.968L1470.45 475.803L1443.74 462.39L1477.6 250.976L1506.83 248.45L1507.21 248.416L1507.28 248.031L1507.96 243.759L1508.04 243.265L1507.55 243.186L1373.22 221.678C1345.87 217.298 1322.03 219.578 1304.25 227.696C1286.46 235.821 1274.75 249.795 1271.72 268.728C1268.99 285.736 1274.04 301.048 1285.42 313.548C1296.25 325.445 1312.79 334.781 1333.79 340.653C1320.7 341.404 1309.37 344.641 1299.83 350.427C1289.49 356.692 1281.27 365.927 1275.15 378.169L1275.15 378.176L1264.93 399.42L1264.92 399.428C1258.57 413.272 1253.99 422.204 1249.54 427.445C1247.33 430.056 1245.16 431.723 1242.86 432.63C1240.56 433.536 1238.07 433.702 1235.17 433.237C1230.56 432.499 1226.21 429.91 1222.04 425.871L1221.74 425.579L1221.4 425.825L1217.54 428.615ZM1371.61 341.174C1353.9 338.337 1340.33 331.2 1331.88 320.522C1323.43 309.851 1320.03 295.58 1322.79 278.366C1325.54 261.152 1333.21 248.775 1344.55 241.395C1355.89 234.009 1370.99 231.583 1388.71 234.419L1427.61 240.648L1410.52 347.403L1371.61 341.174Z" stroke="#A5A3A2"/>
<path d="M861.063 415.468C866.611 423.174 873.772 424.746 882.838 419.762C891.5 414.999 896.547 409.863 898.179 404.243L895.993 403.608C895.359 405.794 893.586 407.818 890.564 409.479C887.341 411.252 884.843 410.526 882.96 407.101L849.177 345.659C839.319 327.73 816.829 323.567 790.841 337.856C780.165 343.726 771.915 351.148 766.606 360.101C761.186 368.853 760.681 377.001 764.78 384.455C769.21 392.513 776.794 394.377 783.845 390.501C791.097 386.513 793.254 378.506 788.823 370.448L779.851 354.131C782.823 348.561 786.772 344.291 792.211 341.301C805.305 334.101 818.257 339.048 826.121 353.351L836.533 372.287L836.13 372.509L835.929 372.619L835.838 372.932L835.637 373.042L835.435 373.153L835.234 373.264L835.032 373.375L834.831 373.486L834.74 373.798L834.539 373.908L834.337 374.019L834.136 374.13L833.934 374.241L833.733 374.352L833.642 374.664C813.275 390.585 800.452 402.095 795.063 408.994C786.933 419.498 785.905 430.033 791.665 440.508C799.64 455.013 813.377 459.003 831.709 448.923C845.811 441.17 855.35 429.891 860.126 415.196L861.063 415.468ZM857.579 410.563C854.535 422.206 848.179 430.685 838.711 435.891C828.235 441.651 818.335 438.437 811.578 426.148C806.151 416.277 805.81 407.545 810.464 400.264C813.566 395.409 822.31 387.454 836.492 376.507L836.694 376.397L836.895 376.286L837.097 376.175L837.298 376.064L837.5 375.953L837.59 375.641L837.792 375.53L837.993 375.42L838.195 375.309L857.579 410.563Z" fill="black"/>
<path d="M440.103 346.661C443.883 361.456 453.68 368.015 470.178 365.878C485.944 363.836 496.516 359.112 502.26 351.658L499.362 349.424C497.127 352.323 493.284 354.312 487.785 355.024C481.919 355.784 478.606 353.23 477.798 346.998L463.314 235.173C459.088 202.542 427.865 183.1 380.568 189.226C361.136 191.743 344.427 198.008 331.22 208.293C317.966 218.211 312.424 230.112 314.182 243.678C316.081 258.344 326.339 265.589 339.172 263.927C352.371 262.217 360.302 251.498 358.402 236.832L354.556 207.134C362.276 200.542 370.696 196.47 380.595 195.187C404.426 192.101 420.91 207.114 424.281 233.145L428.745 267.609L428.012 267.704L427.645 267.752L427.326 268.166L426.96 268.214L426.593 268.261L426.226 268.308L425.86 268.356L425.493 268.403L425.174 268.818L424.807 268.865L424.441 268.913L424.074 268.96L423.707 269.008L423.341 269.055L423.022 269.469C383.18 281.34 357.222 291.039 345.102 298.201C326.762 309.151 319.034 324.318 321.504 343.383C324.923 369.781 343.145 383.824 376.509 379.502C402.174 376.178 423.08 364.896 438.86 345.704L440.103 346.661ZM437.768 337.271C426.374 352.913 411.877 361.873 394.645 364.105C375.58 366.575 362.647 355.948 359.75 333.583C357.423 315.618 362.042 302.344 373.286 294.178C380.782 288.733 398.544 281.959 426.205 273.903L426.572 273.856L426.939 273.808L427.305 273.761L427.672 273.713L428.039 273.666L428.358 273.251L428.724 273.204L429.091 273.157L429.458 273.109L437.768 337.271Z" fill="black"/>
<path d="M620.084 362.636C619.771 360.135 619.086 357.31 617.739 354.039C612.774 341.98 604.357 333.732 592.658 329.704C580.96 325.676 568.323 326.337 555.037 331.808C540.116 337.952 529.667 347.992 524.016 361.554C518.365 375.116 518.967 389.929 525.616 406.077C538.072 436.328 564.968 449.397 599.307 435.258C616.068 428.356 627.574 417.403 633.827 402.398L630.568 400.871C625.879 412.125 617.547 420.337 605.487 425.302C579.324 436.075 559.017 425.074 546.981 395.845L618.316 366.472L620.084 362.636ZM557.117 334.537C572.447 328.225 587.296 339.323 598.826 367.325L545.719 392.779C534.333 362.804 540.97 341.186 557.117 334.537Z" fill="black"/>
<path d="M1119.06 429.051L1160.46 417.127L1159.91 415.219L1148.76 414.506L1147.77 411.072L1174.49 328.787L1175.22 329.194L1178.88 344.05L1195.31 401.099L1186.24 407.636L1186.79 409.544L1228.2 397.62L1227.65 395.712L1215.16 395.384L1190.87 311.052L1201.27 304.13L1200.72 302.222L1159.32 314.146L1159.87 316.054L1171.03 316.766L1172.01 320.201L1145.3 402.486L1144.56 402.078L1140.9 387.222L1124.47 330.174L1133.54 323.636L1132.99 321.728L1091.59 333.652L1092.14 335.56L1104.63 335.888L1128.92 420.221L1118.51 427.143L1119.06 429.051Z" fill="black"/>
<path d="M887.877 474.526L970.299 468.545L970.022 464.73L949.654 458.919L943.646 376.115L1036.37 369.388L1042.38 452.191L1023.06 460.881L1023.34 464.697L1105.76 458.717L1105.48 454.901L1082.06 449.312L1069.83 280.652L1092.2 271.741L1091.92 267.925L1009.5 273.905L1009.77 277.721L1030.14 283.531L1035.79 361.374L943.065 368.102L937.417 290.259L956.733 281.569L956.456 277.753L874.034 283.734L874.311 287.549L897.732 293.138L909.969 461.798L887.6 470.71L887.877 474.526Z" fill="black"/>
<path d="M33.9706 497.919L141.297 506.442L141.692 501.473L116.604 489.981L125.166 382.157L245.909 391.745L237.347 499.569L210.759 506.958L210.364 511.927L317.691 520.45L318.086 515.481L289.022 503.673L306.463 284.05L337.026 276.977L337.42 272.008L230.093 263.485L229.699 268.454L254.787 279.946L246.738 381.311L125.995 371.722L134.044 270.358L160.632 262.969L161.027 258L53.6997 249.477L53.3051 254.446L82.3684 266.254L64.9279 485.877L34.3652 492.95L33.9706 497.919Z" fill="black"/>
<path d="M734.12 403.369L732.519 400.372L702.502 409.086L671.603 351.239C684.376 351.351 697.506 347.805 710.994 340.6C756.852 316.106 768.298 272.624 741.242 221.97C717.548 177.611 682.257 159.863 643.593 180.516C624.111 190.922 611.308 206.621 605.484 227.452L604.105 227.033L596.199 210.068L590.061 207.953L547.364 236.923L549.125 240.22L569.19 234.511L671.33 425.736L656.388 441.036L657.989 444.033L734.12 403.369ZM609.006 234.046C612.374 217.993 620.722 206.215 634.21 199.011C647.098 192.127 660.651 192.978 674.708 201.264C688.765 209.55 701.306 223.654 712.032 243.736C735.887 288.395 732.87 323.137 702.898 339.146C693.606 344.109 682.274 346.695 669.202 346.743L609.006 234.046Z" fill="black"/>
<path d="M873.354 221.474L877.196 222.524L883.925 197.891L777.033 168.691L770.304 193.324L773.92 194.311L786.42 176.112L817.38 184.57L789.538 286.49L774.806 287.08L774.189 289.34L824.81 303.168L825.427 300.908L813.041 292.911L840.883 190.99L871.843 199.448L873.354 221.474Z" fill="black"/>
<path d="M458.649 402.07L459.636 399.735L409.203 378.429L408.216 380.764L420.351 391.118L408.317 419.604C398.848 442.018 405.268 460.69 428.617 470.553C444.727 477.36 460.144 478.644 474.534 474.543L452.636 526.377L436.752 524.895L435.766 527.229L488.067 549.325L489.053 546.99L476.918 536.635L520.517 433.435L536.4 434.917L537.386 432.582L486.954 411.276L485.967 413.611L496.234 423.176L476.506 469.873C465.707 473.291 454.421 472.65 442.747 467.718C428.038 461.504 425.103 447.607 434.08 426.36L444.634 401.377L458.649 402.07Z" fill="black"/>
<path d="M1173.71 481.476C1181.28 491.938 1194.28 498.888 1212.8 501.853C1228.46 504.361 1239.03 502.16 1247.67 493.807C1256.39 484.98 1259.43 478.164 1267.38 461.913L1278.06 437.822C1290.69 410.636 1308.88 400.405 1341.63 405.649L1365.36 409.449L1349.7 507.223L1319.78 511.681L1319.02 516.428L1425.34 533.452L1426.1 528.706L1399.06 515.128L1433.04 302.967L1462.65 300.407L1463.34 296.136L1329.02 274.627C1274.43 265.887 1234.09 283.766 1228.08 321.262C1222.69 354.961 1248.07 381.905 1292.95 393.473C1264.11 394.21 1243.64 406.51 1231.47 430.848L1221.25 452.092C1208.55 479.753 1202.83 488.087 1190.96 486.187C1186.22 485.427 1181.78 482.768 1177.56 478.686L1173.71 481.476ZM1327.41 394.123C1291.81 388.423 1272.62 365.391 1278.17 330.743C1283.71 296.094 1309.06 280.681 1344.66 286.381L1384.05 292.689L1366.8 400.431L1327.41 394.123Z" fill="black"/>
</svg>
