<svg width="58" height="58" viewBox="0 0 58 58" fill="none" xmlns="http://www.w3.org/2000/svg">
<path d="M0.916504 56.8027V57.3027H1.4165H20.1717H20.6717V56.8027V56.0146V55.6398L20.312 55.5347L15.5495 54.1426V3.71645H42.4458V54.1426L37.6833 55.5347L37.3236 55.6398V56.0146V56.8027V57.3027H37.8236H56.5H57V56.8027V56.0146V55.6398L56.6403 55.5347L51.8778 54.1426V3.92941L56.6124 2.83681L57 2.74737V2.34961V1.64038V1.14038H56.5H1.4165H0.916504V1.64038V2.34961V2.74737L1.30407 2.83681L6.03871 3.92941V54.1426L1.27622 55.5347L0.916504 55.6398V56.0146V56.8027Z" stroke="black" stroke-opacity="0.2"/>
</svg>
