<svg width="704" height="299" viewBox="0 0 704 299" fill="none" xmlns="http://www.w3.org/2000/svg">
<path d="M0.515137 273.222V273.722H1.01514H77.9185H78.4185V273.222V269.991V269.616L78.0587 269.511L57.4155 263.477V53.9982H170.801V263.477L150.158 269.511L149.798 269.616V269.991V273.222V273.722H150.298H226.878H227.378V273.222V269.991V269.616L227.019 269.511L206.375 263.477V55.1885L226.991 50.4311L227.378 50.3416V49.9439V47.0358V46.5358H226.878H1.01514H0.515137V47.0358V49.9439V50.3416L0.902707 50.4311L21.5181 55.1885V263.477L0.874854 269.511L0.515137 269.616V269.991V273.222Z" stroke="#A5A3A2"/>
<path d="M323.08 204.021L323.184 203.924L323.222 203.786C323.914 201.251 324.372 198.261 324.372 194.594C324.372 181.097 319.562 169.856 309.932 161.372C300.313 152.899 287.957 148.562 273.13 148.562C256.475 148.562 242.525 154.042 231.775 164.792C221.016 175.551 215.772 189.96 215.772 207.959C215.772 224.823 220.901 239.062 230.868 249.086C240.836 259.112 255.586 264.864 274.716 264.864C293.407 264.864 308.717 258.933 320.601 247.048L320.94 246.71L320.616 246.357L318.125 243.639L317.772 243.254L317.402 243.623C308.666 252.359 297.696 256.842 284.457 256.842C270.069 256.842 259.237 252.294 251.991 243.794C244.808 235.368 241.088 222.988 241.012 207.1H319.568H319.765L319.908 206.966L323.08 204.021ZM274.036 152.96C282.335 152.96 288.86 156.926 293.339 164.743C297.789 172.51 300.217 184.087 300.266 199.331L241.026 202.672C241.548 186.579 245.419 174.183 251.311 165.801C257.263 157.334 265.274 152.96 274.036 152.96Z" stroke="#A5A3A2"/>
<path d="M404.511 227.79H405.011V227.29V224.096V223.691L404.614 223.607L376.268 217.623V157.228C386.735 162.758 399.029 165.515 413.134 165.515C437.674 165.515 457.221 157.732 470.628 143.117C484.03 128.508 491.239 107.135 491.239 80.0643C491.239 56.365 485.875 36.8408 475.285 23.2303C464.68 9.60168 448.878 1.95943 428.144 1.95943C407.427 1.95943 389.852 9.23454 375.762 23.7815L375.322 23.3416L376.268 5.99964L376.279 5.78771L376.135 5.63218L371.983 1.16112L371.813 0.977761L371.564 1.00413L323.34 6.11391L322.893 6.16131V6.61112V10.1241V10.5274L323.287 10.6128L342.055 14.6791V217.662L323.242 223.62L322.893 223.73V224.096V227.29V227.79H323.393H404.511ZM376.268 31.7035C386.062 20.0796 398.024 14.1371 412.176 14.1371C425.707 14.1371 436.415 20.7284 444.324 33.6978C452.246 46.6903 456.386 63.8375 456.386 85.1741C456.386 108.916 451.923 127.567 443.535 140.268C435.164 152.942 422.866 159.724 407.066 159.724C397.344 159.724 386.976 156.925 376.268 151.3V31.7035Z" stroke="#A5A3A2"/>
<path d="M495.695 234.322H471.976V194.604L484.718 190.569L485.067 190.459V190.093V187.911V187.411H484.567H435.692H435.192V187.911V190.093V190.459L435.541 190.569L448.283 194.604V291.386L435.563 294.779L435.192 294.877V295.262V297.007V297.507H435.692H495.695C508.422 297.507 519.117 294.491 526.644 289.039C534.186 283.577 538.524 275.684 538.524 266.024C538.524 256.362 534.13 248.416 526.564 242.9C519.01 237.394 508.316 234.322 495.695 234.322ZM488.931 239.468C496.683 239.468 502.979 241.834 507.338 246.299C511.697 250.765 514.178 257.391 514.178 266.024C514.178 274.657 511.697 281.282 507.338 285.748C502.979 290.213 496.683 292.58 488.931 292.58H471.976V239.468H488.931Z" stroke="#A5A3A2"/>
<path d="M512.241 208.049L511.887 208.402L512.241 208.756C519.122 215.637 529.581 219.213 543.527 219.213C555.351 219.213 562.998 216.34 568.46 209.058L568.46 209.058L568.467 209.048C573.519 201.976 575.103 196.773 578.498 185.621C578.725 184.876 578.96 184.105 579.205 183.304L579.208 183.295L579.21 183.286L584.185 164.45C584.186 164.449 584.186 164.447 584.187 164.446C587.191 153.844 591.678 146.227 598.402 141.25C605.129 136.27 614.164 133.881 626.37 133.881H643.648V206.258L622.664 212.903L622.315 213.014V213.38V216.935V217.435H622.815H702.458H702.958V216.935V213.38V213.014L702.609 212.903L681.625 206.258V48.0839L702.579 42.8453L702.958 42.7506V42.3602V39.1603V38.6603H702.458H601.837C581.329 38.6603 564.156 43.1175 552.094 51.1438C540.017 59.1805 533.072 70.7949 533.072 85.0263C533.072 97.8095 538.57 108.439 548.371 116.261C557.548 123.586 570.48 128.439 586.179 130.339C577.016 132.451 569.352 136.093 563.203 141.311C556.367 147.113 551.43 154.842 548.383 164.519L548.383 164.519L548.381 164.527L543.403 181.238L543.401 181.246C540.375 192.105 538.08 199.146 535.455 203.476C534.15 205.63 532.781 207.082 531.228 208C529.679 208.916 527.906 209.324 525.75 209.324C522.331 209.324 518.874 207.957 515.37 205.504L515.026 205.263L514.73 205.56L512.241 208.049ZM614.637 126.126C601.392 126.126 590.681 122.506 583.287 115.724C575.898 108.948 571.76 98.9591 571.76 86.0929C571.76 73.2271 575.898 63.3288 583.284 56.6418C590.678 49.9483 601.389 46.4157 614.637 46.4157H643.648V126.126H614.637Z" stroke="#A5A3A2"/>
</svg>
