<svg width="1723" height="1975" viewBox="0 0 1723 1975" fill="none" xmlns="http://www.w3.org/2000/svg">
<path d="M440.647 1971.95C499.157 1897.76 619.878 1865.64 711.266 1862.09C770.212 1859.8 810.818 1852.67 869.338 1843.4C898.119 1838.84 926.573 1831.62 953.282 1820.18C977.604 1809.77 999.699 1795.59 1020.91 1780.43C1061.23 1751.61 1100.22 1718.23 1149.32 1703.4C1178.72 1694.51 1209.63 1692.61 1239.7 1686.9C1265.79 1681.94 1291.27 1674.04 1315.57 1663.66C1363.93 1642.99 1407.57 1612.51 1443.17 1575.51C1479.54 1537.7 1506.26 1493.87 1524.04 1446.14C1532.44 1423.58 1538.87 1400.41 1543.34 1376.95C1547.42 1355.53 1549.78 1333.9 1552.95 1312.35C1556 1291.58 1559.72 1270.76 1566.48 1250.64C1572.24 1233.45 1580.78 1217.46 1590.93 1202.11C1596.53 1193.68 1603.08 1185.93 1610.49 1178.85C1607.61 1181.58 1607.05 1186.48 1604.14 1189.24C1600.21 1192.99 1596.51 1196.9 1593.06 1201.06C1591.56 1202.88 1590.13 1204.72 1588.73 1206.62C1587.74 1207.98 1586.81 1209.35 1585.82 1210.71C1583.33 1214.14 1586.42 1209.12 1584.71 1212.53C1579.79 1222.42 1575.38 1232.28 1572 1242.71C1565.4 1263.21 1561.81 1284.38 1558.78 1305.52C1555.65 1327.18 1553.22 1348.92 1548.92 1370.43C1544.24 1393.86 1537.58 1416.96 1528.96 1439.46C1495.38 1527.06 1433.02 1606.98 1346.68 1655.56C1323.77 1668.46 1299.39 1679.11 1274.11 1687.05C1246.73 1695.66 1218.74 1699.77 1190.41 1703.99C1162.06 1708.25 1134.87 1714.56 1109.3 1727.32C1086.81 1738.54 1066.35 1752.92 1046.33 1767.58C1025.8 1782.61 1005.57 1798.13 983.715 1811.46C959.921 1825.99 934.158 1836.97 906.976 1844.42C849.736 1860.15 789.648 1861.34 730.757 1862.78C636.421 1865.07 540.098 1869.36 466.392 1934.19C457.8 1941.76 432.919 1965.9 425.928 1974.75L440.647 1971.95Z" fill="#DE1919"/>
<mask id="mask0_600:98" style="mask-type:alpha" maskUnits="userSpaceOnUse" x="0" y="0" width="638" height="638">
<circle r="317.013" transform="matrix(-1 0 0 1 319.413 319.12)" fill="white" stroke="black" stroke-width="3"/>
</mask>
<g mask="url(#mask0_600:98)">
<circle r="317.013" transform="matrix(-1 0 0 1 319.413 319.12)" stroke="black" stroke-width="3"/>
<path d="M-63.4189 5.26747L138.862 221.496C140.526 223.827 157.656 238.053 176.034 238.053C189.424 245.017 211.06 261.699 208.503 277.769C205.508 296.595 209.787 304.439 217.06 313.709L351.825 451.8C403.353 440.721 473.869 465.859 503.668 496.862C503.839 497.042 503.927 497.133 503.927 497.133C503.841 497.043 503.755 496.953 503.668 496.862C499.2 492.157 438.517 426.813 446.068 356.679L316.867 221.074C312.872 216.079 299.933 207.107 279.911 209.088C257.899 211.265 244.952 189.444 239.958 178.125C240.957 170.467 238.894 159.999 224.296 145.554L14.2259 -65.5862C10.0654 -70.0929 -3.52933 -77.6294 -24.6242 -71.7228C-50.9929 -64.3396 -62.5951 -43.2449 -66.814 -32.6975C-71.033 -22.15 -71.626 -7.39534 -63.4189 5.26747Z" fill="black"/>
<path d="M-63.4189 5.26747L138.862 221.496C140.526 223.827 157.656 238.053 176.034 238.053C189.424 245.017 211.06 261.699 208.503 277.769C205.508 296.595 209.787 304.439 217.06 313.709L351.825 451.8C403.503 440.689 474.279 466.006 503.927 497.133C503.927 497.133 438.229 429.488 446.068 356.679L316.867 221.074C312.872 216.079 299.933 207.107 279.911 209.088C257.899 211.265 244.952 189.444 239.958 178.125C240.957 170.467 238.894 159.999 224.296 145.554L14.2259 -65.5862C10.0654 -70.0929 -3.52932 -77.6294 -24.6242 -71.7228C-50.9929 -64.3396 -62.5951 -43.2449 -66.814 -32.6975C-71.033 -22.15 -71.626 -7.39534 -63.4189 5.26747Z" stroke="black" stroke-width="3"/>
<path d="M416.171 382.328C426.431 395.387 423.351 407.746 422.574 417.074C415.578 415.131 401.713 415.442 390.52 407.98C376.528 398.652 376.993 389.101 387.507 378.586C397.765 368.328 403.345 366.005 416.171 382.328Z" fill="#ECE9E7"/>
<path d="M505.964 498.754L422.574 417.074M422.574 417.074C423.351 407.746 426.431 395.387 416.171 382.328C403.345 366.005 397.765 368.328 387.507 378.586C376.993 389.101 376.528 398.652 390.52 407.98C401.713 415.442 415.578 415.131 422.574 417.074Z" stroke="#ECE9E7" stroke-width="4"/>
</g>
<path d="M495.341 491.16C502.996 486.373 520.069 491.823 528.435 493.193C563.071 498.862 591.129 520.867 621.615 535.339C641.584 544.819 665.753 553.228 687.279 543.055C705.69 534.347 719.053 517.592 734.195 504.978C744.645 496.27 755.789 488.507 768.847 483.499C781.228 478.759 794.558 476.523 807.938 476.46C834.207 476.334 859.985 484.035 883.459 494.522C902.666 503.105 920.822 513.75 937.776 525.749C942.027 528.757 946.126 531.922 950.241 535.071C957.49 540.63 967.026 544.614 975.663 548.031C1001.44 558.204 1028 548.803 1054.62 547.417C1091.51 545.496 1129.67 556.109 1162.24 571.683C1168.74 574.785 1174.79 578.092 1181.65 580.47C1188.51 582.848 1195.47 584.926 1202.4 587.162C1220.47 592.973 1238.32 599.54 1254.8 608.626C1264 613.696 1272.72 619.523 1280.61 626.247C1282.76 628.089 1284.81 630.026 1286.88 631.947C1287.18 632.231 1288.76 633.758 1287.54 632.546C1286.2 631.207 1288.15 633.223 1288.54 633.695C1289.76 635.097 1290.93 636.545 1292.06 638.01C1295.45 642.372 1298.5 646.954 1301.16 651.741C1307.15 662.481 1311.17 674.086 1313.44 685.975C1314.76 692.92 1315.49 699.943 1315.72 706.982C1315.89 711.753 1315.47 716.572 1316.15 721.312C1318.18 735.768 1328.34 747.2 1338.49 757.656C1351.21 770.757 1367.02 781.025 1383.25 790C1422.81 811.842 1482.83 839.457 1526.38 852.889C1555.81 861.975 1588.73 987.964 1617.01 982.823C1622.34 974.78 1640.19 1041.37 1623.31 962.776C1620.6 993.229 1602.72 973.539 1588.57 953.796C1577.81 937.124 1559.67 866.61 1530.07 853.159C1489.37 841.781 1447.03 816.959 1406.32 798.362C1387.15 789.607 1368.28 779.781 1351.43 767.529C1347.8 764.9 1344.3 762.144 1340.92 759.246C1339.21 757.766 1337.55 756.254 1335.93 754.696C1335.56 754.333 1335.18 753.94 1334.79 753.593C1332.91 751.924 1336.11 755.042 1336.15 755.121C1335.54 754.144 1334.49 753.231 1333.74 752.333C1329.12 746.696 1325.24 740.397 1323.11 733.563C1320.26 724.43 1321.6 714.793 1320.8 705.423C1319.7 692.668 1316.86 680.023 1311.79 668.118C1303.88 649.537 1290.15 633.018 1274.24 619.68C1258.81 606.736 1240.4 597.272 1221.32 589.824C1206.31 583.966 1190.73 579.698 1175.52 574.376C1168.42 571.888 1162.12 568.329 1155.35 565.148C1139.41 557.652 1122.56 551.763 1105.28 547.559C1086.43 542.976 1066.72 540.331 1047.2 541.606C1031.74 542.614 1016.55 545.842 1001.1 546.929C989.772 547.732 979.288 545.889 968.889 541.653C960.674 538.299 951.376 534.551 944.533 529.087C933.135 519.97 920.805 511.765 908.102 504.301C866.217 479.657 810.868 458.65 762.039 478.082C738.429 487.468 721.424 505.719 703.234 521.844C689.244 534.252 673.882 543.748 653.711 541.543C619.193 537.78 591.554 513.97 561.542 500.05C544.114 491.956 521.771 483.005 501.768 487.162C499.583 487.618 499.934 487.554 497.817 487.984C498.122 487.795 495.002 491.365 495.341 491.16Z" fill="#DE1919"/>
</svg>
