<svg width="1415" height="463" viewBox="0 0 1415 463" fill="none" xmlns="http://www.w3.org/2000/svg">
<circle cx="1188.24" cy="236.5" r="224.756" fill="#ECE9E7" stroke="black" stroke-width="3"/>
<circle cx="1188.24" cy="236.5" r="224.756" stroke="black" stroke-width="3"/>
<path fill-rule="evenodd" clip-rule="evenodd" d="M1371.02 103.12L1311.45 166.799C1310.27 168.454 1298.1 178.56 1285.05 178.56C1275.54 183.507 1260.17 195.357 1261.98 206.772C1264.11 220.145 1261.07 225.717 1255.9 232.302L1160.17 330.395C1123.46 322.503 1084.85 352.907 1063.79 375.019L1041.51 350.352C1041.51 350.352 1098.8 314.546 1093.23 262.826L1185.01 166.499C1187.84 162.951 1197.04 156.578 1211.26 157.984C1226.89 159.531 1236.09 144.031 1239.64 135.99C1238.93 130.55 1240.39 123.114 1250.76 112.853L1314.54 48.7489C1336.38 63.4655 1355.51 81.8902 1371.02 103.12Z" fill="black"/>
<path d="M1311.45 166.799L1310.36 165.774L1310.29 165.846L1310.23 165.927L1311.45 166.799ZM1371.02 103.12L1372.12 104.145L1372.97 103.238L1372.23 102.235L1371.02 103.12ZM1285.05 178.56V177.06H1284.68L1284.35 177.229L1285.05 178.56ZM1261.98 206.772L1260.5 207.008L1260.5 207.008L1261.98 206.772ZM1255.9 232.302L1256.98 233.35L1257.03 233.292L1257.08 233.228L1255.9 232.302ZM1160.17 330.395L1159.86 331.862L1160.67 332.036L1161.25 331.443L1160.17 330.395ZM1063.79 375.019L1062.67 376.024L1063.76 377.224L1064.87 376.053L1063.79 375.019ZM1041.51 350.352L1040.71 349.08L1039.19 350.029L1040.39 351.358L1041.51 350.352ZM1093.23 262.826L1092.14 261.791L1091.66 262.295L1091.74 262.987L1093.23 262.826ZM1185.01 166.499L1186.09 167.533L1186.14 167.486L1186.18 167.436L1185.01 166.499ZM1211.26 157.984L1211.41 156.492L1211.41 156.492L1211.26 157.984ZM1239.64 135.99L1241.01 136.595L1241.18 136.211L1241.13 135.796L1239.64 135.99ZM1250.76 112.853L1251.82 113.92L1251.83 113.911L1250.76 112.853ZM1314.54 48.7489L1315.38 47.5051L1314.35 46.8124L1313.48 47.6909L1314.54 48.7489ZM1312.55 167.823L1372.12 104.145L1369.93 102.095L1310.36 165.774L1312.55 167.823ZM1285.05 180.06C1291.94 180.06 1298.51 177.403 1303.44 174.605C1305.92 173.199 1308.02 171.739 1309.59 170.517C1310.37 169.906 1311.02 169.349 1311.53 168.882C1312.01 168.44 1312.43 168.012 1312.67 167.671L1310.23 165.927C1310.18 165.999 1309.96 166.249 1309.5 166.677C1309.06 167.079 1308.47 167.583 1307.74 168.153C1306.28 169.291 1304.3 170.668 1301.96 171.995C1297.25 174.664 1291.21 177.06 1285.05 177.06V180.06ZM1263.46 206.536C1262.67 201.56 1265.62 196.209 1270.35 191.279C1275.02 186.413 1281.09 182.306 1285.74 179.891L1284.35 177.229C1279.49 179.761 1273.13 184.052 1268.18 189.202C1263.31 194.288 1259.48 200.569 1260.5 207.008L1263.46 206.536ZM1257.08 233.228C1259.7 229.893 1261.9 226.672 1263.12 222.505C1264.34 218.336 1264.55 213.361 1263.46 206.536L1260.5 207.008C1261.54 213.556 1261.3 218.053 1260.24 221.661C1259.18 225.269 1257.27 228.127 1254.72 231.376L1257.08 233.228ZM1161.25 331.443L1256.98 233.35L1254.83 231.255L1159.1 329.348L1161.25 331.443ZM1064.87 376.053C1075.34 365.066 1090.14 352.049 1106.84 342.767C1123.56 333.476 1142 328.023 1159.86 331.862L1160.49 328.929C1141.63 324.875 1122.42 330.678 1105.38 340.145C1088.33 349.62 1073.3 362.86 1062.7 373.984L1064.87 376.053ZM1040.39 351.358L1062.67 376.024L1064.9 374.013L1042.62 349.347L1040.39 351.358ZM1091.74 262.987C1094.45 288.237 1081.84 309.71 1068.33 324.991C1061.59 332.615 1054.68 338.646 1049.44 342.771C1046.83 344.833 1044.64 346.416 1043.1 347.481C1042.34 348.013 1041.73 348.416 1041.32 348.684C1041.12 348.818 1040.97 348.919 1040.86 348.985C1040.81 349.018 1040.77 349.043 1040.75 349.058C1040.73 349.066 1040.72 349.072 1040.72 349.076C1040.72 349.078 1040.71 349.079 1040.71 349.08C1040.71 349.08 1040.71 349.08 1040.71 349.08C1040.71 349.08 1040.71 349.08 1041.51 350.352C1042.3 351.624 1042.3 351.624 1042.3 351.623C1042.3 351.623 1042.3 351.622 1042.31 351.621C1042.31 351.62 1042.31 351.618 1042.32 351.615C1042.32 351.61 1042.34 351.603 1042.35 351.594C1042.38 351.575 1042.42 351.547 1042.48 351.511C1042.59 351.439 1042.76 351.332 1042.97 351.191C1043.4 350.91 1044.02 350.492 1044.81 349.945C1046.39 348.85 1048.63 347.231 1051.3 345.127C1056.63 340.923 1063.69 334.77 1070.58 326.978C1084.33 311.426 1097.57 289.136 1094.72 262.666L1091.74 262.987ZM1183.92 165.464L1092.14 261.791L1094.31 263.861L1186.09 167.533L1183.92 165.464ZM1211.41 156.492C1196.68 155.035 1186.99 161.615 1183.83 165.561L1186.18 167.436C1188.7 164.286 1197.39 158.12 1211.11 159.477L1211.41 156.492ZM1238.27 135.384C1236.53 139.319 1233.43 145.017 1228.92 149.521C1224.43 154.006 1218.64 157.207 1211.41 156.492L1211.11 159.477C1219.52 160.309 1226.14 156.533 1231.04 151.644C1235.92 146.774 1239.2 140.702 1241.01 136.595L1238.27 135.384ZM1249.71 111.787C1239.11 122.277 1237.36 130.154 1238.15 136.184L1241.13 135.796C1240.49 130.946 1241.68 123.951 1251.82 113.92L1249.71 111.787ZM1313.48 47.6909L1249.7 111.795L1251.83 113.911L1315.61 49.8069L1313.48 47.6909ZM1313.71 49.9927C1335.39 64.6121 1354.4 82.9154 1369.81 104.005L1372.23 102.235C1356.61 80.865 1337.36 62.3189 1315.38 47.5051L1313.71 49.9927Z" fill="black"/>
<path d="M1137.09 302.9C1127.57 309.819 1118.9 307.313 1112.32 306.517C1113.88 301.616 1114.03 291.793 1119.6 284.066C1126.58 274.407 1133.32 274.988 1140.49 282.708C1147.48 290.24 1148.98 294.251 1137.09 302.9Z" fill="#ECE9E7"/>
<path d="M1052.3 363.395L1112.32 306.517M1112.32 306.517C1118.9 307.313 1127.57 309.819 1137.09 302.9C1148.98 294.251 1147.48 290.24 1140.49 282.708C1133.32 274.988 1126.58 274.407 1119.6 284.066C1114.03 291.793 1113.88 301.616 1112.32 306.517Z" stroke="#ECE9E7" stroke-width="4"/>
<path d="M252.252 104.078C239.698 91.1649 224.573 80.9828 208.537 72.1216C171.227 51.5198 130.004 36.9887 88.9412 24.3278C61.1825 15.7635 33.0564 8.10462 4.65873 1.60348C3.17337 1.27693 1.688 0.93555 0.202637 0.609009C0.745674 0.727751 4.09972 4.98763 3.94001 4.79468C6.9906 8.11947 10.0731 11.4294 13.1557 14.7245C16.2382 18.0196 19.3367 21.3147 22.4671 24.595C23.2977 25.4707 25.2622 28.365 26.4121 28.6174C47.0635 33.0999 67.5232 38.5324 87.8232 44.2617C128.711 55.8094 169.359 69.1085 207.755 86.6379C225.834 94.8905 243.627 104.152 259.519 115.7C260.308 116.272 261.091 116.851 261.867 117.436C260.086 114.133 257.926 111 255.542 108.071C255.411 107.912 254.632 106.968 254.279 106.541C254.29 106.556 254.301 106.571 254.312 106.587C254.055 106.273 254.062 106.28 254.198 106.443C254.221 106.472 254.248 106.505 254.279 106.541C253.536 105.525 252.621 104.479 252.252 104.078Z" fill="#DE1919"/>
<path d="M299.831 221.455C301.62 223.162 303.425 224.839 305.325 226.457C306.948 227.839 308.607 229.18 310.3 230.482C309.105 228.634 307.973 226.751 306.907 224.839C301.253 214.716 297.467 203.777 295.327 192.571C294.081 186.025 293.395 179.405 293.171 172.771C293.011 168.273 293.411 163.731 292.772 159.264C291.893 153.03 289.322 147.107 285.856 141.72C283.907 138.706 281.671 135.857 279.308 133.126C277.806 131.302 274.955 128.566 273.717 127.426C272.328 126.075 270.891 124.784 269.421 123.507C266.976 121.407 264.456 119.385 261.867 117.436C263.237 119.973 264.383 122.611 265.237 125.333C267.92 133.942 266.658 143.026 267.409 151.857C268.447 163.88 271.13 175.799 275.906 187.02C279.93 196.489 285.457 205.336 292.197 213.366C293.689 215.27 297.305 219.555 299.831 221.455Z" fill="#DE1919"/>
<path d="M1040.01 349.249C1032.79 353.761 1021.64 352.858 1013.75 351.567C981.087 346.224 955.516 325.785 926.767 312.145C907.937 303.209 885.145 295.283 864.845 304.872C847.484 313.08 834.882 328.872 820.603 340.761C810.749 348.97 800.24 356.287 787.925 361.007C776.25 365.475 763.68 367.582 751.063 367.642C726.291 367.761 701.982 360.502 679.845 350.617C661.733 342.528 644.612 332.494 628.624 321.184C624.615 318.349 620.75 315.365 616.869 312.397C610.033 307.157 601.041 303.402 592.895 300.181C568.587 290.593 543.543 299.454 518.435 300.76C483.649 302.571 447.665 292.567 416.951 277.887C410.818 274.963 405.116 271.846 398.648 269.605C392.179 267.364 385.615 265.405 379.083 263.297C362.041 257.82 345.207 251.63 329.666 243.066C322.884 239.329 316.375 235.155 310.3 230.482C311.916 232.982 313.647 235.419 315.483 237.782C316.442 239.014 317.013 240.054 318.019 241.256C318.658 242.028 318.943 242.343 319.221 242.591C323.373 246.94 327.622 251.185 332.27 255.089C346.82 267.29 364.181 276.21 382.181 283.231C396.332 288.752 411.026 292.775 425.369 297.792C432.061 300.137 438.002 303.491 444.391 306.489C459.42 313.555 475.312 319.106 491.603 323.069C509.38 327.388 527.971 329.882 546.37 328.679C560.952 327.73 575.279 324.687 589.845 323.663C600.53 322.906 610.416 324.642 620.223 328.635L620.633 328.802C628.277 331.921 636.851 335.42 643.19 340.479C653.939 349.073 665.566 356.807 677.545 363.842C717.043 387.071 769.239 406.871 815.285 388.555C837.549 379.709 853.585 362.506 870.739 347.307C883.931 335.611 898.417 326.661 917.44 328.739C949.99 332.286 976.056 354.729 1004.36 367.85C1020.79 375.479 1038.79 381.833 1054.67 379.638C1059.26 378.785 1062.83 377.573 1064.6 376.46L1040.01 349.249Z" fill="#DE1919"/>
</svg>
