<svg width="1415" height="463" viewBox="0 0 1415 463" fill="none" xmlns="http://www.w3.org/2000/svg">
<mask id="mask0_600:89" style="mask-type:alpha" maskUnits="userSpaceOnUse" x="962" y="9" width="453" height="454">
<circle cx="1188.37" cy="236.048" r="224.756" fill="#EBEBEB" stroke="black" stroke-width="3"/>
</mask>
<g mask="url(#mask0_600:89)">
<circle cx="1188.37" cy="236.048" r="224.756" stroke="black" stroke-width="3"/>
<path d="M1312.41 165.585L1456.1 11.9869C1461.93 2.99189 1461.51 -7.48914 1458.51 -14.9816C1455.51 -22.474 1447.27 -37.4586 1428.54 -42.7033C1413.56 -46.8991 1403.9 -41.5455 1400.94 -38.3442L1251.72 111.64C1241.35 121.901 1239.89 129.337 1240.59 134.776C1237.05 142.818 1227.85 158.318 1212.21 156.771C1197.99 155.364 1188.8 161.738 1185.96 165.285L1094.18 261.613C1099.75 313.333 1042.46 349.139 1042.46 349.139L1064.74 373.805C1085.8 351.694 1124.42 321.29 1161.13 329.182L1256.86 231.089C1262.03 224.504 1265.07 218.932 1262.94 205.559C1261.12 194.144 1276.49 182.293 1286 177.347C1299.06 177.347 1311.23 167.241 1312.41 165.585Z" fill="black" stroke="black" stroke-width="3"/>
<path d="M1137.21 302.447C1127.69 309.366 1119.03 306.86 1112.44 306.064C1114 301.163 1114.15 291.34 1119.73 283.613C1126.7 273.954 1133.45 274.535 1140.61 282.255C1147.6 289.786 1149.1 293.798 1137.21 302.447Z" fill="#ECE9E7"/>
<path d="M1052.43 362.941L1112.44 306.064M1112.44 306.064C1119.03 306.86 1127.69 309.366 1137.21 302.447C1149.1 293.798 1147.6 289.786 1140.61 282.255C1133.45 274.535 1126.7 273.954 1119.73 283.613C1114.15 291.34 1114 301.163 1112.44 306.064Z" stroke="#ECE9E7" stroke-width="4"/>
</g>
<path d="M252.375 103.625C239.821 90.7119 224.696 80.5298 208.66 71.6686C171.35 51.0668 130.127 36.5357 89.0643 23.8748C61.3055 15.3105 33.1794 7.65162 4.78178 1.15047C3.29641 0.823932 1.81105 0.482547 0.325684 0.156006C0.86872 0.274748 4.22277 4.53463 4.06305 4.34168C7.11364 7.66646 10.1962 10.9764 13.2787 14.2715C16.3612 17.5666 19.4597 20.8617 22.5902 24.142C23.4207 25.0177 25.3852 27.912 26.5352 28.1644C47.1866 32.6469 67.6463 38.0794 87.9463 43.8087C128.834 55.3564 169.482 68.6555 207.878 86.1849C225.957 94.4375 243.75 103.699 259.642 115.247C260.431 115.819 261.214 116.398 261.99 116.983C260.209 113.68 258.049 110.547 255.665 107.618C255.534 107.459 254.755 106.515 254.402 106.088C254.413 106.103 254.424 106.118 254.435 106.134C254.178 105.82 254.185 105.827 254.321 105.99C254.344 106.019 254.372 106.052 254.402 106.088C253.659 105.072 252.744 104.026 252.375 103.625Z" fill="#DE1919"/>
<path d="M299.954 221.002C301.743 222.709 303.548 224.386 305.448 226.004C307.071 227.386 308.73 228.727 310.423 230.029C309.228 228.181 308.096 226.298 307.03 224.386C301.376 214.263 297.59 203.324 295.45 192.118C294.204 185.572 293.518 178.952 293.294 172.318C293.134 167.82 293.534 163.278 292.895 158.811C292.016 152.577 289.445 146.654 285.979 141.267C284.03 138.253 281.794 135.404 279.431 132.673C277.929 130.849 275.078 128.113 273.841 126.973C272.451 125.622 271.014 124.331 269.544 123.054C267.099 120.954 264.579 118.932 261.99 116.983C263.36 119.52 264.506 122.158 265.36 124.88C268.043 133.489 266.781 142.573 267.532 151.404C268.57 163.427 271.253 175.346 276.029 186.567C280.054 196.036 285.58 204.883 292.32 212.913C293.812 214.817 297.428 219.102 299.954 221.002Z" fill="#DE1919"/>
<path d="M1040.14 348.796C1032.92 353.308 1021.76 352.405 1013.87 351.114C981.21 345.771 955.639 325.332 926.89 311.692C908.06 302.756 885.268 294.83 864.968 304.419C847.607 312.627 835.005 328.419 820.727 340.308C810.872 348.517 800.363 355.834 788.049 360.554C776.373 365.022 763.804 367.129 751.186 367.189C726.414 367.308 702.105 360.049 679.968 350.164C661.856 342.075 644.735 332.041 628.747 320.731C624.738 317.896 620.873 314.912 616.992 311.944C610.156 306.704 601.164 302.949 593.018 299.728C568.71 290.14 543.666 299.001 518.559 300.307C483.772 302.118 447.788 292.114 417.075 277.434C410.941 274.51 405.24 271.393 398.771 269.152C392.302 266.911 385.738 264.952 379.206 262.844C362.164 257.367 345.33 251.177 329.789 242.613C323.007 238.876 316.498 234.702 310.423 230.029C312.039 232.529 313.77 234.966 315.606 237.329C316.565 238.561 317.136 239.601 318.142 240.803C318.781 241.575 319.066 241.89 319.344 242.138C323.497 246.487 327.745 250.732 332.393 254.636C346.943 266.837 364.304 275.757 382.304 282.778C396.455 288.299 411.149 292.322 425.492 297.339C432.184 299.684 438.125 303.038 444.514 306.036C459.543 313.102 475.435 318.653 491.726 322.616C509.503 326.935 528.094 329.429 546.493 328.226C561.075 327.277 575.402 324.234 589.968 323.21C600.653 322.453 610.539 324.189 620.346 328.182L620.756 328.349C628.401 331.468 636.974 334.967 643.313 340.026C654.062 348.62 665.69 356.354 677.668 363.389C717.166 386.618 769.362 406.418 815.408 388.102C837.672 379.256 853.708 362.053 870.862 346.854C884.054 335.158 898.541 326.208 917.563 328.286C950.113 331.833 976.179 354.276 1004.48 367.397C1020.92 375.026 1038.91 381.38 1054.79 379.185C1059.38 378.332 1062.95 377.12 1064.73 376.007L1040.14 348.796Z" fill="#DE1919"/>
</svg>
