<svg width="1440" height="1988" viewBox="0 0 1440 1988" fill="none" xmlns="http://www.w3.org/2000/svg">
<mask id="mask0_657:162" style="mask-type:alpha" maskUnits="userSpaceOnUse" x="-159" y="0" width="638" height="638">
<circle r="317.013" transform="matrix(-1 0 0 1 160.378 319.348)" fill="white" stroke="black" stroke-width="3"/>
</mask>
<g mask="url(#mask0_657:162)">
<circle r="317.013" transform="matrix(-1 0 0 1 160.378 319.348)" stroke="black" stroke-width="3"/>
<path d="M-222.454 5.49623L-20.1736 221.725C-18.5089 224.055 -1.37924 238.282 16.9989 238.282C30.3891 245.245 52.0246 261.927 49.468 277.998C46.4729 296.823 50.7515 304.668 58.0251 313.938L192.79 452.029C244.318 440.95 314.833 466.088 344.633 497.091C344.803 497.271 344.892 497.362 344.892 497.362C344.806 497.271 344.72 497.181 344.633 497.091C340.165 492.385 279.482 427.042 287.033 356.908L157.832 221.302C153.836 216.308 140.898 207.336 120.876 209.317C98.864 211.494 85.9172 189.673 80.9231 178.353C81.9219 170.696 79.8589 160.228 65.2606 145.783L-144.809 -65.3575C-148.97 -69.8641 -162.564 -77.4007 -183.659 -71.4941C-210.028 -64.1109 -221.63 -43.0162 -225.849 -32.4687C-230.068 -21.9213 -230.661 -7.16658 -222.454 5.49623Z" fill="black" stroke="black" stroke-width="3"/>
<path d="M257.136 382.557C267.396 395.616 264.316 407.975 263.538 417.303C256.542 415.359 242.678 415.671 231.484 408.208C217.493 398.881 217.957 389.329 228.471 378.815C238.73 368.556 244.31 366.234 257.136 382.557Z" fill="#ECE9E7"/>
<path d="M346.928 498.983L263.538 417.303M263.538 417.303C264.316 407.975 267.396 395.616 257.136 382.557C244.31 366.234 238.73 368.556 228.471 378.815C217.957 389.329 217.493 398.881 231.484 408.208C242.678 415.671 256.542 415.359 263.538 417.303Z" stroke="#ECE9E7" stroke-width="4"/>
</g>
<path d="M354.014 493.581C365.757 495.684 373.09 496.256 383.198 498.664C417.298 506.78 445.388 528.099 476.576 542.934C498.476 553.362 521.651 559.648 544.296 547.414C562.489 537.588 574.233 520.465 588.648 506.28C601.523 493.588 621.738 485.978 638.992 481.57C674.489 472.467 710.129 485.062 740.644 503.004C767.621 518.875 793.587 535.781 822.225 548.497C834.597 554.338 847.984 557.724 861.643 558.468C879.379 559.022 895.647 551.917 913.167 551.05C947.628 549.34 979.515 564.031 1010.41 577.277C1019.29 581.082 1028.34 585.272 1038.07 585.898C1043.89 586.164 1049.67 587.061 1055.3 588.572C1059.63 589.8 1063.91 591.293 1068.1 592.931C1069.54 593.485 1074.16 596.35 1075.32 595.917C1074.43 596.23 1065.69 590.426 1073.56 595.243C1074.93 596.061 1076.33 596.832 1077.72 597.651C1089.45 604.546 1100.47 612.563 1110.65 621.59C1131.9 640.567 1148.98 664.482 1157.12 691.984C1160.77 704.363 1161.57 717.296 1166.36 729.361C1170.81 740.272 1177.04 750.37 1184.79 759.248C1200.36 777.479 1220.55 791.423 1241.37 802.983C1280.02 824.465 1320.78 840.36 1362.82 853.991C1365.88 854.979 1368.94 855.966 1371.97 857.026C1375 858.086 1383.71 861.963 1372.5 856.616C1360.18 850.74 1374.91 857.917 1378.23 859.434C1382.1 861.216 1371.2 856.135 1370.77 855.725C1372.03 856.613 1373.35 857.418 1374.71 858.134C1389.01 868.369 1398.95 882.048 1407.42 897.389C1425.68 930.552 1438.7 967.76 1448.21 1004.29C1456.68 1035.24 1460.59 1067.27 1459.81 1099.35C1459.09 1118.88 1455.52 1137.88 1453.02 1157.15C1451.95 1168.72 1448.33 1179.92 1442.43 1189.93C1435.21 1201.97 1426.24 1212.76 1420.51 1225.67C1410.33 1248.69 1408.67 1288.33 1405.16 1313.01C1400.78 1344.75 1397.36 1364.72 1389.01 1395.64C1380.63 1426.3 1384.05 1458.91 1367.59 1486.29C1358.5 1501.46 1336.79 1520.6 1322.76 1531.12C1282.04 1561.54 1231.09 1575.45 1186.28 1599.15C1134.93 1626.29 1082.97 1652.44 1032.72 1681.63C1012.14 1693.29 992.219 1706.07 973.041 1719.92C957.351 1731.56 944.837 1745.57 930.59 1758.77C890.786 1795.64 845.194 1812.32 793.911 1828.7C723.039 1851.36 643.372 1867.38 569.203 1868.08C529.785 1868.47 490.991 1867.87 451.982 1874.78C423.148 1879.72 395.047 1888.26 368.331 1900.19C334.062 1915.74 302.152 1937.85 277.798 1966.8C272.834 1972.73 265.878 1981.4 261.723 1987.92C262.036 1987.44 256.505 1987.92 273.786 1987.92C316.526 1920.92 383.1 1886.07 458.858 1874.78C499.986 1865.24 565.594 1879.35 605.831 1878.37C646.154 1877.54 686.367 1873.81 726.156 1867.22C787.932 1856.74 849.731 1838.32 903.613 1805.59C924.954 1792.84 944.575 1777.4 961.995 1759.66C975.374 1745.75 990.129 1733.23 1006.03 1722.31C1051.76 1690.85 1101.67 1665.42 1150.71 1639.68C1201.4 1613.07 1252.73 1587.27 1301.58 1557.39C1319.7 1546.31 1337.87 1534.68 1353.85 1520.61C1370.29 1506.16 1380.46 1487.62 1389.27 1467.63C1414.66 1410.62 1413.99 1342.26 1420.51 1280.3C1421.9 1267.1 1434.73 1257.79 1438.8 1245.03C1443.25 1231.01 1451.7 1219.21 1459.78 1207.12C1467.17 1196.07 1472.44 1185.45 1474.22 1172.03C1475.26 1163.92 1476.63 1155.82 1477.76 1147.73C1487.7 1081.5 1474.39 1017.92 1450.71 955.839C1441.08 930.72 1430.33 904.084 1412.76 883.325C1403.64 872.511 1392.67 865.961 1380.15 859.771C1376.13 857.772 1372.09 855.773 1368 853.895C1366.82 853.365 1365.59 852.257 1369.73 854.762C1375.51 858.254 1369.59 854.762 1367.97 853.895C1365.57 852.667 1362.95 851.487 1360.39 850.283C1355.52 848.192 1350.54 846.351 1345.47 844.768C1327.23 838.771 1309.02 832.895 1291.13 825.862C1266.64 816.229 1245.41 805.247 1223.9 786.944C1205.51 771.338 1189.82 751.494 1184.21 727.627C1180.82 713.178 1178.73 699.378 1172.64 685.771C1166.74 672.696 1159.01 660.531 1149.68 649.646C1132.98 630.537 1112.88 614.695 1090.41 602.925C1072.43 593.292 1053.49 583.466 1033.73 577.903C1027.88 576.383 1021.89 575.487 1015.85 575.23C1003.82 574.338 992.462 568.005 981.705 563.381C952.273 550.568 920.796 537.829 888.019 540.622C870.09 542.139 853.798 549.027 835.484 547.51C828.107 546.833 820.837 545.281 813.826 542.886C813.657 542.886 804.825 539.803 809.783 541.778C814.74 543.753 806.727 540.165 805.138 539.249C801.192 537.034 797.317 534.698 793.467 532.338C763.313 514.01 733.304 495.924 700.84 481.763C673.021 469.722 642.795 463.026 613.098 472.13C595.266 477.524 577 485.135 564.102 498.766C549.662 513.794 536.812 531.302 517.03 539.514C505.95 543.986 493.775 544.994 482.111 542.404C477.948 541.537 473.929 539.418 469.814 538.695C464.135 537.684 477.034 543.681 471.86 539.514C470.045 538.234 468.148 537.076 466.18 536.046C457.854 531.013 449.335 526.245 440.767 521.765C415.427 508.568 388.137 492.641 360.937 489.9C349.632 488.761 348.668 488.498 338.244 487.883L335.949 491.468L354.014 493.581Z" fill="#DE1919"/>
</svg>
