<svg width="1741" height="608" viewBox="0 0 1741 608" fill="none" xmlns="http://www.w3.org/2000/svg">
<path d="M0.858398 446.058V446.558H1.3584H146.198H146.698V446.058V438.943V438.574L146.345 438.465L113.665 428.41V103.009H263.095V428.41L230.414 438.465L230.061 438.574V438.943V446.058V446.558H230.561H374.893H375.393V446.058V438.943V438.574L375.04 438.465L342.359 428.41V104.927L375.019 96.3856L375.393 96.2879V95.9018V90.3115V89.8115H374.893H1.3584H0.858398V90.3115V95.9018V96.2879L1.23188 96.3856L33.892 104.927V428.41L1.21136 438.465L0.858398 438.574V438.943V446.058Z" stroke="#767574"/>
<path d="M297.224 535.128H297.724V534.628V524.091V523.69L297.333 523.603L229.984 508.637V372.162C249.538 383.215 274.231 388.359 304.751 388.359C363.189 388.359 408.686 370.259 439.567 335.977C470.441 301.704 486.643 251.328 486.643 186.898C486.643 131.514 474.588 85.8596 451.17 54.0383C427.738 22.1967 392.962 4.25296 347.653 4.25296C301.009 4.25296 261.854 22.251 229.469 57.4694L227.738 55.7382L229.984 13.8117L229.996 13.589L229.838 13.4314L217.795 1.38876L217.628 1.22155L217.393 1.24471L72.1287 15.5453L71.6777 15.5897V16.0429V26.5802V26.9706L72.0565 27.0653L116.838 38.2606V508.677L72.0196 523.617L71.6777 523.731V524.091V534.628V535.128H72.1777H297.224ZM229.984 76.4242C248.709 51.7686 270.365 39.8755 294.214 39.8755C318.402 39.8755 337.834 56.2372 351.246 84.7482C364.657 113.258 371.991 153.821 371.991 201.951C371.991 259.88 364.653 303.251 349.936 332.123C342.581 346.551 333.391 357.344 322.365 364.531C311.343 371.716 298.456 375.316 283.676 375.316C265.8 375.316 247.904 370.128 229.984 360.465V76.4242Z" stroke="#767574"/>
<path d="M358.456 483.189V483.689H358.956H469.468H469.968V483.189V477.169V476.836L469.66 476.707L449.327 468.235V460.96L530.642 316.306L531.312 316.976L530.029 354.17L530.029 354.178V354.187V468.235L509.696 476.707L509.388 476.836V477.169V483.189V483.689H509.888H620.4H620.9V483.189V477.169V476.808L620.558 476.695L595.1 468.208V283.591L620.565 274.678L620.9 274.56V274.206V268.186V267.686H620.4H509.888H509.388V268.186V274.206V274.533L509.688 274.664L530.029 283.563V290.415L448.715 435.068L448.045 434.398L449.327 397.205L449.327 397.196V397.188V283.563L469.668 274.664L469.968 274.533V274.206V268.186V267.686H469.468H358.956H358.456V268.186V274.206V274.56L358.791 274.678L384.256 283.591V468.208L358.798 476.695L358.456 476.808V477.169V483.189Z" stroke="#767574"/>
<path d="M1141.19 541.505V542.005H1141.69H1252.2H1252.7V541.505V535.485V535.152L1252.39 535.024L1232.06 526.552V519.276L1313.37 374.623L1314.04 375.293L1312.76 412.486L1312.76 412.495V412.503V526.552L1292.43 535.024L1292.12 535.152V535.485V541.505V542.005H1292.62H1403.13H1403.63V541.505V535.485V535.125L1403.29 535.011L1377.83 526.525V341.907L1403.29 332.994L1403.63 332.877V332.522V326.502V326.002H1403.13H1292.62H1292.12V326.502V332.522V332.849L1292.42 332.98L1312.76 341.879V348.731L1231.44 493.385L1230.77 492.715L1232.06 455.521L1232.06 455.513V455.504V341.879L1252.4 332.98L1252.7 332.849V332.522V326.502V326.002H1252.2H1141.69H1141.19V326.502V332.522V332.877L1141.52 332.994L1166.99 341.907V526.525L1141.53 535.011L1141.19 535.125V535.485V541.505Z" stroke="#767574"/>
<path d="M976.128 161.035L976.463 160.918V160.563V151.277V150.777H975.963H848.614H848.289L848.157 151.075L746.474 380.851L646.774 151.078L646.643 150.777H646.315H517.64H517.14V151.277V160.563V160.918L517.475 161.035L556.917 174.84L541.7 461.329L502.22 475.147L501.885 475.264V475.619V482.915V483.415H502.385H595.906H596.406V482.915V475.619V475.264L596.072 475.147L556.63 461.342L570.425 209.082L692.951 483.119L693.084 483.415H693.408H718.612H718.939L719.07 483.115L838.939 209.787L852.074 460.009L812.639 473.154L812.297 473.268V473.629V482.915V483.415H812.797H991.218H991.718V482.915V473.629V473.268L991.376 473.154L951.903 459.997L936.686 174.84L976.128 161.035Z" stroke="#767574"/>
<path d="M877.626 130.92L877.711 130.829L877.743 130.709C879.379 124.712 880.468 117.631 880.468 109.466C880.468 77.3817 868.494 51.7988 844.562 31.6738C820.64 11.5574 790.206 1.24231 753.298 1.24231C712.581 1.24231 678.891 14.276 652.265 39.8155L652.261 39.8191C626.166 65.3707 613.136 99.0699 613.136 141.945C613.136 182.657 625.625 215.27 650.634 240.279C675.654 265.299 710.983 277.777 757.087 277.777C803.767 277.777 842.332 262.03 873.287 230.532L873.62 230.193L873.299 229.844L867.344 223.348L866.992 222.963L866.622 223.332C845.602 244.353 820.286 255.124 790.649 255.124C759.089 255.124 735.431 245.418 719.58 226.142C703.783 206.931 695.675 178.136 695.338 139.739H869.141H869.358L869.506 139.581L877.626 130.92ZM756.004 10.3622C763.885 10.3622 770.746 12.6304 776.616 17.1681C782.492 21.7113 787.404 28.5511 791.34 37.7344C799.184 56.0369 803.109 83.5463 803.141 120.379L695.346 130.568C696.21 90.0245 703.226 59.9849 714.084 40.0775C724.987 20.0892 739.729 10.3622 756.004 10.3622Z" stroke="#767574"/>
<path d="M1735.55 211.864L1735.64 211.774L1735.67 211.654C1738.32 201.916 1740.09 190.413 1740.09 177.147C1740.09 124.996 1720.64 83.4285 1681.74 50.7196C1642.85 18.0193 1593.37 1.24231 1533.34 1.24231C1467.11 1.24231 1412.34 22.4385 1369.05 63.9629L1369.04 63.9665C1326.62 105.503 1305.43 160.289 1305.43 230.032C1305.43 296.251 1325.74 349.271 1366.39 389.925C1407.06 430.59 1464.5 450.89 1539.51 450.89C1615.44 450.89 1678.15 425.28 1728.49 374.056L1728.82 373.717L1728.5 373.367L1718.81 362.79L1718.45 362.405L1718.08 362.775C1683.8 397.059 1642.5 414.633 1594.16 414.633C1542.7 414.633 1504.08 398.805 1478.19 367.328C1452.36 335.916 1439.15 288.84 1438.65 226.125H1721.96H1722.18L1722.33 225.967L1735.55 211.864ZM1537.75 15.4638C1550.64 15.4638 1561.88 19.1774 1571.5 26.6113C1581.12 34.0507 1589.15 45.2374 1595.57 60.2238C1608.39 90.1323 1614.78 135.072 1614.81 195.202L1438.66 211.853C1440.03 145.631 1451.47 96.546 1469.21 64.0123C1487 31.3976 1511.1 15.4638 1537.75 15.4638Z" stroke="#767574"/>
<path d="M1336.9 292.378L1336.99 292.288L1337.02 292.168C1339.06 284.693 1340.42 275.864 1340.42 265.683C1340.42 225.669 1325.49 193.77 1295.64 168.672C1265.81 143.583 1227.85 130.714 1181.8 130.714C1131 130.714 1088.98 146.973 1055.77 178.829L1055.76 178.833C1023.22 210.701 1006.96 252.733 1006.96 306.227C1006.96 357.018 1022.54 397.695 1053.73 428.886C1084.94 460.089 1129 475.658 1186.53 475.658C1244.77 475.658 1292.87 456.013 1331.49 416.72L1331.82 416.382L1331.5 416.032L1324.07 407.923L1323.72 407.538L1323.35 407.908C1297.08 434.17 1265.45 447.629 1228.42 447.629C1189 447.629 1159.43 435.504 1139.61 411.407C1119.85 387.374 1109.73 351.355 1109.32 303.348H1326.4H1326.62L1326.77 303.19L1336.9 292.378ZM1185.18 141.85C1195.04 141.85 1203.63 144.689 1210.98 150.371C1218.34 156.059 1224.48 164.617 1229.4 176.093C1239.21 198.982 1244.11 233.379 1244.14 279.418L1109.33 292.162C1110.4 241.47 1119.16 203.904 1132.74 179.007C1146.36 154.03 1164.8 141.85 1185.18 141.85Z" stroke="#767574"/>
<path d="M771.977 606.92V607.42H772.477H944.255H944.755V606.92V597.526V597.196L944.451 597.066L913.217 583.775V443.694H1038.37V583.773L1006.47 597.065L1006.16 597.193V597.526V606.92V607.42H1006.66H1178.44H1178.94V606.92V597.526V597.166L1178.6 597.052L1138.68 583.746V295.256L1178.6 281.282L1178.94 281.165V280.81V271.416V270.916H1178.44H1006.66H1006.16V271.416V280.81V281.137L1006.46 281.268L1038.37 295.228V426.59H913.217V295.226L944.459 281.267L944.755 281.134V280.81V271.416V270.916H944.255H772.477H771.977V271.416V280.81V281.165L772.311 281.282L812.237 295.256V583.746L772.318 597.052L771.977 597.166V597.526V606.92Z" stroke="#767574"/>
<path d="M1018.63 257.214V257.714H1019.13H1149.93H1150.43V257.214V250.061V249.73L1150.13 249.601L1126.42 239.511V133.044H1221.47V239.508L1197.26 249.599L1196.95 249.727V250.061V257.214V257.714H1197.45H1328.25H1328.75V257.214V250.061V249.7L1328.41 249.586L1298.09 239.481V19.98L1328.41 9.36743L1328.75 9.25024V8.8955V1.74231V1.24231H1328.25H1197.45H1196.95V1.74231V8.8955V9.22251L1197.25 9.35358L1221.47 19.9523V119.781H1126.42V19.9495L1150.13 9.352L1150.43 9.21973V8.8955V1.74231V1.24231H1149.93H1019.13H1018.63V1.74231V8.8955V9.25024L1018.96 9.36743L1049.29 19.98V239.481L1018.97 249.586L1018.63 249.7V250.061V257.214Z" stroke="#767574"/>
</svg>
